<svg width="100.001" height="99.997" fill="none" xmlns="http://www.w3.org/2000/svg"><path d="M59.264 34.758l38.663 21.06c2.002 1.09 2.653 3.686 1.517 5.657l-2.589 4.483c-1.135 1.971-3.718 2.705-5.657 1.518L53.632 44.522l-3.59 6.219-31.393-18.12 12.813-22.195 31.392 18.12-3.59 6.212zM42.834.66l22.782 13.152c2.366 1.364 3.183 4.42 1.818 6.786l-1.786 3.093-31.392-18.12 1.786-3.093C37.406.113 40.468-.704 42.834.661zm-27.26 47.216l22.783 13.151c2.366 1.365 5.421.549 6.786-1.817l1.786-3.094-31.392-18.12-1.786 3.094c-1.365 2.366-.542 5.421 1.824 6.786zM12.68 77.911h26.31a4.978 4.978 0 014.968 4.968v3.572H7.71v-3.572a4.978 4.978 0 014.968-4.968zM4.97 91.457H46.7c2.736 0 4.968 2.239 4.968 4.969v3.571H0v-3.571a4.978 4.978 0 014.968-4.969z" fill-rule="evenodd" fill="#2B6AB0"/></svg>