<svg width="100" height="100" fill="none" xmlns="http://www.w3.org/2000/svg"><defs><clipPath id="a"><path fill="#fff" d="M0 0h100v100H0z"/></clipPath></defs><g clip-path="url(#a)"><path d="M50.003 53.358c9.663 0 17.501 7.832 17.501 17.501 0 9.663-7.832 17.501-17.5 17.501-9.663 0-17.502-7.838-17.502-17.5 0-9.663 7.839-17.502 17.501-17.502zm0-7.5c13.809 0 25.002 11.193 25.002 25.001 0 13.808-11.193 25.002-25.002 25.002-13.808 0-25.001-11.194-25.001-25.002 0-13.808 11.193-25.001 25.001-25.001zM5 41.712h27.075V24.734c0-2.75 2.251-5 5-5h25.85c2.749 0 5 2.25 5 5v16.978H95c2.749 0 5 2.251 5 5V95c0 2.749-2.251 5-5 5H5c-2.749 0-5-2.251-5-5V46.712c0-2.749 2.251-5 5-5zm33.325-15.135h23.356v9.235H38.325v-9.235zM50.003-.006c1.104 0 2.003.899 2.003 2.002v11.002c0 1.104-.9 2.003-2.003 2.003-1.103 0-2.002-.9-2.002-2.003V1.996c0-1.103.899-2.002 2.002-2.002zM19.178 5.638a2.002 2.002 0 012.826 0l7.781 7.781a2.002 2.002 0 010 2.826 2.002 2.002 0 01-2.825 0l-7.782-7.781a2.002 2.002 0 010-2.826zm61.656 0a2.002 2.002 0 00-2.825 0l-7.781 7.781a2.002 2.002 0 000 2.826 2.002 2.002 0 002.825 0l7.781-7.781a2.002 2.002 0 000-2.826zM33.191.16a2.005 2.005 0 012.634 1.027l4.426 10.071a2.005 2.005 0 01-1.026 2.634 2.005 2.005 0 01-2.635-1.027l-4.426-10.07A2.005 2.005 0 0133.191.159zm33.63 0a2.005 2.005 0 00-2.633 1.027l-4.428 10.07a2.005 2.005 0 001.027 2.634 2.005 2.005 0 002.634-1.027l4.427-10.07A2.005 2.005 0 0066.822.159zm-54.6 19.517a2.008 2.008 0 012.512-1.301l10.485 3.33a2.008 2.008 0 011.302 2.512 2.008 2.008 0 01-2.513 1.301l-10.486-3.33a2.008 2.008 0 01-1.3-2.512zm75.572 0a2.008 2.008 0 00-2.513-1.301l-10.486 3.33a2.008 2.008 0 00-1.3 2.512 2.008 2.008 0 002.512 1.301l10.486-3.33a2.008 2.008 0 001.3-2.512zM12.22 36.291a2.008 2.008 0 002.513 1.3l10.485-3.329a2.008 2.008 0 001.302-2.512 2.008 2.008 0 00-2.513-1.302l-10.486 3.33a2.008 2.008 0 00-1.3 2.513zm75.573 0a2.008 2.008 0 01-2.513 1.3l-10.486-3.329a2.008 2.008 0 01-1.3-2.512 2.008 2.008 0 012.512-1.302l10.486 3.33a2.008 2.008 0 011.3 2.513z" fill-rule="evenodd" fill="#2B6AB0"/></g></svg>