<svg width="100.006" height="99.995" fill="none" xmlns="http://www.w3.org/2000/svg"><path d="M8.502 33.663h5V15.129h-5v18.534zM32.005 5.396c8.017.618 16.034 1.23 24.044 1.843 2.194.166 4 1.824 4 4.037v26.24c0 2.206-1.818 3.87-4 4.036-8.017.613-16.034 1.231-24.044 1.85v1.358c0 2.22-1.799 4.038-4 4.038H4c-2.201 0-4-1.818-4-4.038V37.7c0-2.047 1.53-3.757 3.502-4.005V15.103C1.536 14.854 0 13.145 0 11.098v-7.06C0 1.817 1.799 0 3.999 0h24.007c2.2 0 3.999 1.818 3.999 4.037v1.359zm0 32.948l6.862-.53v-26.83l-6.862-.53v.638c0 2.048-1.538 3.757-3.502 4.006v18.591c1.965.25 3.502 1.952 3.502 4.006v.65zm-13.503-4.681h5V15.129h-5v18.534zM54.685 69.43h.108c-1.894-1.435-4.47-2.04-7.003-2.066-4.815-.51-11.43 5.39-18.777 13.923 5.766 6.531 12.374 13.834 18.777 13.668 3.119-.083 5.46-.886 7.118-2.239h-.223c-2.2 0-4-1.817-4-4.037V73.468c0-2.22 1.8-4.038 4-4.038zm6.575.02l4.076.012c14.497.255 29.37-2.009 29.447-17.297.076-15.39-18.024-16.5-29.728-16.818V12.239c19.16.121 34.951 11.187 34.951 39.926 0 24.696-10.326 40.277-34.664 40.545h-3.718l-1.537 1.71c-3.113 3.265-7.163 5.51-12.29 5.574-7.086.089-14.549-5.99-22.228-14.963-7.513 7.086-15.11 7.921-22.84.038-4.878-8.17-2.703-15.862 4.912-22.1a2.466 2.466 0 011.71-.682c1.377 0 2.5 1.129 2.5 2.52 0 .727-.307 1.377-.792 1.843-.05.044-.095.089-.153.134-5.561 4.866-7.5 9.847-4.356 15.052 4.758 5.497 10.383 5.67 17.303-2.214 9.536-11.486 17.45-17.411 23.943-17.303 6.244.102 9.982 2.34 12.393 5.536l1.071 1.595z" fill-rule="evenodd" fill="#2B6AB0"/></svg>