<svg width="100.013" height="91.307" fill="none" xmlns="http://www.w3.org/2000/svg"><path d="M5.613 47.637c1.269-4.03 3.386-5.173 6.046-3.903 2.953 1.811 7.647 4.694 10.281 6.818 1.684 1.358 1.39 2.8-.332 3.189-3.597.822-8.501.453-12.315-.606-2.622-.727-5.103-.982-3.68-5.498zm88.8 0c-1.27-4.03-3.387-5.173-6.046-3.903-2.953 1.811-7.648 4.694-10.282 6.818-1.683 1.358-1.39 2.8.332 3.189 3.597.822 8.502.453 12.316-.606 2.621-.727 5.102-.982 3.68-5.498zm-.733 17.182c-6.168-.23-13.222.568-18.713-2.06-3.432-1.639-5.32 2.666-2.59 4.114 3.15 1.67 6.212 2.455 9.624 2.52 3.968.076 2.57 1.421 1.397 3.386-1.684 2.806 2.111 5.268 3.833 3.119 2.928-3.661 8.75-10.996 6.449-11.079zM80.668 82.512v4.573a4.236 4.236 0 004.223 4.222h10.9c2.321 0 4.222-1.9 4.222-4.222V59.073c0-5.313-.172-9.924-1.869-15.04-1.805-4.298-5.715-6.977-8.483-10.166 1.742-.025 3.483.032 5.224-.077 1.071-.063 2.468-.778 2.29-1.964-.185-1.25-.109-2.991-.95-3.482-1.55-.906-4.746-1.614-5.83-1.429-1.352.23-2.258 1.23-2.704 2.226-1.888-4.19-3.591-8.323-6.079-12.316-3.418-5.485-5.918-5.683-12.328-5.925-13.407-.504-25.149-.504-38.555 0-6.41.242-8.904.44-12.329 5.925-2.487 3.993-4.196 8.132-6.078 12.316-.446-.995-1.345-1.996-2.704-2.226-1.084-.185-4.286.523-5.83 1.429-.841.49-.765 2.232-.95 3.482-.178 1.18 1.218 1.894 2.29 1.964 1.735.109 3.482.052 5.223.077-2.761 3.189-6.677 5.861-8.482 10.166C.172 49.143 0 53.76 0 59.073v28.012c0 2.321 1.9 4.222 4.222 4.222h10.9c2.322 0 4.222-1.9 4.222-4.222v-4.573c18.547 2.104 42.777 2.104 61.324 0zM70.183 15.696c3.559.268 5.88.306 7.998 4.484 1.85 2.908 2.972 5.995 4.33 9.031-21.665.026-43.331.026-64.997 0 1.352-3.036 2.48-6.123 4.33-9.031 2.112-4.178 4.44-4.216 7.998-4.484a269.505 269.505 0 0140.341 0zm-7.5 34.856c4.152-.115 4.668-.772 6.894-3.967 3.865-5.556 9.312-11.053 14.28-14.427 1.27 5.44-5.402 10.76-11.365 18.38-2.188 3.451-5.147 4.97-8.75 4.874-9.153-.007-18.305-.007-27.458 0-3.603.095-6.563-1.429-8.75-4.873-5.964-7.622-12.635-12.947-11.366-18.381 4.975 3.374 10.415 8.871 14.28 14.427 2.226 3.195 2.743 3.852 6.895 3.967 8.1.223 17.24.223 25.34 0zm1.154 21.296c2.947.064 5.262-.077 7.118 1.868l2.564 2.928c-15.67.025-31.335.025-47 0l2.565-2.928c1.855-1.945 4.164-1.798 7.117-1.868a623.735 623.735 0 0127.636 0zM6.352 64.813c6.168-.23 13.222.567 18.713-2.06 3.432-1.64 5.32 2.666 2.59 4.114-3.15 1.67-6.212 2.455-9.625 2.519-3.967.076-2.57 1.422-1.396 3.386 1.683 2.807-2.111 5.269-3.833 3.12-2.928-3.662-8.751-10.996-6.449-11.08zM26.002 0h13.612v7.003H26.003c-3.285 0-3.291-7.003 0-7.003zm48.033 0h-13.61v7.003h13.61c3.291 0 3.285-7.003 0-7.003zM42.541.02h14.956v7.002H42.541V.02z" fill-rule="evenodd" fill="#2B6AB0"/></svg>