<svg width="100.001" height="99.997" fill="none" xmlns="http://www.w3.org/2000/svg"><path d="M9.994 30.618v9.892c0 20.952 13.28 40.978 32.687 48.849 13.809-5.6 24.51-17.348 29.537-31.201l-.549.778c-5.077 7.252-15.377 7.2-20.511.051L28.77 27.792c-4.203-5.861-2.813-13.285 2.998-17.354.216-.153.44-.293.657-.434H25.23a39.567 39.567 0 01-5.746 11.78c-2.507 3.49-5.728 6.665-9.49 8.834zm56.554-7.94c-.23-.3-.453-.6-.67-.9a39.417 39.417 0 01-5.747-11.78h-14.42a13.135 13.135 0 013.482 3.355l12.093 16.844 5.262-7.52zM0 23.512c8.106-.32 16.634-12.023 16.774-23.51h51.834c.057 4.905 1.645 9.842 4.075 13.924l-3.1 4.426c-2.71-3.929-4.655-8.578-5.504-13.35H21.296c-.886 4.976-2.966 9.823-5.861 13.86-2.596 3.617-6.2 6.997-10.435 8.63V40.51c0 23.7 15.41 46.132 37.688 54.2 20.205-7.322 34.76-26.456 37.298-47.637l5.396-7.705v1.136c0 26.953-18.024 51.412-42.688 59.493C18.03 91.923.006 67.457.006 40.504.006 29.368 0 34.649 0 23.513zm45.13-7.24l16.2 22.572L86.243 3.27c5.689-8.125 17.979.478 12.29 8.604L67.587 56.066c-3.112 4.445-9.235 4.35-12.354 0L32.847 24.87c-5.785-8.061 6.499-16.653 12.283-8.597z" fill-rule="evenodd" fill="#2B6AB0"/></svg>