<svg width="99.993" height="99.999" fill="none" xmlns="http://www.w3.org/2000/svg"><path d="M31.77 64.282c3.154 1.478 5.892 2.662 8.38 3.557C25.47 71.825 14.37 84.5 12.719 100H0c.013-4.05 0-7.58 0-10.555C0 72.86 11.483 69.22 19.66 67.198c4.414-1.094 8.06-1.183 12.11-2.917zm28.175 3.583c2.463-.89 5.162-2.08 8.278-3.583 4.05 1.728 7.696 1.823 12.11 2.917 8.177 2.022 19.66 5.669 19.66 22.245 0 2.98-.013 6.506 0 10.555H87.275c-1.65-15.469-12.7-28.123-27.33-32.134zM49.996 0C36.39.89 25.2 5.713 24.707 27.906c-4.376.985-1.503 15.744 2.15 15.802C31.2 55.735 40.24 64.493 50.003 64.768c9.763-.275 18.802-9.026 23.146-21.06 3.653-.058 6.525-14.817 2.15-15.802C74.806 5.706 63.598.889 49.996 0zm-21.36 31.124c.927 3.122.358-4.363 5.213-7.901 5.38-3.922 7.696.058 16.128-.173 4.99-.268 5.515-1.823 8.547-1.215 3.122.62 4.9 1.337 7.204 2.63.556.517-2.04-4.274.793-1.773 1.005 1.004 2.412 4.21 3.25 6.538.678 1.887.787 3.256 1.587 1.894.576-.57 1.817-.64 2.06.46 1.35 6.89-2.604 10.46-4.044 10.761-2.897 8.035-9.922 18.073-19.384 18.412-9.462-.339-16.48-10.377-19.384-18.412-1.44-.3-5.393-3.87-4.044-10.76.243-1.1 1.497-1.03 2.073-.461z" fill-rule="evenodd" fill="#2B6AB0"/><path d="M50.003 76.52c8.937 0 16.883 4.268 21.905 10.876-.058 4.114-1.222 7.639-5.278 7.217-5.95-.62-8.003-1.344-16.627-1.344-8.624 0-10.678.723-16.627 1.344-4.056.422-5.22-3.103-5.278-7.217 5.022-6.608 12.961-10.875 21.905-10.875zm26.486 20.082c.307 1.107.55 2.24.722 3.397h5.048c-1.983-16.05-15.667-28.475-32.25-28.475-16.588 0-30.266 12.424-32.25 28.475h5.048c.166-1.157.41-2.29.723-3.39.653 1.945 2.386 3.39 3.934 3.39h45.09c1.555 0 3.282-1.452 3.935-3.397z" fill-rule="evenodd" fill="#2B6AB0"/></svg>