<svg width="100.006" height="100.006" fill="none" xmlns="http://www.w3.org/2000/svg"><path d="M2.226 26.398c5.223-6.205 10.447-12.418 15.67-18.623 1.518-1.977 3.05-3.502 5.588-4.51l2.487-.516c-1.92 2.87-2.991 6.525-3.31 10.69a597.339 597.339 0 00-.345 4.77 6.591 6.591 0 00-3.035-.74h-1.633c-3.68 0-6.646 3.017-6.646 6.684v9.695c0 3.667 2.966 6.684 6.646 6.684h1.633c.637 0 1.256-.09 1.836-.262a779.015 779.015 0 00-.535 20.786L0 68.646V35.334c0-5.32.995-7.003 2.226-8.936zM20.792 86.46l-1.582-.058c-.057 4.88-.778 10.913-3.131 10.913H7.998c-2.124-.064-3.266-4.803-3.285-11.142L3.54 86.14C1.55 86.05 0 85.152 0 81.982V73.82l20.53-3.942c0 4.611.039 9.229.115 13.84.013.912.058 1.83.147 2.743zM76.102 0c7.615.491 11.595 5.153 12.252 13.738 1.786 23.477 2.41 46.438 2.009 69.915-.051 3.151-.376 6.8-2.998 8.757v4.752c0 1.562-1.263 2.844-2.8 2.844h-6.129c-1.543 0-2.8-1.282-2.8-2.844v-3.336H39.384v3.336c0 1.562-1.263 2.844-2.8 2.844h-6.13c-1.543 0-2.8-1.282-2.8-2.844V92.41c-2.627-1.958-2.946-5.606-2.997-8.757-.402-23.477.223-46.431 2.01-69.915C27.322 5.153 31.296.491 38.917 0h37.184zm-6.62 80.413c1.569-.095 1.734-.51 2.002-1.148.345-.854.683-1.709 1.02-2.557.46-1.148-.089-1.646-2.736-1.646H45.234c-2.647 0-3.19.498-2.737 1.646.345.854.683 1.709 1.02 2.557.269.638.434 1.053 2.004 1.148H69.48zm3.36-8.361c1.57-.096 1.736-.51 2.003-1.148.345-.855.683-1.71 1.02-2.564.46-1.148-.088-1.646-2.735-1.646H41.87c-2.647 0-3.189.498-2.736 1.646.345.855.683 1.71 1.02 2.564.268.638.434 1.052 2.003 1.148h30.685zm3.362-8.362c1.569-.095 1.735-.51 2.003-1.148.344-.854.682-1.709 1.02-2.557.46-1.148-.09-1.646-2.736-1.646H38.517c-2.647 0-3.19.498-2.737 1.646.345.854.683 1.709 1.02 2.557.269.638.434 1.053 2.004 1.148h37.4zm3.336-8.361c1.569-.096 1.734-.51 2.002-1.148.345-.855.683-1.71 1.02-2.564.46-1.148-.089-1.646-2.736-1.646H35.187c-2.647 0-3.189.498-2.736 1.646.344.855.682 1.71 1.02 2.564.268.638.434 1.052 2.003 1.148H79.54zM72.07 43.44c8.286-.083 8.79-.6 12.017-3.559 1.786-1.639 1.41-3.903 1.352-5.663-.134-4.235-.536-8.445-.803-12.667-.37-3.227-1.78-3.533-4.459-3.603h-45.34c-2.686.07-4.089.376-4.459 3.603-.268 4.222-.663 8.432-.803 12.667-.058 1.76-.434 4.024 1.352 5.663 3.227 2.966 3.73 3.483 12.016 3.56H72.07zM38.333 80.42h-7.52c-.797 0-1.308-.504-1.308-1.327.013-4.783 0-9.56 0-14.344 0-.823.58-1.052 1.18-1.052h2.335c.37 0 1.014-.16 1.511 1.097 1.914 4.79 3.725 9.33 5.651 14.165.376.823-.53 1.448-1.85 1.46zM19.286 21.468h-1.633c-1.454 0-2.647 1.206-2.647 2.685v9.695c0 1.48 1.193 2.685 2.647 2.685h1.633c1.454 0 2.647-1.212 2.647-2.685v-9.695c0-1.48-1.193-2.685-2.647-2.685zM76.682 80.42h7.52c.797 0 1.307-.504 1.307-1.327-.013-4.783 0-9.56 0-14.344 0-.823-.58-1.052-1.18-1.052h-2.334c-.37 0-1.014-.16-1.511 1.097-1.914 4.79-3.725 9.33-5.651 14.165-.377.823.529 1.448 1.85 1.46zm19.045-58.952h1.632c1.455 0 2.647 1.206 2.647 2.685v9.695c0 1.48-1.192 2.685-2.647 2.685h-1.632c-1.454 0-2.647-1.212-2.647-2.685v-9.695c0-1.48 1.193-2.685 2.647-2.685z" fill-rule="evenodd" fill="#2B6AB0"/></svg>