<svg width="99.993" height="99.999" fill="none" xmlns="http://www.w3.org/2000/svg"><path d="M45.13 18.33l3.833-3.858c-12.781.637-23.809 8.195-27.801 19.975 1.333-15.045 11.94-23.554 27.744-24.006l-3.782-3.776V0l12.5 12.5-12.551 12.444.057-6.614zM10.307 44.99h30.002v19H10.307v-19zm0-10h30.002v6H10.307v-6zm43.344 8.24V22.08l3.999-3.967v21.15l-3.999 3.967zm13.196 17.768h18.936V50.794h10.205V3.999H57.644v2.857l-4-3.999V0h46.343v52.452L87.435 65.004H61.61v-2.507a35.986 35.986 0 005.236-1.499zm22.941-6.205v2.206l2.207-2.206h-2.207zm-27.96-35.506h30.001v3.999H61.828v-4zm30.001-7.998v3.999H61.828v-4.005l30.001.006zM61.828 27.29h30.001v4H61.828v-4zm0 7.998h15.536a24.249 24.249 0 01-2.028 3.999H61.834l-.006-3.999zm23.79 0h6.211v3.999h-6.741c.217-1.148.383-2.334.49-3.565l.04-.434zm-54.832-8.955h10.288l.032-3.998h-5.14a25.468 25.468 0 00-5.18 3.998zm-25.67 0h13.642a29.037 29.037 0 011.651-3.998H5.115C2.302 22.335 0 24.637 0 27.45v45.098c0 2.813 2.302 5.115 5.115 5.115h34.88v17.335h-12.5a2.504 2.504 0 00-2.5 2.5c0 1.378 1.123 2.5 2.5 2.5h45.003c1.377 0 2.5-1.122 2.5-2.5 0-1.377-1.123-2.5-2.5-2.5h-12.5V77.664h34.88c2.813 0 5.115-2.302 5.115-5.115v-14.44l-3.999 4v10.44c0 .612-.504 1.116-1.116 1.116H5.108a1.122 1.122 0 01-1.115-1.116V27.45c0-.613.51-1.117 1.122-1.117zM57.63 51.49l-3.833 3.859c12.781-.638 23.808-8.196 27.801-19.976-1.333 15.045-11.94 23.554-27.744 24.006l3.782 3.776v6.665l-12.5-12.5 12.551-12.444-.057 6.614z" fill-rule="evenodd" fill="#2B6AB0"/></svg>