<svg width="100" height="100" fill="none" xmlns="http://www.w3.org/2000/svg"><defs><clipPath id="a"><path fill="#fff" d="M0 0h100v100H0z"/></clipPath></defs><g clip-path="url(#a)"><path d="M0 28.522l26.921-4.394a13.07 13.07 0 001.863 3.66L42.26 46.56l-1.958.695L0 28.522zm53.779-8.776l9.152-1.492 5.862 1.224L61.286 30.2l-7.507-10.454zm41.642 5.288l4.579.956-6.997 2.494 2.418-3.45zM0 32.54l38.287 18.707v48.759L0 73.461v-40.92zm100-2.557l-10.843 3.992-17.475 24.957c-5.077 7.252-15.377 7.201-20.512.051l-6.25-8.712-2.634.97V100L100 72.9V29.983zM45.13 16.27l16.2 22.572L86.243 3.266c5.689-8.126 17.979.478 12.29 8.603L67.587 56.062c-3.112 4.446-9.235 4.35-12.354 0L32.847 24.868c-5.785-8.062 6.499-16.653 12.283-8.598z" fill-rule="evenodd" fill="#2B6AB0"/></g></svg>