<svg width="100" height="99.994" fill="none" xmlns="http://www.w3.org/2000/svg"><path d="M31.769 64.277c2.595 7.73 9.197 12.029 13.795 18.043l2.45-8.648c-2.016-.37-2.354-3.278-2.233-5.434 2.691.478 5.498.497 8.438 0 .121 2.156-.223 5.064-2.232 5.434l2.449 8.648c4.598-6.014 11.2-10.306 13.795-18.043 4.05 1.728 7.699 1.824 12.112 2.915C88.52 69.214 100 72.855 100 89.438c0 2.979-.013 6.506 0 10.556H0c.013-4.05 0-7.577 0-10.556 0-16.583 11.48-20.224 19.657-22.246 4.42-1.09 8.062-1.186 12.112-2.915zm31.915 19.28h10.683a2.717 2.717 0 012.71 2.711v5.721a2.717 2.717 0 01-2.71 2.71H63.684a2.717 2.717 0 01-2.71-2.71v-5.72a2.717 2.717 0 012.71-2.711zM49.997 0C36.393.893 25.199 5.708 24.702 27.91c-4.375.982-1.505 15.74 2.15 15.798 4.343 12.029 13.387 20.786 23.145 21.06 9.758-.274 18.802-9.031 23.145-21.06 3.655-.057 6.525-14.816 2.15-15.798C74.794 5.715 63.607.893 49.997 0zM28.63 31.124c.93 3.12.357-4.362 5.21-7.902 5.377-3.922 7.699.057 16.13-.172 4.994-.268 5.517-1.824 8.547-1.212 3.119.625 4.898 1.333 7.2 2.628.555.523-2.04-4.28.798-1.773 1.001 1.001 2.41 4.21 3.246 6.537.683 1.888.785 3.253 1.588 1.894.574-.567 1.818-.637 2.06.466 1.353 6.888-2.602 10.46-4.043 10.76-2.902 8.036-9.924 18.075-19.383 18.413-9.458-.338-16.48-10.377-19.383-18.413-1.441-.306-5.395-3.872-4.043-10.76.242-1.097 1.499-1.033 2.073-.466z" fill-rule="evenodd" fill="#2B6AB0"/></svg>