<svg width="99.974" height="99.987" fill="none" xmlns="http://www.w3.org/2000/svg"><path d="M8.171 34.786h29.992v3.999H8.171v-4zm0-7.998h29.992v3.999H8.171v-3.999zm27.954 27.986v2.211l2.211-2.21h-2.21zM4 60.978h28.127V50.775H42.33V4H3.999v56.979zM0 2.858V0h46.328v52.435L33.786 64.977H.006C.006 44.27 0 23.564 0 2.858zm8.171 39.926h29.992v3.999H8.171v-4zM16.4 22.59l9.99-14.63h3.532L19.93 22.59H16.4zm1.403-6.69c-.737 0-1.403-.16-1.987-.468a3.418 3.418 0 01-1.39-1.39c-.34-.616-.513-1.353-.513-2.218s.173-1.602.513-2.205a3.5 3.5 0 011.39-1.39c.584-.32 1.25-.481 1.987-.481.737 0 1.397.16 1.987.48a3.51 3.51 0 011.39 1.391c.34.61.513 1.34.513 2.205s-.173 1.602-.513 2.217a3.419 3.419 0 01-1.39 1.39c-.583.315-1.25.469-1.987.469zm0-2.256c.237 0 .449-.128.635-.385.185-.256.282-.737.282-1.429 0-.698-.097-1.172-.282-1.429-.186-.256-.404-.384-.635-.384-.224 0-.43.128-.628.384-.192.257-.295.737-.295 1.43 0 .698.096 1.172.295 1.428.192.257.404.385.628.385zm10.722 9.158c-.737 0-1.397-.154-1.987-.468a3.419 3.419 0 01-1.39-1.39c-.34-.616-.513-1.353-.513-2.218s.173-1.602.512-2.205c.34-.608.808-1.07 1.391-1.39.583-.32 1.25-.48 1.987-.48.737 0 1.403.16 1.986.48.584.32 1.051.782 1.391 1.39.34.61.513 1.34.513 2.205s-.173 1.602-.513 2.217a3.419 3.419 0 01-1.39 1.391c-.584.314-1.25.468-1.987.468zm0-2.256c.237 0 .448-.128.634-.384.186-.257.282-.738.282-1.43 0-.698-.096-1.172-.282-1.429-.186-.256-.403-.384-.634-.384-.225 0-.43.128-.628.384-.193.257-.295.737-.295 1.43 0 .698.096 1.172.295 1.428.192.257.403.385.628.385zM50.5 42.956h29.992v4H50.5v-4zm0-7.997h29.992v3.999H50.5v-3.999zm-4.172 34.19h2.506a28.354 28.354 0 00-.705 3.999h-5.8V62.087l3.999-4V69.15zm38.33-19.758V12.17H50.327V8.171h38.33v42.88a27.36 27.36 0 00-4-1.66zM50.5 50.95h12.997a27.83 27.83 0 00-5.954 3.998H50.5V50.95zm7.735-20.072c-1.294 0-2.442-.301-3.441-.897-.994-.596-1.775-1.468-2.34-2.615-.563-1.141-.845-2.525-.845-4.14 0-1.615.282-2.993.846-4.14.564-1.14 1.345-2.012 2.339-2.615.993-.596 2.14-.897 3.441-.897 1.295 0 2.442.301 3.441.897.994.603 1.776 1.468 2.34 2.615.564 1.14.846 2.525.846 4.14 0 1.615-.282 2.999-.846 4.14-.564 1.14-1.346 2.012-2.34 2.615-.993.596-2.14.897-3.44.897zm0-3.954c.32 0 .609-.11.859-.334.25-.224.448-.608.596-1.147.147-.544.218-1.282.218-2.217 0-.949-.07-1.692-.218-2.224-.148-.538-.346-.916-.596-1.14a1.25 1.25 0 00-.859-.334c-.32 0-.609.109-.859.333-.25.225-.448.603-.596 1.141-.147.538-.218 1.282-.218 2.224 0 .935.07 1.672.218 2.217.148.545.346.93.596 1.147.25.225.539.334.86.334zm9.37 3.672l7.228-10.587h2.557l-7.228 10.587h-2.558zm1.012-4.839a3.024 3.024 0 01-1.436-.34 2.492 2.492 0 01-1.006-1.006c-.25-.442-.371-.98-.371-1.602 0-.621.121-1.153.371-1.596.25-.435.584-.775 1.007-1.006.422-.23.903-.346 1.435-.346s1.013.116 1.436.346c.422.231.756.57 1.006 1.006.25.436.371.968.371 1.596 0 .628-.121 1.16-.371 1.602a2.5 2.5 0 01-1.006 1.007 3.03 3.03 0 01-1.436.34zm0-1.634c.173 0 .327-.096.462-.282.134-.186.205-.532.205-1.038s-.071-.846-.206-1.038c-.134-.186-.288-.282-.461-.282-.16 0-.314.096-.455.282-.141.186-.212.532-.212 1.038s.071.852.212 1.038c.141.186.295.282.455.282zm7.754 6.62a3.024 3.024 0 01-1.435-.34 2.492 2.492 0 01-1.006-1.006c-.25-.442-.372-.98-.372-1.602 0-.628.122-1.153.372-1.596a2.58 2.58 0 011.006-1.006c.423-.23.903-.346 1.435-.346s1.013.116 1.436.346c.423.231.756.57 1.006 1.006.25.436.372.968.372 1.596 0 .628-.122 1.16-.372 1.602-.25.442-.583.782-1.006 1.006-.423.225-.904.34-1.436.34zm0-1.634c.174 0 .327-.096.462-.282.135-.186.205-.532.205-1.038s-.07-.846-.205-1.038c-.135-.186-.288-.282-.462-.282-.16 0-.314.096-.455.282-.14.185-.211.532-.211 1.038s.07.852.211 1.038c.141.186.295.282.456.282zM75.981 52c13.246 0 23.993 10.741 23.993 23.994 0 13.247-10.74 23.994-23.993 23.994-13.247 0-23.994-10.74-23.994-23.994C51.987 62.747 62.727 52 75.98 52zm0 4c11.042 0 19.994 8.952 19.994 19.994s-8.952 19.995-19.994 19.995-19.995-8.953-19.995-19.995C55.986 64.951 64.939 56 75.98 56zm-7.678 17.18l5.12 6.6L83.71 65.087c2.352-3.358 7.428.198 5.076 3.557L76 86.894c-1.282 1.833-3.769 1.763-5.102 0L63.221 76.73c-2.467-3.268 2.57-6.786 5.082-3.55z" fill-rule="evenodd" fill="#2B6AB0"/></svg>