<svg width="100" height="100" fill="none" xmlns="http://www.w3.org/2000/svg"><defs><clipPath id="a"><path fill="#fff" d="M0 0h100v100H0z"/></clipPath></defs><g clip-path="url(#a)"><path d="M63.193 12.233a7.5 7.5 0 110 15.001 7.5 7.5 0 010-15.001zm0-12.233C73.55 0 81.944 8.4 81.944 18.758c0 10.357-10.709 41.246-18.751 41.246-8.043 0-18.751-30.882-18.751-41.246C44.442 8.4 52.835 0 63.192 0zm0 6.608c7.245 0 13.126 5.874 13.126 13.125 0 7.246-5.874 13.126-13.126 13.126-7.246 0-13.126-5.874-13.126-13.126 0-7.251 5.874-13.125 13.126-13.125zm23.72 13.425L100 27.757v72.249l-21.615-12.75v-17.41l10.383-13.12a5 5 0 10-3.686-2.13l-6.697 9.07V49.39a103.27 103.27 0 001.824-4.235c2.781-6.818 6.334-17.488 6.703-25.123zM0 27.757l21.608-12.75V35.29l-9.433 6.531a4.96 4.96 0 00-2.602-.727 5 5 0 104.975 4.51l7.06-4.886v46.54L0 100.013V27.757zm25.608-12.75L39.76 23.07c.97 7.245 3.98 16.143 6.41 22.093a111.63 111.63 0 001.824 4.235v10.441L25.608 35.347v-20.34zm22.386 50.8v34.199l-22.386-12.75V41.375l22.386 24.434zm26.392-9.037v9.07l-7.928 3.501a4.956 4.956 0 00-3.265-1.212 5.01 5.01 0 00-1.914.377L52 62.083V56.77c2.947 4.49 6.71 8.234 11.194 8.234 4.484 0 8.253-3.744 11.193-8.234zm0 14.49v15.997L52 100.006V67.504l6.346 4.395a5 5 0 109.765 2.137l6.275-2.775z" fill-rule="evenodd" fill="#2B6AB0"/></g></svg>