<svg xmlns="http://www.w3.org/2000/svg" viewBox="0 0 1920 1920"><linearGradient id="a" gradientUnits="userSpaceOnUse" x1="265.24" y1="214.702" x2="265.24" y2="708.597"><stop offset="0" stop-color="#fff"/><stop offset="1" stop-color="#3fa9f5"/></linearGradient><path d="M253.24 762.98c-18.76 64.82-28.78 133.41-28.78 204.33 0 33 2.19 65.53 6.41 97.41h75.14c-15.81-18.86-26.18-42.61-29.59-68.13l-13.88-7.93a25.39 25.39 0 01-12.71-19.57s-1.27-13.17-2.8-32.54c-1.17-15.96 3.86-25.93 9.46-32.95-.1-.36-.25-.71-.36-1.12l-1.27-7.07c-.15-.81-.2-1.58-.31-2.39l-1.47-8.95c-.25-1.53-.35-3-.35-4.52-.51-1.42-.87-2.9-1.12-4.42l-2.74-16.52c-2.19-12.86 2.13-21.66 7.52-27.66l-3.15-67.97z" fill-rule="evenodd" clip-rule="evenodd" fill="url(#a)"/><linearGradient id="b" gradientUnits="userSpaceOnUse" x1="930.882" y1="1517.62" x2="930.882" y2="1702.721"><stop offset="0" stop-color="#fff"/><stop offset="1" stop-color="#3fa9f5"/></linearGradient><path d="M784.59 1681.79c56.23 13.78 114.95 21.05 175.4 21.05 39.86 0 79.06-3.15 117.19-9.25-23.54-.71-53.59-3.81-91.87-10.83-102.29-18.77-168.85-9.01-200.72-.97z" fill-rule="evenodd" clip-rule="evenodd" fill="url(#b)"/><linearGradient id="c" gradientUnits="userSpaceOnUse" x1="959.989" y1="1517.601" x2="959.989" y2="1702.703"><stop offset="0" stop-color="#fff"/><stop offset="1" stop-color="#3fa9f5"/></linearGradient><path d="M1311.1 1518.53c23.49 3.71 48.45 6.51 76.31 5.69-63.04 36.15-172.4-12.2-270.73 1.68 5.9-2.8 11.64-5.24 17.34-7.37h-58.16c3.56.71 5.49 1.32 5.49 1.32s-7.78 1.47-60.7 9.86c-41.89 6.86-80.33-5.64-94.57-11.19h-453c50.49 44.69 107.17 82.52 168.64 111.95 13.57.1 27.81.51 42.45 1.32 81.3 4.68 99.19 6.91 99.19 6.91s-26.03 18.35-92.94 13.12c28.47 11.24 57.86 20.74 87.96 28.42 24.15-10.68 77.69-26.44 172.5-18.05 114.8 9.91 182.93 13.93 202.25 15 110.43-30 210.48-85.06 293.76-158.68H1311.1zm-519.34 86.08c-45.71-.56-67.98-10.73-67.98-10.73s61.92 2.34 89.69 0c27.81-2.24 49.52 6.97 49.52 6.97s-25.48 4.67-71.23 3.76zm6.4-40.22c-85.36 13.93-156.54-14.69-156.54-14.69s52.67 1.68 130.26-4.68c77.08-6.05 97.97-6.91 147.54 23.39-3.15-1.43-40.07-17.24-121.26-4.02zm220.45 65.94c-38.79-10.93-66.3-15.3-66.3-15.3s43.16-1.68 82.77 4.37c39.35 5.8 62.48 4.02 62.48 4.02s-40.21 18.2-78.95 6.91zm128.42-35.53c-91.31-31.22-173.88 2.8-180.89 5.8 6.86-5.14 85.46-61.21 179.17-34.11 97.77 28.32 191.52 24.86 191.52 24.86s-94.57 36.19-189.8 3.45z" fill-rule="evenodd" clip-rule="evenodd" fill="url(#c)"/><linearGradient id="d" gradientUnits="userSpaceOnUse" x1="1427.121" y1="220.126" x2="1427.121" y2="639.375"><stop offset="0" stop-color="#fff"/><stop offset=".109" stop-color="#eaf6fe"/><stop offset="1" stop-color="#3fa9f5"/></linearGradient><path d="M1382.99 557.53l39.15 96.34-14.74 20.95s39.86 39 37.32 44.23c-2.64 5.39 5.29 43.62 5.29 43.62l-20.18 11.08-44.94-3.1-13.32 8.49 42.3 58.87 20.08 15.61c4.68-19.78 9.51-38.89 13.93-56.03 10.12-38.33 21.35-79.06 34.83-118.92l-5.85-15.71-93.87-105.43z" fill-rule="evenodd" clip-rule="evenodd" fill="url(#d)"/><linearGradient id="e" gradientUnits="userSpaceOnUse" x1="969.064" y1="220.126" x2="969.064" y2="639.375"><stop offset="0" stop-color="#fff"/><stop offset=".109" stop-color="#eaf6fe"/><stop offset="1" stop-color="#3fa9f5"/></linearGradient><path d="M1480.4 440.24l-353.25-52.16h295.39c-126.34-102.29-287.31-163.61-462.56-163.61-107.22 0-209.21 22.93-301.08 64.26l17.39-4.88h199.3l-286.7 40.98c-71.03 41.54-134.48 94.67-187.71 156.85 73.97-10.98 137.37-19.62 212.01-29.03l7.83-1.02c24.56-3.2 42.5-5.54 64.62 6.61l50.23 19.57c.61.25 1.22.56 1.88.86l84.7 41.23c3.46 1.68 6.71 3.66 9.66 5.9h198.59l-178.86 25.57a60.02 60.02 0 014.22 26.08l-7.58 125.53 201.23-152.07 46.32 63.2s55.06.15 63.15 6.91c2.54 2.08 10.32 9.2 19.32 17.49l-12.61 13.52c-11.39-8.03-23.08-15.96-25.52-16.73-3.66-.76-40.42-5.39-61.11-7.83l-31.67-44.03 10.47 83.02-34.27-8.19 24.96 41.28-6.4 20.39-43.42 19.27 18.86 53.54-55.87-46.88-27 15.15 34.57 44.23h53.38c75.65-75.19 224.67-223.04 233.26-230.36 11.64-9.71 40.32 11.59 40.32 11.59l66.86-74.28 120.09 124.31v-107.4c0-14.03 11.39-25.42 25.42-25.42h28.11a741.557 741.557 0 00-56.53-63.45z" fill-rule="evenodd" clip-rule="evenodd" fill="url(#e)"/><linearGradient id="f" gradientUnits="userSpaceOnUse" x1="1483.581" y1="11.336" x2="1483.581" y2="1839.893"><stop offset="0" stop-color="#333"/><stop offset="1"/></linearGradient><path d="M1611.57 529.13c24.96 37.67 46.77 77.69 64.97 119.58 18 41.39 32.54 84.7 43.22 129.44 12.51 52.32 19.73 106.67 21.05 162.44h.05c.1 6.46.2 12.91.2 19.42 0 2.34-.1 4.73-.1 7.07h171.23L1788.7 866.77c-.41-3.46-.81-6.91-1.27-10.32v-.05a827.767 827.767 0 00-67.67-239.97c-12.86-28.47-27.35-56.08-43.22-82.72-.91-1.53-1.83-3.05-2.8-4.58-130.61-215.82-356.15-367.74-618.79-397.83v53.43c232.41 28.16 433.28 158.32 556.62 344.4z" fill-rule="evenodd" clip-rule="evenodd" fill="url(#f)"/><linearGradient id="g" gradientUnits="userSpaceOnUse" x1="547.067" y1="11.336" x2="547.067" y2="1839.893"><stop offset="0" stop-color="#333"/><stop offset="1"/></linearGradient><path d="M960 178.94c1.67 0 3.33.04 5.02.05V0L864.1 131.11C479 174.56 173.31 479.84 129.12 864.65h55.62C231.76 478.26 560.91 178.94 960 178.94z" fill-rule="evenodd" clip-rule="evenodd" fill="url(#g)"/><linearGradient id="h" gradientUnits="userSpaceOnUse" x1="898.17" y1="11.336" x2="898.17" y2="1839.893"><stop offset="0" stop-color="#333"/><stop offset="1"/></linearGradient><path d="M1730.35 1089.4H189.62c-7.02-42.09-10.68-85.32-10.68-129.4 0-1.71.05-3.41.05-5.11H7.8l121.09 100.57c43.4 385.33 348.89 691.23 733.97 735.25v-55.64c-194.98-24.18-367.66-120.23-490.74-260.81h1175.73c-143.16 163.53-353.44 266.81-587.86 266.81-2.4 0-4.78-.07-7.17-.08V1920l100.29-129.11c385.54-43.34 691.59-349.11 735.42-734.47h-53.4a760.742 760.742 0 01-4.78 32.98z" fill-rule="evenodd" clip-rule="evenodd" fill="url(#h)"/><path d="M465.7 1261.55h-56.94v-38.06c0-11.06-.61-17.97-1.83-20.72-1.22-2.74-3.9-4.12-8.05-4.12-4.69 0-7.67 1.67-8.93 5-1.26 3.34-1.89 10.55-1.89 21.64v101.72c0 10.64.63 17.58 1.89 20.83 1.26 3.25 4.1 4.87 8.52 4.87 4.24 0 7.01-1.63 8.32-4.88 1.31-3.25 1.96-10.89 1.96-22.91v-27.52h56.94v8.53c0 22.67-1.6 38.74-4.8 48.22-3.2 9.48-10.28 17.79-21.24 24.93-10.96 7.13-24.46 10.7-40.51 10.7-16.68 0-30.43-3.02-41.25-9.06-10.82-6.04-17.99-14.4-21.51-25.09-3.52-10.68-5.27-26.76-5.27-48.22v-63.98c0-15.78.54-27.61 1.62-35.51 1.08-7.89 4.31-15.49 9.67-22.79 5.36-7.31 12.8-13.05 22.31-17.25 9.51-4.19 20.45-6.29 32.8-6.29 16.77 0 30.61 3.24 41.53 9.73 10.91 6.48 18.08 14.57 21.5 24.25 3.43 9.68 5.14 24.74 5.14 45.18v20.8zm151.49 123.62h-57.08v-175.29H543.2v175.29h-57.08v-219.12h131.06v219.12zm22.72-218.98h94.95v43.82h-38.01v41.53h35.58v41.66h-35.58v48.15h41.79v43.82H639.9v-218.98zm257.81 256.72h-39.36v-37.73H755.02v-219.12h57.08v175.29h16.91v-175.29h57.08v175.29h11.63v81.56zm129.84-256.72v43.82h-33.81v175.16h-56.94v-175.16h-33.68v-43.82h124.43zm12.98 0h57.35c15.51 0 27.44 1.22 35.77 3.65 8.34 2.43 14.61 5.95 18.81 10.55 4.19 4.6 7.03 10.17 8.52 16.7 1.49 6.54 2.23 16.66 2.23 30.36v19.07c0 13.98-1.44 24.17-4.33 30.57-2.89 6.4-8.18 11.32-15.9 14.74-7.71 3.43-17.78 5.14-30.23 5.14h-15.29v88.19h-56.94v-218.97zm56.95 37.47v55.73c1.63.09 3.02.13 4.19.13 5.23 0 8.86-1.28 10.89-3.85 2.03-2.57 3.04-7.91 3.04-16.03v-17.99c0-7.48-1.18-12.35-3.52-14.61-2.34-2.25-7.21-3.38-14.6-3.38zm180.53-37.47l32.56 218.98h-58.2l-3.05-39.36h-20.37l-3.43 39.36h-58.87l29.05-218.98h82.31zm-30.17 140.8c-2.88-24.8-5.77-55.46-8.67-91.97-5.8 41.93-9.45 72.59-10.93 91.97h19.6zm203.34-140.8v218.98h-56.94v-91.98h-17.05v91.98h-56.94v-218.98h56.94v78.31h17.05v-78.31h56.94zm155.81 95.36h-56.94v-38.06c0-11.06-.61-17.97-1.83-20.72-1.22-2.74-3.9-4.12-8.05-4.12-4.69 0-7.67 1.67-8.93 5-1.26 3.34-1.89 10.55-1.89 21.64v101.72c0 10.64.63 17.58 1.89 20.83 1.26 3.25 4.1 4.87 8.52 4.87 4.24 0 7.01-1.63 8.32-4.88 1.31-3.25 1.96-10.89 1.96-22.91v-27.52H1607v8.53c0 22.67-1.6 38.74-4.8 48.22-3.2 9.48-10.28 17.79-21.24 24.93-10.96 7.13-24.46 10.7-40.51 10.7-16.68 0-30.43-3.02-41.25-9.06-10.82-6.04-17.99-14.4-21.51-25.09-3.52-10.68-5.27-26.76-5.27-48.22v-63.98c0-15.78.54-27.61 1.62-35.51 1.08-7.89 4.31-15.49 9.67-22.79 5.36-7.31 12.8-13.05 22.31-17.25 9.51-4.19 20.45-6.29 32.8-6.29 16.77 0 30.61 3.24 41.53 9.73 10.91 6.48 18.08 14.57 21.5 24.25 3.43 9.68 5.14 24.74 5.14 45.18v20.8z" fill="#3fa9f5"/><linearGradient id="i" gradientUnits="userSpaceOnUse" x1="398.394" y1="1166.456" x2="398.394" y2="1279.365"><stop offset="0" stop-color="#fff"/><stop offset="1" stop-color="#3fa9f5"/></linearGradient><path d="M460.55 1195.59c-3.41-9.71-10.57-17.79-21.51-24.25-10.88-6.51-24.71-9.76-41.49-9.76-12.35 0-23.29 2.14-32.84 6.3-9.51 4.22-16.93 9.97-22.27 17.24-5.39 7.32-8.59 14.9-9.71 22.83-1.07 7.88-1.63 19.73-1.63 35.49v32.18h56.94v-50.33c0-11.08.66-18.3 1.93-21.61 1.22-3.36 4.22-5.03 8.9-5.03 4.17 0 6.86 1.37 8.08 4.12 1.17 2.75 1.78 9.66 1.78 20.74v38.03h56.94v-20.79c.01-20.45-1.66-35.5-5.12-45.16z" fill="url(#i)"/><linearGradient id="j" gradientUnits="userSpaceOnUse" x1="551.655" y1="1166.456" x2="551.655" y2="1279.365"><stop offset="0" stop-color="#fff"/><stop offset="1" stop-color="#3fa9f5"/></linearGradient><path d="M486.12 1166.05v109.56h57.1v-65.74h16.88v65.74h57.09v-109.56H486.12z" fill="url(#j)"/><linearGradient id="k" gradientUnits="userSpaceOnUse" x1="687.403" y1="1166.456" x2="687.403" y2="1279.365"><stop offset="0" stop-color="#fff"/><stop offset="1" stop-color="#3fa9f5"/></linearGradient><path d="M734.89 1210.03v-43.83h-94.97v109.41h92.53v-24.05h-35.59v-41.54h38.03z" fill="url(#k)"/><linearGradient id="l" gradientUnits="userSpaceOnUse" x1="820.557" y1="1166.456" x2="820.557" y2="1279.365"><stop offset="0" stop-color="#fff"/><stop offset="1" stop-color="#3fa9f5"/></linearGradient><path d="M755.02 1166.05v109.56h57.09v-109.56h-57.09zm73.98 0v109.56h57.09v-109.56H829z" fill="url(#l)"/><linearGradient id="m" gradientUnits="userSpaceOnUse" x1="965.353" y1="1166.456" x2="965.353" y2="1279.365"><stop offset="0" stop-color="#fff"/><stop offset="1" stop-color="#3fa9f5"/></linearGradient><path d="M903.12 1166.2v43.83h33.71v65.59h56.94v-65.59h33.81v-43.83H903.12z" fill="url(#m)"/><linearGradient id="n" gradientUnits="userSpaceOnUse" x1="1101.888" y1="1166.456" x2="1101.888" y2="1279.365"><stop offset="0" stop-color="#fff"/><stop offset="1" stop-color="#3fa9f5"/></linearGradient><path d="M1160.99 1197.11c-1.47-6.56-4.32-12.1-8.54-16.73-4.17-4.58-10.42-8.08-18.76-10.52-8.34-2.44-20.29-3.66-35.79-3.66h-57.35v109.41h118.92c2.54-6.46 3.76-16.12 3.76-29.08v-19.07c0-13.72-.76-23.84-2.24-30.35zm-45.35 42.51c0 8.13-1.02 13.47-3.05 16.07-2.03 2.54-5.69 3.81-10.93 3.81-1.17 0-2.54 0-4.17-.1v-55.72c7.37 0 12.25 1.12 14.59 3.36 2.34 2.29 3.56 7.12 3.56 14.64v17.94z" fill="url(#n)"/><linearGradient id="o" gradientUnits="userSpaceOnUse" x1="1237.762" y1="1166.456" x2="1237.762" y2="1279.365"><stop offset="0" stop-color="#fff"/><stop offset="1" stop-color="#3fa9f5"/></linearGradient><path d="M1278.03 1166.2h-82.31l-14.49 109.41h50.18c1.88-16.57 4.47-36.76 7.78-60.6 1.78 22.42 3.56 42.61 5.34 60.6h49.77l-16.27-109.41z" fill="url(#o)"/><linearGradient id="p" gradientUnits="userSpaceOnUse" x1="1385.736" y1="1166.456" x2="1385.736" y2="1279.365"><stop offset="0" stop-color="#fff"/><stop offset="1" stop-color="#3fa9f5"/></linearGradient><path d="M1394.25 1166.2v78.3h-17.03v-78.3h-56.94v109.41h130.92V1166.2h-56.95z" fill="url(#p)"/><linearGradient id="q" gradientUnits="userSpaceOnUse" x1="1539.735" y1="1166.456" x2="1539.735" y2="1279.365"><stop offset="0" stop-color="#fff"/><stop offset="1" stop-color="#3fa9f5"/></linearGradient><path d="M1601.89 1195.59c-3.46-9.71-10.63-17.79-21.51-24.25-10.93-6.51-24.76-9.76-41.54-9.76-12.35 0-23.28 2.14-32.79 6.3-9.56 4.22-16.98 9.97-22.32 17.24-5.39 7.32-8.59 14.9-9.71 22.83-1.07 7.88-1.58 19.73-1.58 35.49v32.18h56.94v-50.33c0-11.08.61-18.3 1.88-21.61 1.27-3.36 4.22-5.03 8.9-5.03 4.17 0 6.86 1.37 8.08 4.12 1.22 2.75 1.83 9.66 1.83 20.74v38.03h56.94v-20.79c.01-20.45-1.71-35.5-5.12-45.16z" fill="url(#q)"/><linearGradient id="r" gradientUnits="userSpaceOnUse" x1="280.506" y1="485.179" x2="280.506" y2="1054.608"><stop offset="0" stop-color="#333"/><stop offset="1"/></linearGradient><path fill-rule="evenodd" clip-rule="evenodd" fill="url(#r)" d="M281.16 897.88l-1.17-7.03-.14-.08z"/><linearGradient id="s" gradientUnits="userSpaceOnUse" x1="448.076" y1="485.179" x2="448.076" y2="1054.608"><stop offset="0" stop-color="#333"/><stop offset="1"/></linearGradient><path d="M593.12 579.19c-14.64.71-24.56 4.68-25.06 13.02 3.91.2 8.8.97 12.61 2.39 8.69 3.2 5.34 11.8 3.86 22.93-1.68 12.41-4.12 31.01-7.42 55.67-3.2 23.64-24.2 17.59-27.96 3.25 0 0-.05-26.03-.2-78.14 2.08-20.39 16.47-31.42 43.11-33.35l18.25-.2c-2.24-10.83-9.81-17.54-29.23-13.98-104.28 12-151.51 17.18-218.31 28.93-10.12 1.37-18.56 3.46-25.37 6.51-4.12 1.83-7.68 4.02-10.58 6.56-2.39 2.08-4.42 4.42-6 7.07l-2.08.05a558.07 558.07 0 00-7.98 14.54h4.63l-28.98 85.31c-1.17 3.25-1.37 6.25-.76 9 9.96 44.69 241.5 15.3 287.76-4.63 27.15-8.59 28.06-14.49 31.62-56.99 2.08-25.42 3.81-45.91 5.13-61.62.25-2.19.51-4.27.71-6.36l-17.75.04zM304.13 704.31v-.05l88.67-111.04c6.97-1.12 13.93-2.19 20.9-3.25l-95.23 119.27c-6.05-1.27-11.49-2.9-14.34-4.93zm74.08 9.61c-11.13.05-22.22-.15-33-.97-2.39-.15-6.71-.56-11.8-1.22l99.4-124.51c17.29-2.44 34.62-4.68 51.91-6.81L378.21 713.92z" fill-rule="evenodd" clip-rule="evenodd" fill="url(#s)"/><linearGradient id="t" gradientUnits="userSpaceOnUse" x1="652.525" y1="485.179" x2="652.525" y2="1054.608"><stop offset="0" stop-color="#333"/><stop offset="1"/></linearGradient><path d="M797.96 799.02l-136.51-9.05c-19.12-2.14-25.73-3.66-24.1-37.17 2.9-57.76 5.08-115.36 4.88-172-12.66 62.94-20.54 170.12-25.27 234.68-4.27 13.12-10.47 15.1-28.12 18.56l-73.01 15.61c-10.07 2.14-13.98 5.49-13.98 20.59v37.47l21.91.92c36.55 1.58 69.7-4.12 105.6-8.74.05-17.54.71-35.49 3.71-45.2 9.1-29.03 32.69-51.3 67.62-50.89l102.5-.31-5.23-4.47zm-188.88 85.77c-48.1 1.98-72.14 3-72.14 3 36-8.49 60.04-14.59 72.14-18.3v15.3z" fill-rule="evenodd" clip-rule="evenodd" fill="url(#t)"/><linearGradient id="u" gradientUnits="userSpaceOnUse" x1="309.884" y1="485.179" x2="309.884" y2="1054.608"><stop offset="0" stop-color="#333"/><stop offset="1"/></linearGradient><path d="M295.75 899.37l50.3 2.04-1.9-32.89c-.1-9.61-2.3-14.91-12.83-17.34l-28.39-6.09c-6.39-1.19-7.31-2.72-8.32-11.2-3.53-31.37-8.33-76.26-8.64-93.29-.27.37-.55.76-.85 1.17-3 4.16-6.93 10.09-6.64 16.42l3.92 84.55c-6.77 4.17-9.49 5.62-8.48 11.7l2.75 16.49c4.43 1.13 9.27 2.32 14.49 3.61 8.84 2.16 18.81 4.55 29.94 7.18l-29.68-1.25-13.26-.56 1.82 10.92 4.53 2.45 11.24 6.09z" fill-rule="evenodd" clip-rule="evenodd" fill="url(#u)"/><linearGradient id="v" gradientUnits="userSpaceOnUse" x1="586.275" y1="485.179" x2="586.275" y2="1054.608"><stop offset="0" stop-color="#333"/><stop offset="1"/></linearGradient><path d="M389.03 530.09l13.94-1.84c-5.26 6.78-9.62 15.99-13.12 27.62-13.27 3.59-23.11 7.41-27.75 11.35l243.94-34.89c-16.59-.88-42.88.06-72.26 2.35 1.21-7.69 2.74-15.81 4.6-24.38l98.83-13.1c-2 9.66-4.96 33.51-1.58 60.2 5.97-26 10.97-49.15 14.99-57.02 34.26 13.16 62.05 24.02 83.46 32.47 10.48 4.14 19.43 7.71 26.86 10.68 9.64 4.61 19.95 9.47 30.96 14.62 14.38 6.72 24.3 14.24 25.62 48.2V801.4l13.18-218.18c.84-13.96-6.81-27.05-19.38-33.16l-84.72-41.23-51.9-20.26c-17.11-9.93-29.45-7.02-58.33-3.39-71.32 8.97-135.61 17.72-211.97 29.06-37.66 5.6-55.06 26.16-61.49 60.88-.43 2.36-.82 4.78-1.16 7.27 8.96-26.2 24.71-43.63 47.28-52.3z" fill-rule="evenodd" clip-rule="evenodd" fill="url(#v)"/><linearGradient id="w" gradientUnits="userSpaceOnUse" x1="436.369" y1="485.179" x2="436.369" y2="1054.608"><stop offset="0" stop-color="#333"/><stop offset="1"/></linearGradient><path d="M558.39 740.76c-82.26 8.8-169.66 11.69-237.63 10.78-12.86-.15-17.74 2.24-17.13 9.71l2.95 41.13c.25 14.59 6.25 20.84 22.01 20.64 97.62-.81 163.96-1.37 198.89-1.63 16.93-.36 31.42-6.36 32.95-22.68l8.03-47.99c.97-4.32 2.9-11.69-10.07-9.96zm-18.15 59.28c-67.41 3.76-143.93 4.83-230.01 5.39 4.58-4.47 4.12-5.34 12.3-5.39 124.46-.97 205.14-4.58 234.94-8.29-6.6 7.58-6.45 7.63-17.23 8.29zm2.44-15.2c-68.03 4.07-145.15 5.49-232.04 6.41 4.52-4.52 4.12-5.34 12.35-5.44 125.58-1.58 206.98-5.59 237.02-9.41-6.6 7.63-6.5 7.68-17.33 8.44zm.05-14.13c-68.18 4.22-145.56 5.9-232.7 6.97 4.52-4.52 4.07-5.34 12.35-5.44 125.99-1.88 207.64-6.05 237.73-10.02-6.6 7.67-6.5 7.67-17.38 8.49z" fill-rule="evenodd" clip-rule="evenodd" fill="url(#w)"/><linearGradient id="x" gradientUnits="userSpaceOnUse" x1="723.093" y1="485.179" x2="723.093" y2="1054.608"><stop offset="0" stop-color="#333"/><stop offset="1"/></linearGradient><path d="M771.88 592.35l-21.91-8.34-66.35-25.37c-21.56-9.35-23.44-.66-23.44 14.95v85.06c.41 13.37 2.59 20.13 19.47 20.74l88.57 8.54 5.95 93.45h6.76l2.69-89.07 2.39-77.13c-.26-15.2-3.51-17.49-14.13-22.83zm-90.45 72.5l35.74-77.74 13.63 5.19-33.96 74.08-15.41-1.53zm29.08 2.85l-7.68-.76 33.3-72.55 6.81 2.59-32.43 70.72z" fill-rule="evenodd" clip-rule="evenodd" fill="url(#x)"/><linearGradient id="y" gradientUnits="userSpaceOnUse" x1="1657.977" y1="485.179" x2="1657.977" y2="1054.608"><stop offset="0" stop-color="#333"/><stop offset="1"/></linearGradient><path d="M1664.79 962.56c-2.78-5.05-6.37-8.08-10.26-8.03-2.95.04-5.69 1.85-8.01 4.97 1.58.62 3.07 1.66 4.44 3.06 2.33 2.38 4.29 5.79 5.69 9.87 1.4 4.09 2.24 8.87 2.3 13.97.17 14.29-5.72 26.12-13.47 27.75 2.74 4.66 6.18 7.42 9.89 7.39 8.58-.11 15.35-15.19 15.12-33.7-.07-5.57-.77-10.81-1.94-15.41-.96-3.77-2.24-7.12-3.76-9.87z" fill-rule="evenodd" clip-rule="evenodd" fill="url(#y)"/><linearGradient id="z" gradientUnits="userSpaceOnUse" x1="1575.961" y1="485.179" x2="1575.961" y2="1054.608"><stop offset="0" stop-color="#333"/><stop offset="1"/></linearGradient><path d="M1582.76 962.56c-2.77-5.05-6.36-8.08-10.24-8.03-2.95.04-5.69 1.85-8.01 4.97 1.58.62 3.07 1.66 4.43 3.06 2.33 2.38 4.28 5.79 5.68 9.87 1.41 4.09 2.24 8.87 2.3 13.97.18 14.29-5.71 26.12-13.46 27.75 2.74 4.66 6.17 7.42 9.88 7.39 8.59-.11 15.35-15.19 15.12-33.7-.07-5.57-.76-10.81-1.95-15.41-.95-3.77-2.23-7.12-3.75-9.87z" fill-rule="evenodd" clip-rule="evenodd" fill="url(#z)"/><linearGradient id="A" gradientUnits="userSpaceOnUse" x1="983.882" y1="485.179" x2="983.882" y2="1054.608"><stop offset="0" stop-color="#333"/><stop offset="1"/></linearGradient><path d="M1692.92 905.13h-16.37V800.6c-22.42-96.8-63.96-186.23-120.39-264.17h-47.33v151.61c-13.93 40.47-25.37 81.75-36.35 123.19-7.88 30.71-15.76 62.43-22.37 93.9h-180.95l-4.07-10.07-12.41-25.93-42.81-31.11H826.33v-.31H719.51c-68.23-1.22-77.69 47.28-80.43 98.84h-9.56c.05-3.91 0-8.8-.05-14.18l-79.72 5.95-245.92-12-20.34-5.64-.76-4.27c0 .36 0 .81.05 1.17.05 1.53.25 3.1.46 4.73-7.27 7.22-11.74 10.27-10.88 22.22 1.53 19.12 2.8 32.08 2.8 32.08l25.52 14.59c.86 35.13 17.54 65.79 42.4 83.53h99.55c19.32-13.78 33.76-35.44 39.61-60.91l67.31 1.88c8.19 24 20.95 45.4 41.33 59.03h156.69c7.22-6.46 13.58-14.69 19.01-24.25l253.45.66c4.12 9.3 9.2 17.29 15.05 23.59h202.45c7.78-8.49 13.98-20.08 18.1-33.66h24.76c9.25 0 8.03.41 8.03-11.24v-56.94h38.39c-.51 3.1-.66 4.88-.66 4.88-.31 4.27-.51 8.54-.36 13.02.05 5.85.41 11.59 1.17 17.08l5.8 24.1c7.83 21.86 21.45 37.93 37.47 42.66.1.05.2.1.31.1h72.6c1.63-.36 3.2-.76 4.78-1.32 1.32.51 2.64.97 3.97 1.32h72.55c1.78-.36 3.51-.86 5.24-1.47 1.88.66 3.76 1.17 5.75 1.47h153.74c2.54-19.37 4.37-39 5.34-58.82.71-12.76 1.02-25.62 1.02-38.59-.02-20.96-.88-41.7-2.61-62.19zM334.28 993.29c10.93 1.02 8.64 2.44 16.78 2.8 3.31 21.86 17.69 38.69 45.96 49.57-39.5 4.67-59.43-21.66-62.74-52.37zm370.08 21.15c-17.39 0-31.47-29.34-31.47-65.43 0-36.25 14.08-65.53 31.47-65.53 17.34 0 31.37 29.28 31.37 65.53 0 36.09-14.03 65.43-31.37 65.43zm29.79 11.08c35.33-49.77 28.32-131.17-15.61-160.1 65.03 18.71 56.13 143.07 15.61 160.1zm80.59-30.86h-10.02c1.47-61.72-2.59-104.99-23.84-126.6h33.86v126.6zM828 922.77v-7.02c0-1.68 1.42-3.15 3.1-3.15h9.71l6.1 9.3v3.91H831.1c-1.67.01-3.1-1.36-3.1-3.04zm171.8 68.79c0 1.42-1.17 2.59-2.54 2.59H832.73c-1.37 0-2.59-1.17-2.59-2.59v-8.08c0-1.42 1.22-2.54 2.59-2.54h14.18v.61c0 3.86 3.1 7.07 7.07 7.07.97 0 1.93-.2 2.74-.66-.61-1.07-1.02-2.29-1.02-3.66v-59.54l-7.93-12.15-11.85-18.1c-2.13-3.2-1.22-7.63 2.08-9.71.31-.25.66-.41.97-.61 3.15-1.32 6.81-.31 8.69 2.64l16.98 25.78h94.51l6.1 9.3v3.91h-95.53v55.11h95.53v.61c0 3.86 3.1 7.07 7.07 7.07 1.12 0 2.29-.31 3.25-.86-.61-.97-.91-2.14-.91-3.46v-59.54l-7.98-12.15-11.8-18.1c-2.19-3.2-1.27-7.63 1.98-9.71.25-.1.41-.25.61-.36 3.2-1.68 7.17-.66 9.15 2.39l16.88 25.78h10.93c1.78 0 3.1 1.47 3.1 3.15v7.02c0 1.68-1.32 3.05-3.1 3.05h-5.69v55.11h8.49a2.55 2.55 0 012.54 2.54v8.09zm124.25 40.52c-12.46 0-22.52-21.05-22.52-47.03s10.07-46.98 22.52-46.98c12.51 0 22.57 21 22.57 46.98s-10.06 47.03-22.57 47.03zm19.12 10.07c25.27-36.25 20.34-95.48-11.24-116.58 46.63 13.67 40.22 104.22 11.24 116.58zm61.98-7.27c-11.79 0-21.35-19.83-21.35-44.38 0-24.45 9.56-44.28 21.35-44.28 11.69 0 21.2 19.83 21.2 44.28 0 24.55-9.51 44.38-21.2 44.38zm17.89 9.45c23.9-34.17 19.22-90.04-10.52-109.92 7.22 2.14 13.07 6.25 17.69 11.59 1.83 2.14 3.51 4.42 4.98 6.91 17.39 29.6 9 82.37-12.15 91.42zm30.46-93.14l-22.93-39.15-1.78-3.1c-4.22-6.15-5.9-7.07-11.59-7.17l-107.94-5.8-1.58-6.76-25.83 43.06c-5.85 9.61-6.15 8.49-14.24 8.49h-40.16c-7.83 0-8.8-1.42-4.63-10.07l27.15-43.27c5.64-9.05 9.96-12.46 19.12-11.59l157.05 9c4.98.41 5.8-1.02 9.3 6.2l1.93 4.02 27.1 56.13h-10.97zm255.32-17.13l-19.78-28.93h-34.47c9.46-30.4 18.05-61.47 26.08-91.77 10.52-40.93 20.54-81.96 28.17-123.54v244.24zm64.32 97.77c-4.88.05-9.41-3.25-12.91-8.9-5.24-7.98-8.59-20.59-8.8-34.78-.05-3.3.05-6.51.36-9.56v-.05c.25-1.93.51-3.91.81-5.8.41-2.54.97-5.03 1.58-7.37.31-.81.51-1.68.76-2.49.97-3 2.14-5.8 3.46-8.08.35-.71.66-1.37 1.12-2.03 3.46-5.54 7.73-8.8 12.51-8.85 7.27-.15 13.73 7.42 17.69 18.96.97 3.05 1.88 6.36 2.54 9.86a92.77 92.77 0 011.47 14.9c.25 24.26-8.95 44.09-20.59 44.19zm27.96.15c-1.42 2.19-2.95 4.02-4.68 5.49-1.73 1.58-3.41 2.75-5.29 3.61 1.88-2.85 3.56-5.9 5.19-9 10.47-21.25 11.9-47.84 4.93-69.2-4.02-12.25-10.93-22.83-20.44-29.64-.46-.46-1.07-.76-1.58-1.02 1.22.2 2.39.56 3.51 1.07 12.56 4.98 20.54 16.17 24.91 29.59 2.8 8.54 4.07 18.1 4.07 27.35.01 16.23-3.86 31.94-10.62 41.75zm53.99-.15c-7.78.1-14.64-8.59-18.51-21.56.15-3.15.2-6.15.2-9.35V963.4c1.02-3.2 2.24-6.15 3.66-8.59 3.51-6.71 8.34-10.83 13.57-10.88 7.27-.15 13.83 7.42 17.69 18.96 1.02 3.05 1.88 6.36 2.54 9.86.87 4.73 1.37 9.66 1.42 14.9.33 24.25-8.87 44.08-20.57 44.18z" fill-rule="evenodd" clip-rule="evenodd" fill="url(#A)"/><linearGradient id="B" gradientUnits="userSpaceOnUse" x1="1208.001" y1="485.179" x2="1208.001" y2="1054.608"><stop offset="0" stop-color="#333"/><stop offset="1"/></linearGradient><path d="M1205.11 957.29c-2.98 0-5.77 1.8-8.14 4.91 6.97 2.82 12.19 13.96 12.19 27.28 0 14.4-6.09 26.25-13.91 27.79 2.69 4.72 6.12 7.55 9.87 7.55 8.65 0 15.66-15.11 15.66-33.77-.02-18.64-7.03-33.76-15.67-33.76z" fill-rule="evenodd" clip-rule="evenodd" fill="url(#B)"/><linearGradient id="C" gradientUnits="userSpaceOnUse" x1="1127.148" y1="485.179" x2="1127.148" y2="1054.608"><stop offset="0" stop-color="#333"/><stop offset="1"/></linearGradient><path d="M1124.08 949.81c-3.16 0-6.12 1.9-8.64 5.21 7.41 2.99 12.93 14.81 12.93 28.93 0 15.27-6.46 27.84-14.76 29.48 2.86 5.02 6.5 8.03 10.47 8.03 9.16 0 16.61-16.04 16.61-35.83s-7.45-35.82-16.61-35.82z" fill-rule="evenodd" clip-rule="evenodd" fill="url(#C)"/><linearGradient id="D" gradientUnits="userSpaceOnUse" x1="708.593" y1="485.179" x2="708.593" y2="1054.608"><stop offset="0" stop-color="#333"/><stop offset="1"/></linearGradient><path d="M704.32 899.84c-4.39 0-8.51 2.65-12.01 7.26 10.3 4.17 17.99 20.62 17.99 40.29 0 21.26-8.99 38.77-20.55 41.05 3.98 6.98 9.05 11.17 14.57 11.17 12.78 0 23.13-22.34 23.13-49.88-.01-27.55-10.36-49.89-23.13-49.89z" fill-rule="evenodd" clip-rule="evenodd" fill="url(#D)"/></svg>