<svg width="100" height="100" fill="none" xmlns="http://www.w3.org/2000/svg"><g clip-path="url(#clip0_71_660)" fill-rule="evenodd" clip-rule="evenodd" fill="#fff"><path d="M12.888 39.742a37.944 37.944 0 00-1.511 10.642c0 1.72.115 3.413.336 5.074h3.946a6.937 6.937 0 01-1.554-3.549l-.729-.413a1.322 1.322 0 01-.667-1.019s-.067-.686-.147-1.695c-.061-.831.203-1.35.497-1.716-.005-.019-.013-.037-.019-.058l-.067-.368c-.008-.043-.01-.083-.016-.125l-.077-.466a1.43 1.43 0 01-.019-.236 1.293 1.293 0 01-.058-.23l-.144-.86c-.115-.67.112-1.128.395-1.44l-.166-3.54zm43.266 48.462c-1.237-.037-2.815-.198-4.825-.564-5.37-.977-8.865-.469-10.54-.05A38.946 38.946 0 0050 88.685c2.094 0 4.152-.164 6.154-.482z"/><path d="M35.845 86.03a38.732 38.732 0 004.619 1.48c1.268-.556 4.08-1.377 9.058-.94 6.028.516 9.606.725 10.62.781a38.65 38.65 0 0015.426-8.264h-7.131c1.233.193 2.544.338 4.007.296-3.31 1.883-9.053-.636-14.216.087.31-.145.611-.273.91-.383h-3.054c.187.036.288.068.288.068s-.408.077-3.187.514c-2.2.357-4.218-.294-4.966-.583H24.432a38.387 38.387 0 008.856 5.83c.712.006 1.46.027 2.229.07 4.269.243 5.208.36 5.208.36s-1.366.957-4.88.684zm23.886-4.446c5.134 1.475 10.057 1.295 10.057 1.295s-4.966 1.885-9.966.18c-4.795-1.626-9.13.146-9.499.302.36-.268 4.488-3.189 9.408-1.777zm-5.788 2.756c2.066.302 3.28.21 3.28.21s-2.111.947-4.145.36c-2.037-.57-3.482-.797-3.482-.797s2.268-.088 4.347.227zm-20.66-3.63s2.765.087 6.84-.244c4.047-.315 5.144-.36 7.747 1.218-.166-.074-2.104-.897-6.368-.209-4.482.726-8.22-.765-8.22-.765zm4.313 2.3s3.252.123 4.71 0c1.46-.116 2.6.364 2.6.364s-1.337.244-3.74.196c-2.4-.03-3.57-.56-3.57-.56zM72.31 40.14l-.7.442 2.222 3.066 1.054.813c.246-1.03.5-2.025.732-2.918.531-1.996 1.121-4.117 1.829-6.194l-.307-.818-4.928-5.492 2.055 5.018-.774 1.09s2.093 2.032 1.96 2.305c-.139.28.278 2.271.278 2.271l-1.06.578-2.36-.16z"/><path d="M20.657 25.083a491.076 491.076 0 0111.133-1.512l.411-.053c1.29-.166 2.232-.288 3.393.345l2.638 1.019c.032.013.064.029.099.045l4.447 2.147c.182.087.353.19.508.307h10.428l-9.392 1.332c.17.42.25.884.221 1.358l-.398 6.538 10.567-7.92 2.432 3.292s2.891.007 3.316.36c.133.108.542.479 1.014.91l-.662.705c-.598-.419-1.212-.832-1.34-.872-.192-.04-2.122-.28-3.209-.407L54.6 30.383l.55 4.324-1.8-.426 1.311 2.15-.336 1.062-2.28 1.003.99 2.789-2.933-2.442-1.418.79 1.815 2.303h2.803C57.275 38.02 65.1 30.319 65.551 29.938c.611-.506 2.117.604 2.117.604l3.51-3.87 6.307 6.475v-5.593c0-.73.598-1.324 1.335-1.324h1.476a38.716 38.716 0 00-2.97-3.305L58.779 20.21h15.51C67.655 14.88 59.203 11.688 50 11.688a38.717 38.717 0 00-15.81 3.346l.914-.254h10.465l-15.055 2.135a38.621 38.621 0 00-9.856 8.168z"/><path d="M84.215 27.556a40.397 40.397 0 015.68 12.97 40.16 40.16 0 011.106 8.46h.003c.005.337.01.673.01 1.012 0 .122-.005.246-.005.368H100l-6.484-5.224c-.022-.18-.043-.36-.067-.538v-.002a42.844 42.844 0 00-3.553-12.499 42.943 42.943 0 00-2.417-4.547 43.879 43.879 0 00-32.493-20.72v2.783a41.049 41.049 0 0129.229 17.937zM50 9.32l.264.002V0l-5.3 6.829C24.744 9.092 8.692 24.992 6.372 45.034h2.92C11.761 24.909 29.044 9.32 50.001 9.32zm40.451 47.42H9.547a40.62 40.62 0 01-.56-6.74l.002-.266H0l6.358 5.238c2.28 20.07 18.32 36.002 38.541 38.295v-2.898a41.035 41.035 0 01-25.768-13.584h61.737A41.056 41.056 0 0150 90.68c-.126 0-.251-.003-.377-.004V100l5.267-6.725c20.244-2.257 36.315-18.183 38.617-38.254h-2.805a39.27 39.27 0 01-.25 1.718zm-66.407 8.966h-2.99v-1.982c0-.576-.031-.936-.096-1.08-.064-.142-.204-.214-.422-.214-.247 0-.403.087-.47.26-.065.175-.098.55-.098 1.128v5.298c0 .554.033.915.099 1.085.066.169.215.253.447.253.223 0 .368-.085.437-.254.069-.17.103-.567.103-1.193v-1.434h2.99v.445c0 1.18-.084 2.017-.252 2.511-.168.494-.54.927-1.115 1.299-.576.371-1.285.557-2.128.557-.875 0-1.598-.157-2.166-.472-.568-.315-.944-.75-1.13-1.307-.184-.556-.276-1.393-.276-2.511v-3.332c0-.822.028-1.439.085-1.85a2.58 2.58 0 01.508-1.187c.281-.38.672-.68 1.171-.898.5-.219 1.074-.328 1.723-.328.88 0 1.607.169 2.18.507.573.337.95.759 1.13 1.263.18.504.27 1.288.27 2.353v1.083zM32 72.145h-2.997v-9.13h-.888v9.13h-2.997V60.732H32v11.413zm6.378 0h-5.185V60.74h4.986v2.282h-1.996v2.163h1.868v2.17h-1.868v2.507h2.195v2.283zm8.353 1.965h-2.067v-1.965h-5.426V60.733h2.997v9.13h.888v-9.13h2.997v9.13h.61v4.247zm6.818-11.088h-1.776v9.123h-2.99v-9.123h-1.768V60.74h6.534v2.282zm7.123 1.902c0 .729-.075 1.26-.227 1.593-.152.333-.43.59-.835.767-.405.179-.934.268-1.587.268h-.803v4.593h-2.99V60.74h3.011c.815 0 1.441.064 1.879.19.438.127.767.31.987.55.22.24.37.53.448.87.078.34.117.867.117 1.58v.994zm4.683 7.22l-.16-2.05h-1.07l-.18 2.05h-3.091l1.525-11.404H66.7l1.71 11.405h-3.056zm10.439 0h-2.99v-4.79h-.895v4.79h-2.99V60.74h2.99v4.078h.895V60.74h2.99v11.405zm8.181-6.438h-2.99v-1.982c0-.576-.032-.936-.096-1.08-.064-.142-.204-.214-.422-.214-.247 0-.403.087-.47.26-.065.175-.099.55-.099 1.128v5.298c0 .554.034.915.1 1.085.066.169.215.253.447.253.223 0 .368-.085.437-.254.069-.17.103-.567.103-1.193v-1.434h2.99v.445c0 1.18-.084 2.017-.252 2.511-.168.494-.54.927-1.115 1.299-.576.371-1.284.557-2.127.557-.876 0-1.598-.157-2.166-.472-.568-.315-.945-.75-1.13-1.307-.184-.556-.276-1.393-.276-2.511v-3.332c0-.822.028-1.439.085-1.85.056-.41.226-.807.507-1.187.282-.38.672-.68 1.172-.898.5-.219 1.074-.328 1.722-.328.88 0 1.608.169 2.181.507.573.337.95.759 1.129 1.263.18.504.27 1.288.27 2.353v1.083z"/><path d="M64.085 68.071h1.03a134.873 134.873 0 01-.456-4.79c-.304 2.184-.495 3.781-.574 4.79zm-6.865-5.383v2.902c.085.005.158.007.22.007.274 0 .465-.067.572-.2.106-.135.16-.413.16-.836v-.937c0-.39-.063-.643-.186-.76-.122-.118-.378-.176-.766-.176zM14.354 46.76l-.061-.365-.007-.004.068.37zm.235-9.85c.523 2.328 12.681.797 15.11-.241 1.426-.448 1.474-.755 1.66-2.968.11-1.324.2-2.392.27-3.21.013-.114.027-.222.037-.331l-.931.003c-.769.037-1.29.243-1.316.678.205.01.462.05.662.124.456.167.28.615.203 1.194l-.39 2.9c-.168 1.231-1.27.916-1.468.17l-.01-4.07c.109-1.063.864-1.637 2.263-1.738l.958-.01c-.117-.564-.515-.914-1.534-.728-5.476.625-7.956.895-11.464 1.507-.531.071-.974.18-1.332.339a2.208 2.208 0 00-.556.341c-.125.109-.232.23-.315.369l-.109.002c-.144.252-.283.503-.419.758h.243l-1.522 4.443a.82.82 0 00-.04.468zm10.454-6.683L19.45 37.18a21.872 21.872 0 01-1.732-.05 10.53 10.53 0 01-.62-.064l5.22-6.485c.907-.127 1.818-.244 2.725-.354zm-9.483 6.45l4.656-5.783c.366-.059.732-.114 1.098-.17l-5 6.213c-.318-.067-.604-.152-.754-.257v-.003z"/><path d="M32.639 46.87c.003-.914.037-1.85.195-2.355.478-1.512 1.716-2.672 3.55-2.65l5.383-.017-.275-.232-7.168-.472c-1.005-.111-1.352-.19-1.266-1.936.152-3.008.267-6.008.256-8.958-.664 3.278-1.078 8.86-1.327 12.223-.224.683-.55.786-1.476.967l-3.834.813c-.529.111-.734.285-.734 1.072v1.952l1.15.047c1.92.083 3.66-.214 5.546-.455zm-1.066-1.584v.797l-3.788.156c1.89-.442 3.153-.76 3.788-.953zM13.975 44.5l.144.859c.233.059.487.12.761.188.464.112.988.237 1.572.374l-1.558-.065-.697-.03.096.57.238.127.59.317 2.64.106-.099-1.713c-.005-.5-.12-.777-.674-.903l-1.49-.317c-.336-.063-.384-.142-.437-.584-.186-1.634-.438-3.972-.454-4.859l-.045.061c-.157.217-.364.526-.348.855l.205 4.404c-.354.218-.498.293-.444.61z"/><path d="M17.598 29.955a8.744 8.744 0 00-.061.379c.47-1.365 1.296-2.273 2.481-2.724l.732-.096c-.276.353-.505.832-.688 1.438-.697.187-1.214.386-1.457.591l12.809-1.817c-.871-.046-2.252.003-3.794.123.063-.401.143-.824.241-1.27l5.19-.683c-.105.504-.26 1.746-.083 3.136.313-1.354.576-2.56.787-2.97a515.642 515.642 0 015.793 2.247c.506.24 1.047.494 1.626.762.755.35 1.276.742 1.345 2.51v10.16l.692-11.364a1.798 1.798 0 00-1.018-1.727l-4.448-2.148-2.726-1.055c-.898-.517-1.546-.366-3.063-.177-3.745.468-7.12.923-11.13 1.514-1.978.292-2.89 1.363-3.229 3.171zm11.42 11.647l.422-2.5c.051-.224.152-.608-.529-.518-4.32.458-8.909.609-12.478.561-.675-.008-.931.117-.9.506l.156 2.142c.013.76.328 1.086 1.156 1.075l10.443-.085c.89-.019 1.65-.331 1.73-1.181zm-12.499-1.38c6.616-.098 10.903-.315 12.483-.522-.347.4-.342.4-.913.443-3.58.22-7.643.307-12.219.363.238-.236.214-.279.649-.284zm12.478.218c-.347.397-.342.4-.91.44-3.573.211-7.622.285-12.185.333.237-.236.216-.278.649-.283 6.594-.083 10.868-.292 12.446-.49zm-13.116 1.512c.24-.233.216-.279.646-.281 6.535-.05 10.772-.239 12.337-.432-.348.395-.34.397-.906.432-3.54.196-7.557.251-12.077.28z"/><path d="M35.28 35.388l4.65.445.313 4.867h.354l.142-4.639.125-4.017c-.013-.792-.184-.91-.742-1.189l-1.15-.434-3.484-1.322c-1.132-.487-1.231-.034-1.231.779v4.43c.02.697.136 1.049 1.022 1.08zm3.323-4.292L36.9 34.78l-.404-.04 1.749-3.778.358.135zm-1.354-.513l.716.27-1.783 3.858-.81-.08 1.877-4.048zm48.746 22.241c.143.243.324.386.519.385.45-.006.806-.791.794-1.755a3.432 3.432 0 00-.102-.803 2.19 2.19 0 00-.197-.514c-.146-.263-.334-.42-.539-.418-.154.002-.298.096-.42.259a.67.67 0 01.232.159c.123.124.226.302.3.514.073.213.117.462.12.728.009.744-.3 1.36-.707 1.445zm-4.307 0c.144.243.324.386.519.385.45-.006.806-.791.794-1.755a3.374 3.374 0 00-.103-.803 2.19 2.19 0 00-.197-.514c-.145-.263-.333-.42-.537-.418-.155.002-.3.096-.42.259a.676.676 0 01.232.159c.123.124.225.302.299.514.074.213.117.462.12.728.009.744-.3 1.36-.707 1.445z"/><path d="M69.208 51.08c.003.305.022.604.062.89l.304 1.255c.411 1.14 1.127 1.976 1.968 2.222.005.003.01.006.016.006h3.812c.086-.02.168-.04.251-.07.07.027.139.051.209.07h3.81a2.25 2.25 0 00.275-.077c.098.034.197.061.301.077h8.073a37.44 37.44 0 00.28-3.064 38.199 38.199 0 00-.082-5.248h-.86v-5.445a37.974 37.974 0 00-6.321-13.758h-2.485v7.896c-.732 2.108-1.332 4.258-1.91 6.416-.413 1.6-.827 3.252-1.174 4.89h-9.501l-.214-.524-.652-1.35-2.248-1.62h-20.14v-.017h-5.61c-3.583-.063-4.08 2.463-4.223 5.148h-.502a38.6 38.6 0 00-.003-.739l-4.186.31-12.913-.625-1.068-.293-.04-.223a2.57 2.57 0 00.027.307c-.382.377-.617.535-.572 1.158.08.996.147 1.67.147 1.67l1.34.76c.046 1.83.921 3.427 2.227 4.351h5.227c1.015-.718 1.773-1.846 2.08-3.172l3.535.098c.43 1.25 1.1 2.364 2.17 3.074h8.228c.379-.336.713-.765.998-1.263l13.309.035c.216.484.483.9.79 1.228h10.63c.41-.442.735-1.046.951-1.753h1.3c.486 0 .422.021.422-.585v-2.966h2.016a3.587 3.587 0 00-.035.254 6.312 6.312 0 00-.019.678zm16.33 1.05v-1.955c.054-.166.118-.32.193-.447.184-.35.438-.564.713-.567.381-.007.726.387.928.988.054.159.1.331.134.514.045.246.072.503.074.776.017 1.263-.467 2.295-1.08 2.3-.41.006-.77-.447-.973-1.122a8.83 8.83 0 00.012-.487zm-2.837-3.522c.66.26 1.079.842 1.308 1.541.147.445.214.943.214 1.424 0 .845-.203 1.663-.558 2.174a1.29 1.29 0 01-.246.286c-.09.083-.178.144-.277.188.099-.148.187-.307.272-.468.55-1.107.625-2.492.26-3.605-.212-.638-.575-1.189-1.074-1.543a.299.299 0 00-.083-.053c.064.01.125.03.184.056zm-1.626 2.36v-.003c.013-.1.027-.204.043-.303.021-.132.05-.261.082-.383.017-.043.027-.088.04-.13a2.21 2.21 0 01.182-.42.744.744 0 01.059-.107c.181-.288.406-.458.657-.46.381-.008.72.386.929.987.05.159.098.331.133.514.045.246.072.503.077.776.013 1.263-.47 2.295-1.081 2.3-.256.003-.494-.169-.678-.463-.275-.416-.45-1.072-.462-1.811a4.519 4.519 0 01.019-.498zM77.34 42.36c.553-2.132 1.079-4.269 1.48-6.434v12.72l-1.039-1.506h-1.81c.496-1.584.947-3.202 1.37-4.78zm-60.196 9.371c.574.053.453.127.88.146.175 1.139.93 2.015 2.414 2.582-2.074.243-3.12-1.128-3.294-2.728zm19.433 1.102c-.913 0-1.653-1.528-1.653-3.408 0-1.888.74-3.413 1.653-3.413.91 0 1.647 1.525 1.647 3.413 0 1.88-.737 3.408-1.647 3.408zm1.564.577c1.855-2.592 1.487-6.832-.82-8.339 3.415.975 2.948 7.452.82 8.339zm4.232-1.607h-.526c.077-3.215-.136-5.469-1.252-6.594h1.778v6.594zm.696-3.745v-.365c0-.088.075-.164.163-.164h.51l.32.484v.204h-.83a.162.162 0 01-.163-.159zm9.021 3.583a.136.136 0 01-.133.135h-8.64a.138.138 0 01-.136-.135v-.42c0-.075.065-.133.136-.133h.745v.032a.37.37 0 00.372.368c.05 0 .101-.01.144-.034a.378.378 0 01-.054-.19v-3.102l-.416-.633-.622-.943a.361.361 0 01.109-.505c.016-.013.034-.022.05-.032a.37.37 0 01.457.138l.892 1.342h4.962l.32.485v.203H45.26v2.87h5.017v.032a.369.369 0 00.541.324.331.331 0 01-.047-.18v-3.102l-.42-.632-.619-.943a.36.36 0 01.104-.506c.013-.005.022-.013.032-.019a.37.37 0 01.48.125l.887 1.343h.574c.093 0 .163.076.163.164v.365a.16.16 0 01-.163.16h-.299v2.87h.446c.072 0 .133.058.133.132v.421h.001zm6.525 2.11c-.655 0-1.183-1.096-1.183-2.449 0-1.353.529-2.447 1.183-2.447.657 0 1.185 1.094 1.185 2.447s-.528 2.45-1.185 2.45zm1.004.525c1.327-1.888 1.068-4.973-.59-6.072 2.448.712 2.111 5.428.59 6.072zm3.254-.379c-.619 0-1.12-1.032-1.12-2.311 0-1.274.501-2.306 1.12-2.306.614 0 1.114 1.032 1.114 2.306 0 1.279-.5 2.311-1.114 2.311zm.94.493c1.255-1.78 1.009-4.69-.553-5.725.38.111.687.325.93.603.095.112.184.23.26.36.914 1.542.473 4.29-.637 4.762zm1.6-4.851l-1.205-2.04-.093-.16c-.222-.321-.31-.37-.609-.374l-5.668-.303-.083-.351-1.356 2.242c-.307.5-.323.442-.748.442h-2.109c-.41 0-.462-.074-.243-.524l1.426-2.254c.296-.471.523-.649 1.004-.603l8.246.468c.262.022.305-.053.489.323l.101.21 1.423 2.923h-.576z"/><path d="M62.871 49.86c-.156 0-.303.093-.427.255.366.147.64.727.64 1.42 0 .75-.32 1.368-.73 1.448.14.246.32.394.518.394.454 0 .822-.787.822-1.76 0-.97-.369-1.758-.823-1.758zm-4.255-.391c-.166 0-.321.099-.453.271.389.156.679.771.679 1.507 0 .795-.34 1.45-.776 1.535.15.262.342.419.55.419.481 0 .872-.836.872-1.867 0-1.03-.39-1.865-.872-1.865zm-22.041-2.602c-.23 0-.447.138-.631.378.54.218.945 1.074.945 2.099 0 1.107-.472 2.019-1.08 2.138.21.363.476.581.766.581.67 0 1.214-1.163 1.214-2.597 0-1.435-.544-2.599-1.214-2.599z"/></g><defs><clipPath id="clip0_71_660"><path fill="#fff" d="M0 0h100v100H0z"/></clipPath></defs></svg>