<svg version="1.1" id="Слой_1" xmlns="http://www.w3.org/2000/svg" x="0" y="0" viewBox="0 0 1920 1920" xml:space="preserve"><style/><linearGradient id="SVGID_1_" gradientUnits="userSpaceOnUse" x1="265.24" y1="-491.134" x2="265.24" y2="1231.062"><stop offset="0" stop-color="#333"/><stop offset="1"/></linearGradient><path d="M253.24 762.98c-18.76 64.82-28.78 133.41-28.78 204.33 0 33 2.19 65.53 6.41 97.41h75.14c-15.81-18.86-26.18-42.61-29.59-68.13l-13.88-7.93a25.39 25.39 0 01-12.71-19.57s-1.27-13.17-2.8-32.54c-1.17-15.96 3.86-25.93 9.46-32.95-.1-.36-.25-.71-.36-1.12l-1.27-7.07c-.15-.81-.2-1.58-.31-2.39l-1.47-8.95c-.25-1.53-.35-3-.35-4.52-.51-1.42-.87-2.9-1.12-4.42l-2.74-16.52c-2.19-12.86 2.13-21.66 7.52-27.66l-3.15-67.97z" fill-rule="evenodd" clip-rule="evenodd" fill="url(#SVGID_1_)"/><linearGradient id="SVGID_00000156557172974322256810000002706432259955169157_" gradientUnits="userSpaceOnUse" x1="930.882" y1="1543.667" x2="930.882" y2="1719.851"><stop offset="0" stop-color="#333"/><stop offset="1"/></linearGradient><path d="M1077.18 1693.58c-23.54-.71-53.59-3.81-91.87-10.83-102.29-18.76-168.84-9-200.72-.97 56.23 13.78 114.95 21.05 175.4 21.05 39.86 0 79.06-3.15 117.19-9.25z" fill-rule="evenodd" clip-rule="evenodd" fill="url(#SVGID_00000156557172974322256810000002706432259955169157_)"/><linearGradient id="SVGID_00000120551590256952512010000012650913912917932949_" gradientUnits="userSpaceOnUse" x1="959.989" y1="846.363" x2="959.989" y2="1769.414"><stop offset="0" stop-color="#333"/><stop offset="1"/></linearGradient><path d="M690.43 1651.84c28.47 11.24 57.86 20.74 87.96 28.42 24.15-10.68 77.69-26.44 172.5-18.05 114.8 9.91 182.93 13.93 202.25 15 110.43-30 210.48-85.06 293.76-158.68h-135.8c23.49 3.71 48.45 6.51 76.31 5.69-63.04 36.15-172.4-12.2-270.73 1.68 5.9-2.8 11.64-5.24 17.34-7.37h-58.16c3.56.71 5.49 1.32 5.49 1.32s-7.78 1.47-60.7 9.86c-41.89 6.86-80.33-5.64-94.57-11.19h-453c50.49 44.69 107.17 82.52 168.64 111.95 13.57.1 27.81.51 42.45 1.32 81.3 4.68 99.19 6.91 99.19 6.91s-26.02 18.38-92.93 13.14zm454.88-85.36c97.77 28.32 191.52 24.86 191.52 24.86s-94.57 36.2-189.79 3.46c-91.31-31.22-173.88 2.8-180.89 5.8 6.85-5.14 85.46-61.22 179.16-34.12zm-110.23 52.92c39.35 5.8 62.48 4.02 62.48 4.02s-40.22 18.2-78.96 6.91c-38.79-10.93-66.3-15.3-66.3-15.3s43.18-1.68 82.78 4.37zm-393.46-69.7s52.67 1.68 130.26-4.68c77.08-6.05 97.97-6.91 147.54 23.39-3.15-1.42-40.06-17.24-121.26-4.02-85.36 13.93-156.54-14.69-156.54-14.69zm82.16 44.18s61.92 2.34 89.69 0c27.81-2.24 49.52 6.97 49.52 6.97s-25.47 4.68-71.23 3.76c-45.71-.56-67.98-10.73-67.98-10.73z" fill-rule="evenodd" clip-rule="evenodd" fill="url(#SVGID_00000120551590256952512010000012650913912917932949_)"/><linearGradient id="SVGID_00000075865105140170045630000003729432750294121623_" gradientUnits="userSpaceOnUse" x1="1427.121" y1="-673.129" x2="1427.121" y2="1016.857"><stop offset="0" stop-color="#333"/><stop offset="1"/></linearGradient><path d="M1384.87 770.65l-13.32 8.49 42.3 58.87 20.08 15.61c4.68-19.78 9.51-38.89 13.93-56.03 10.12-38.33 21.35-79.06 34.83-118.92l-5.85-15.71-93.85-105.45 39.15 96.34-14.74 20.95s39.86 39 37.32 44.23c-2.64 5.39 5.29 43.62 5.29 43.62l-20.18 11.08-44.96-3.08z" fill-rule="evenodd" clip-rule="evenodd" fill="url(#SVGID_00000075865105140170045630000003729432750294121623_)"/><linearGradient id="SVGID_00000000924018588844502740000001692525285775011492_" gradientUnits="userSpaceOnUse" x1="969.064" y1="-2189.517" x2="969.064" y2="1125.459"><stop offset="0" stop-color="#333"/><stop offset="1"/></linearGradient><path d="M401.19 481.67c73.97-10.98 137.37-19.62 212.01-29.03l7.83-1.02c24.56-3.2 42.5-5.54 64.62 6.61l50.23 19.57c.61.25 1.22.56 1.88.86l84.7 41.23c3.46 1.68 6.71 3.66 9.66 5.9h198.59l-178.86 25.57a60.02 60.02 0 014.22 26.08l-7.58 125.53 201.23-152.07 46.32 63.2s55.06.15 63.15 6.91c2.54 2.08 10.32 9.2 19.32 17.49l-12.61 13.52c-11.39-8.03-23.08-15.96-25.52-16.73-3.66-.76-40.42-5.39-61.11-7.83l-31.67-44.03 10.47 83.02-34.27-8.19 24.96 41.28-6.4 20.39-43.42 19.27 18.86 53.54-55.87-46.88-27 15.15 34.57 44.23h53.38c75.65-75.19 224.67-223.04 233.26-230.36 11.64-9.71 40.32 11.59 40.32 11.59l66.86-74.28 120.09 124.31V529.11c0-14.03 11.39-25.42 25.42-25.42h28.11c-17.64-22.22-36.5-43.42-56.54-63.45l-353.25-52.16h295.39c-126.34-102.29-287.31-163.61-462.56-163.61-107.22 0-209.21 22.93-301.08 64.26l17.39-4.88h199.3l-286.7 40.98c-71.02 41.53-134.47 94.66-187.7 156.84z" fill-rule="evenodd" clip-rule="evenodd" fill="url(#SVGID_00000000924018588844502740000001692525285775011492_)"/><linearGradient id="SVGID_00000111879222815255730300000004695904373003208084_" gradientUnits="userSpaceOnUse" x1="1483.581" y1="-3342.396" x2="1483.581" y2="1427.811"><stop offset="0" stop-color="#333"/><stop offset="1"/></linearGradient><path d="M1611.57 529.13c24.96 37.67 46.77 77.69 64.97 119.58 18 41.39 32.54 84.7 43.22 129.44 12.51 52.32 19.73 106.67 21.05 162.44h.05c.1 6.46.2 12.91.2 19.42 0 2.34-.1 4.73-.1 7.07h171.23L1788.7 866.77c-.41-3.46-.81-6.91-1.27-10.32v-.05a827.767 827.767 0 00-67.67-239.97c-12.86-28.47-27.35-56.08-43.22-82.72-.91-1.53-1.83-3.05-2.8-4.58-130.61-215.82-356.15-367.74-618.79-397.83v53.43c232.41 28.16 433.28 158.32 556.62 344.4z" fill-rule="evenodd" clip-rule="evenodd" fill="url(#SVGID_00000111879222815255730300000004695904373003208084_)"/><linearGradient id="SVGID_00000137117134212698089060000017748810704065523879_" gradientUnits="userSpaceOnUse" x1="547.067" y1="-3593.664" x2="547.067" y2="1341.301"><stop offset="0" stop-color="#333"/><stop offset="1"/></linearGradient><path d="M960 178.94c1.67 0 3.33.04 5.02.05V0L864.1 131.11C479 174.56 173.31 479.84 129.12 864.65h55.62C231.76 478.26 560.91 178.94 960 178.94z" fill-rule="evenodd" clip-rule="evenodd" fill="url(#SVGID_00000137117134212698089060000017748810704065523879_)"/><linearGradient id="SVGID_00000035530427208874713950000000910955905788455870_" gradientUnits="userSpaceOnUse" x1="898.17" y1="-3056.3" x2="898.17" y2="2452.03"><stop offset="0" stop-color="#333"/><stop offset="1"/></linearGradient><path d="M1730.35 1089.4H189.62c-7.02-42.09-10.68-85.32-10.68-129.4 0-1.71.05-3.41.05-5.11H7.8l121.09 100.57c43.4 385.33 348.89 691.23 733.97 735.25v-55.64c-194.98-24.18-367.66-120.23-490.74-260.81h1175.73c-143.16 163.53-353.44 266.81-587.86 266.81-2.4 0-4.78-.07-7.17-.08V1920l100.29-129.11c385.54-43.34 691.59-349.11 735.42-734.47h-53.4a760.742 760.742 0 01-4.78 32.98zM465.7 1261.55h-56.94v-38.06c0-11.06-.61-17.97-1.83-20.72-1.22-2.74-3.9-4.12-8.05-4.12-4.69 0-7.67 1.67-8.93 5-1.26 3.34-1.89 10.55-1.89 21.64v101.72c0 10.64.63 17.58 1.89 20.83 1.26 3.25 4.1 4.87 8.52 4.87 4.24 0 7.01-1.63 8.32-4.88 1.31-3.25 1.96-10.89 1.96-22.91v-27.52h56.94v8.53c0 22.67-1.6 38.74-4.8 48.22-3.2 9.48-10.28 17.79-21.24 24.93-10.96 7.13-24.46 10.7-40.51 10.7-16.68 0-30.43-3.02-41.25-9.06-10.82-6.04-17.99-14.4-21.51-25.09-3.52-10.68-5.27-26.76-5.27-48.22v-63.98c0-15.78.54-27.61 1.62-35.51 1.08-7.89 4.31-15.49 9.67-22.79 5.36-7.31 12.8-13.05 22.31-17.25 9.51-4.19 20.45-6.29 32.8-6.29 16.77 0 30.61 3.24 41.53 9.73 10.91 6.48 18.08 14.57 21.5 24.25 3.43 9.68 5.14 24.74 5.14 45.18v20.8zm151.49 123.62h-57.08v-175.29H543.2v175.29h-57.08v-219.12h131.06v219.12zm121.46 0h-98.74v-218.98h94.95v43.82h-38.01v41.53h35.58v41.66h-35.58v48.15h41.79v43.82zm159.07 37.74h-39.36v-37.73H755.02v-219.12h57.08v175.29h16.91v-175.29h57.08v175.29h11.63v81.56zm129.84-212.9h-33.81v175.16h-56.94v-175.16h-33.68v-43.82h124.43v43.82zm135.66 36.53c0 13.98-1.44 24.17-4.33 30.57-2.89 6.4-8.18 11.32-15.9 14.74-7.71 3.43-17.78 5.14-30.23 5.14h-15.29v88.19h-56.94V1166.2h57.35c15.51 0 27.44 1.22 35.77 3.65 8.34 2.43 14.61 5.95 18.81 10.55 4.19 4.6 7.03 10.17 8.52 16.7 1.49 6.54 2.23 16.66 2.23 30.36v19.08zm89.17 138.63l-3.05-39.36h-20.37l-3.43 39.36h-58.87l29.05-218.98h82.3l32.56 218.98h-58.19zm198.8 0h-56.94v-91.98h-17.05v91.98h-56.94v-218.98h56.94v78.31h17.05v-78.31h56.94v218.98zM1607 1261.55h-56.94v-38.06c0-11.06-.61-17.97-1.83-20.72-1.22-2.74-3.9-4.12-8.05-4.12-4.69 0-7.67 1.67-8.93 5-1.26 3.34-1.89 10.55-1.89 21.64v101.72c0 10.64.63 17.58 1.89 20.83 1.26 3.25 4.1 4.87 8.52 4.87 4.24 0 7.01-1.63 8.32-4.88 1.31-3.25 1.96-10.89 1.96-22.91v-27.52H1607v8.53c0 22.67-1.6 38.74-4.8 48.22-3.2 9.48-10.28 17.79-21.24 24.93-10.96 7.13-24.46 10.7-40.51 10.7-16.68 0-30.43-3.02-41.25-9.06-10.82-6.04-17.99-14.4-21.51-25.09-3.52-10.68-5.27-26.76-5.27-48.22v-63.98c0-15.78.54-27.61 1.62-35.51 1.08-7.89 4.31-15.49 9.67-22.79 5.36-7.31 12.8-13.05 22.31-17.25 9.51-4.19 20.45-6.29 32.8-6.29 16.77 0 30.61 3.24 41.53 9.73 10.91 6.48 18.08 14.57 21.5 24.25 3.43 9.68 5.14 24.74 5.14 45.18v20.8z" fill-rule="evenodd" clip-rule="evenodd" fill="url(#SVGID_00000035530427208874713950000000910955905788455870_)"/><linearGradient id="SVGID_00000016779034245831029840000016454635962662624181_" gradientUnits="userSpaceOnUse" x1="1238.043" y1="832.765" x2="1238.043" y2="1357.695"><stop offset="0" stop-color="#333"/><stop offset="1"/></linearGradient><path d="M1228.24 1306.99h19.6c-2.88-24.8-5.77-55.46-8.67-91.97-5.8 41.93-9.44 72.59-10.93 91.97z" fill-rule="evenodd" clip-rule="evenodd" fill="url(#SVGID_00000016779034245831029840000016454635962662624181_)"/><linearGradient id="SVGID_00000096051209938603947040000006144384871263810997_" gradientUnits="userSpaceOnUse" x1="1106.551" y1="971.489" x2="1106.551" y2="1290.314"><stop offset="0" stop-color="#333"/><stop offset="1"/></linearGradient><path d="M1097.49 1203.66v55.73c1.63.09 3.02.13 4.19.13 5.23 0 8.86-1.28 10.89-3.85 2.03-2.57 3.04-7.91 3.04-16.03v-17.99c0-7.48-1.18-12.35-3.52-14.61-2.34-2.25-7.21-3.38-14.6-3.38z" fill-rule="evenodd" clip-rule="evenodd" fill="url(#SVGID_00000096051209938603947040000006144384871263810997_)"/><linearGradient id="SVGID_00000128445365486649790570000013954149120800749231_" gradientUnits="userSpaceOnUse" x1="280.506" y1="861.207" x2="280.506" y2="901.804"><stop offset="0" stop-color="#333"/><stop offset="1"/></linearGradient><path fill-rule="evenodd" clip-rule="evenodd" fill="url(#SVGID_00000128445365486649790570000013954149120800749231_)" d="M281.16 897.88l-1.17-7.03-.14-.08z"/><linearGradient id="SVGID_00000153690089625911452240000005016988557851676860_" gradientUnits="userSpaceOnUse" x1="448.076" y1="-208.154" x2="448.076" y2="832.706"><stop offset="0" stop-color="#333"/><stop offset="1"/></linearGradient><path d="M285.63 708.73c9.96 44.69 241.5 15.3 287.76-4.63 27.15-8.59 28.06-14.49 31.62-56.99 2.08-25.42 3.81-45.91 5.13-61.62.25-2.19.51-4.27.71-6.36l-17.74.05c-14.64.71-24.56 4.68-25.06 13.02 3.91.2 8.8.97 12.61 2.39 8.69 3.2 5.34 11.8 3.86 22.93-1.68 12.41-4.12 31.01-7.42 55.67-3.2 23.64-24.2 17.59-27.96 3.25 0 0-.05-26.03-.2-78.14 2.08-20.39 16.47-31.42 43.11-33.35l18.25-.2c-2.24-10.83-9.81-17.54-29.23-13.98-104.28 12-151.51 17.18-218.31 28.93-10.12 1.37-18.56 3.46-25.37 6.51-4.12 1.83-7.68 4.02-10.58 6.56-2.39 2.08-4.42 4.42-6 7.07l-2.08.05a558.07 558.07 0 00-7.98 14.54h4.63l-28.98 85.31c-1.18 3.24-1.38 6.24-.77 8.99zm199.09-128.32L378.21 713.92c-11.13.05-22.22-.15-33-.97-2.39-.15-6.71-.56-11.8-1.22l99.4-124.51c17.29-2.44 34.63-4.68 51.91-6.81zM304.13 704.26l88.67-111.04c6.97-1.12 13.93-2.19 20.9-3.25l-95.23 119.27c-6.05-1.27-11.49-2.9-14.34-4.93v-.05z" fill-rule="evenodd" clip-rule="evenodd" fill="url(#SVGID_00000153690089625911452240000005016988557851676860_)"/><linearGradient id="SVGID_00000002346074833899261530000008270549254128847777_" gradientUnits="userSpaceOnUse" x1="652.525" y1="-782.813" x2="652.525" y2="1089.772"><stop offset="0" stop-color="#333"/><stop offset="1"/></linearGradient><path d="M629.37 899.89c.05-17.54.71-35.49 3.71-45.2 9.1-29.03 32.69-51.3 67.62-50.89l102.5-.31-5.24-4.47-136.51-9.05c-19.12-2.14-25.73-3.66-24.1-37.17 2.9-57.76 5.08-115.36 4.88-172-12.66 62.94-20.54 170.12-25.27 234.68-4.27 13.12-10.47 15.1-28.12 18.56l-73.01 15.61c-10.07 2.14-13.98 5.49-13.98 20.59v37.47l21.91.92c36.56 1.58 69.71-4.11 105.61-8.74zm-20.29-30.4v15.3c-48.1 1.98-72.14 3-72.14 3 35.99-8.49 60.04-14.59 72.14-18.3z" fill-rule="evenodd" clip-rule="evenodd" fill="url(#SVGID_00000002346074833899261530000008270549254128847777_)"/><linearGradient id="SVGID_00000038408179381883274760000010196719596940225931_" gradientUnits="userSpaceOnUse" x1="309.884" y1="72.281" x2="309.884" y2="990.056"><stop offset="0" stop-color="#333"/><stop offset="1"/></linearGradient><path d="M273.93 854.45l2.75 16.49c4.43 1.13 9.27 2.32 14.49 3.61 8.84 2.16 18.81 4.55 29.94 7.18l-29.68-1.25-13.26-.56 1.82 10.92 4.53 2.45 11.23 6.08 50.3 2.04-1.9-32.89c-.1-9.61-2.3-14.91-12.83-17.34l-28.39-6.09c-6.39-1.19-7.31-2.72-8.32-11.2-3.53-31.37-8.33-76.26-8.64-93.29-.27.37-.55.76-.85 1.17-3 4.16-6.93 10.09-6.64 16.42l3.92 84.55c-6.76 4.18-9.49 5.63-8.47 11.71z" fill-rule="evenodd" clip-rule="evenodd" fill="url(#SVGID_00000038408179381883274760000010196719596940225931_)"/><linearGradient id="SVGID_00000087382887897806736110000012446117393013482653_" gradientUnits="userSpaceOnUse" x1="586.275" y1="-846.591" x2="586.275" y2="977.599"><stop offset="0" stop-color="#333"/><stop offset="1"/></linearGradient><path d="M342.93 575.13c-.43 2.36-.82 4.78-1.16 7.27 8.94-26.21 24.69-43.65 47.26-52.31l13.94-1.84c-5.26 6.78-9.62 15.99-13.11 27.62-13.27 3.59-23.11 7.41-27.75 11.35l243.94-34.89c-16.59-.88-42.88.06-72.26 2.35 1.21-7.69 2.74-15.81 4.6-24.38l98.83-13.1c-2 9.66-4.96 33.51-1.58 60.2 5.97-26 10.97-49.15 14.99-57.02 34.26 13.16 62.05 24.02 83.46 32.47 10.48 4.14 19.43 7.71 26.86 10.68 9.64 4.61 19.95 9.47 30.96 14.62 14.38 6.72 24.3 14.24 25.62 48.2V801.4l13.18-218.18c.84-13.96-6.81-27.05-19.38-33.16l-84.72-41.23-51.9-20.26c-17.11-9.93-29.45-7.02-58.33-3.39-71.32 8.97-135.61 17.72-211.97 29.06-37.66 5.61-55.05 26.17-61.48 60.89z" fill-rule="evenodd" clip-rule="evenodd" fill="url(#SVGID_00000087382887897806736110000012446117393013482653_)"/><linearGradient id="SVGID_00000165952727783745889570000014009655433052865967_" gradientUnits="userSpaceOnUse" x1="436.369" y1="397.515" x2="436.369" y2="868.519"><stop offset="0" stop-color="#333"/><stop offset="1"/></linearGradient><path d="M560.43 798.72l8.03-47.99c.97-4.32 2.9-11.69-10.07-9.96-82.26 8.8-169.66 11.69-237.63 10.78-12.86-.15-17.74 2.24-17.13 9.71l2.95 41.13c.25 14.59 6.25 20.84 22.01 20.64 97.62-.81 163.96-1.37 198.89-1.63 16.93-.36 31.42-6.36 32.95-22.68zm-238.04-26.49c125.99-1.88 207.64-6.05 237.73-10.02-6.61 7.68-6.51 7.68-17.39 8.49-68.18 4.22-145.56 5.9-232.7 6.97 4.53-4.52 4.07-5.34 12.36-5.44zm237.63 4.17c-6.61 7.63-6.51 7.68-17.34 8.44-68.03 4.07-145.15 5.49-232.04 6.41 4.52-4.52 4.12-5.34 12.35-5.44 125.58-1.58 206.98-5.6 237.03-9.41zm-249.78 29.03c4.58-4.47 4.12-5.34 12.3-5.39 124.46-.97 205.14-4.58 234.94-8.29-6.61 7.58-6.46 7.63-17.24 8.29-67.41 3.76-143.93 4.83-230 5.39z" fill-rule="evenodd" clip-rule="evenodd" fill="url(#SVGID_00000165952727783745889570000014009655433052865967_)"/><linearGradient id="SVGID_00000123411467781508904710000004021080501444262591_" gradientUnits="userSpaceOnUse" x1="723.093" y1="-386.987" x2="723.093" y2="906.295"><stop offset="0" stop-color="#333"/><stop offset="1"/></linearGradient><path d="M679.65 679.39l88.57 8.54 5.95 93.45h6.76l2.69-89.07 2.39-77.13c-.25-15.2-3.51-17.49-14.13-22.83l-21.91-8.34-66.35-25.37c-21.56-9.35-23.44-.66-23.44 14.95v85.06c.4 13.37 2.59 20.13 19.47 20.74zm63.3-82.41l-32.44 70.72-7.68-.76 33.3-72.55 6.82 2.59zm-25.78-9.86l13.63 5.19-33.96 74.08-15.41-1.53 35.74-77.74z" fill-rule="evenodd" clip-rule="evenodd" fill="url(#SVGID_00000123411467781508904710000004021080501444262591_)"/><linearGradient id="SVGID_00000143599990678370806000000005634139967729089453_" gradientUnits="userSpaceOnUse" x1="1657.977" y1="676" x2="1657.977" y2="1058.486"><stop offset="0" stop-color="#333"/><stop offset="1"/></linearGradient><path d="M1645.47 1014.15c2.74 4.66 6.18 7.42 9.89 7.39 8.58-.11 15.35-15.19 15.12-33.7-.07-5.57-.77-10.81-1.94-15.41-.96-3.78-2.24-7.12-3.75-9.87-2.78-5.05-6.37-8.08-10.26-8.03-2.95.04-5.69 1.85-8.01 4.97 1.58.62 3.07 1.66 4.43 3.06 2.33 2.38 4.29 5.79 5.69 9.87 1.4 4.09 2.24 8.87 2.3 13.97.17 14.29-5.72 26.13-13.47 27.75z" fill-rule="evenodd" clip-rule="evenodd" fill="url(#SVGID_00000143599990678370806000000005634139967729089453_)"/><linearGradient id="SVGID_00000047751180206000604750000016672699305751020940_" gradientUnits="userSpaceOnUse" x1="1575.961" y1="676" x2="1575.961" y2="1058.486"><stop offset="0" stop-color="#333"/><stop offset="1"/></linearGradient><path d="M1563.46 1014.15c2.74 4.66 6.17 7.42 9.88 7.39 8.59-.11 15.35-15.19 15.12-33.7-.07-5.57-.76-10.81-1.95-15.41-.96-3.78-2.24-7.12-3.75-9.87-2.77-5.05-6.36-8.08-10.24-8.03-2.95.04-5.69 1.85-8.01 4.97 1.58.62 3.07 1.66 4.44 3.06 2.33 2.38 4.28 5.79 5.68 9.87 1.41 4.09 2.24 8.87 2.29 13.97.17 14.29-5.72 26.13-13.46 27.75z" fill-rule="evenodd" clip-rule="evenodd" fill="url(#SVGID_00000047751180206000604750000016672699305751020940_)"/><linearGradient id="SVGID_00000166638751258385445930000012979631610863886271_" gradientUnits="userSpaceOnUse" x1="983.882" y1="-1659.271" x2="983.882" y2="1355.951"><stop offset="0" stop-color="#333"/><stop offset="1"/></linearGradient><path d="M1325.79 980.78c.05 5.85.41 11.59 1.17 17.08l5.8 24.1c7.83 21.86 21.46 37.93 37.47 42.66.1.05.2.1.31.1h72.6c1.63-.36 3.2-.76 4.78-1.32 1.32.51 2.64.97 3.97 1.32h72.55c1.78-.36 3.51-.86 5.24-1.47 1.88.66 3.76 1.17 5.75 1.47h153.74c2.54-19.37 4.37-39 5.34-58.82.71-12.76 1.02-25.62 1.02-38.59 0-20.95-.86-41.69-2.59-62.18h-16.37V800.6c-22.42-96.8-63.96-186.23-120.39-264.17h-47.33v151.61c-13.93 40.47-25.37 81.75-36.35 123.19-7.88 30.71-15.76 62.43-22.37 93.9h-180.95l-4.07-10.07-12.41-25.93-42.81-31.11H826.33v-.31H719.51c-68.23-1.22-77.69 47.28-80.43 98.84h-9.56c.05-3.91 0-8.8-.05-14.18l-79.72 5.95-245.92-12-20.34-5.64-.76-4.27c0 .36 0 .81.05 1.17.05 1.53.25 3.1.46 4.73-7.27 7.22-11.74 10.27-10.88 22.22 1.53 19.12 2.8 32.08 2.8 32.08l25.52 14.59c.86 35.13 17.54 65.79 42.4 83.53h99.55c19.32-13.78 33.76-35.44 39.61-60.91l67.31 1.88c8.19 24 20.95 45.4 41.33 59.03h156.69c7.22-6.46 13.58-14.69 19.01-24.25l253.45.66c4.12 9.3 9.2 17.29 15.05 23.59h202.45c7.78-8.49 13.98-20.08 18.1-33.66h24.76c9.25 0 8.03.41 8.03-11.24v-56.94h38.39c-.51 3.1-.66 4.88-.66 4.88-.31 4.27-.51 8.54-.36 13.01zm311 20.14V963.4c1.02-3.2 2.24-6.15 3.66-8.59 3.51-6.71 8.34-10.83 13.57-10.88 7.27-.15 13.83 7.42 17.69 18.96 1.02 3.05 1.88 6.36 2.54 9.86.86 4.73 1.37 9.66 1.42 14.9.31 24.25-8.9 44.08-20.59 44.18-7.78.1-14.64-8.59-18.51-21.56.17-3.15.22-6.15.22-9.35zm-54.04-67.62c12.56 4.98 20.54 16.17 24.91 29.59 2.8 8.54 4.07 18.1 4.07 27.35 0 16.22-3.86 31.93-10.62 41.74-1.42 2.19-2.95 4.02-4.68 5.49-1.73 1.58-3.41 2.75-5.29 3.61 1.88-2.85 3.56-5.9 5.19-9 10.47-21.25 11.9-47.84 4.93-69.2-4.02-12.25-10.93-22.83-20.44-29.64-.46-.46-1.07-.76-1.58-1.02 1.22.21 2.39.57 3.51 1.08zm-30.97 45.3v-.05c.25-1.93.51-3.91.81-5.8.41-2.54.97-5.03 1.58-7.37.31-.81.51-1.68.76-2.49.97-3 2.14-5.8 3.46-8.08.35-.71.66-1.37 1.12-2.03 3.46-5.54 7.73-8.8 12.51-8.85 7.27-.15 13.73 7.42 17.69 18.96.97 3.05 1.88 6.36 2.54 9.86a92.77 92.77 0 011.47 14.9c.25 24.25-8.95 44.08-20.59 44.18-4.88.05-9.41-3.25-12.91-8.9-5.24-7.98-8.59-20.59-8.8-34.78-.04-3.3.06-6.5.36-9.55zm-71.12-165.24c10.52-40.93 20.54-81.96 28.17-123.54v244.24l-19.78-28.93h-34.47c9.45-30.4 18.04-61.47 26.08-91.77zM334.28 993.29c10.93 1.02 8.64 2.44 16.78 2.8 3.31 21.86 17.69 38.69 45.96 49.57-39.5 4.67-59.43-21.66-62.74-52.37zm370.08 21.15c-17.39 0-31.47-29.34-31.47-65.43 0-36.25 14.08-65.53 31.47-65.53 17.34 0 31.37 29.28 31.37 65.53 0 36.09-14.03 65.43-31.37 65.43zm29.79 11.08c35.33-49.77 28.32-131.17-15.61-160.1 65.03 18.71 56.13 143.07 15.61 160.1zm80.59-30.86h-10.02c1.47-61.72-2.59-104.99-23.84-126.6h33.86v126.6zM828 922.77v-7.02c0-1.68 1.42-3.15 3.1-3.15h9.71l6.1 9.3v3.91H831.1c-1.67.01-3.1-1.36-3.1-3.04zm171.8 68.79c0 1.42-1.17 2.59-2.54 2.59H832.73c-1.37 0-2.59-1.17-2.59-2.59v-8.08c0-1.42 1.22-2.54 2.59-2.54h14.19v.61c0 3.86 3.1 7.07 7.07 7.07.97 0 1.93-.2 2.74-.66-.61-1.07-1.02-2.29-1.02-3.66v-59.54l-7.93-12.15-11.85-18.1c-2.13-3.2-1.22-7.63 2.08-9.71.31-.25.66-.41.97-.61 3.15-1.32 6.81-.3 8.69 2.64l16.98 25.78h94.51l6.1 9.3v3.91h-95.53v55.11h95.53v.61c0 3.86 3.1 7.07 7.07 7.07 1.12 0 2.29-.31 3.25-.86-.61-.97-.91-2.14-.91-3.46v-59.54l-7.98-12.15-11.8-18.1c-2.19-3.2-1.27-7.63 1.98-9.71.25-.1.41-.25.61-.36 3.2-1.68 7.17-.66 9.15 2.39l16.88 25.78h10.93c1.78 0 3.1 1.47 3.1 3.15v7.02c0 1.68-1.32 3.05-3.1 3.05h-5.69v55.11h8.49a2.55 2.55 0 012.54 2.54v8.09zm124.25 40.52c-12.46 0-22.52-21.05-22.52-47.03s10.07-46.98 22.52-46.98c12.51 0 22.57 21 22.57 46.98.01 25.98-10.06 47.03-22.57 47.03zm19.12 10.07c25.27-36.25 20.34-95.48-11.24-116.58 46.63 13.67 40.22 104.22 11.24 116.58zm61.98-7.27c-11.79 0-21.35-19.83-21.35-44.38 0-24.45 9.56-44.28 21.35-44.28 11.69 0 21.2 19.83 21.2 44.28 0 24.55-9.51 44.38-21.2 44.38zm17.89 9.45c23.9-34.17 19.22-90.04-10.52-109.92 7.22 2.14 13.07 6.25 17.69 11.59 1.83 2.14 3.51 4.42 4.98 6.91 17.39 29.6 9 82.37-12.15 91.42zm30.46-93.14l-22.93-39.15-1.78-3.1c-4.22-6.15-5.9-7.07-11.59-7.17l-107.94-5.8-1.58-6.76-25.83 43.06c-5.85 9.61-6.15 8.49-14.24 8.49h-40.16c-7.83 0-8.8-1.42-4.63-10.07l27.15-43.27c5.64-9.05 9.96-12.46 19.12-11.59l157.05 9c4.98.41 5.8-1.02 9.3 6.2l1.93 4.02 27.1 56.13h-10.97z" fill-rule="evenodd" clip-rule="evenodd" fill="url(#SVGID_00000166638751258385445930000012979631610863886271_)"/><linearGradient id="SVGID_00000086657187730594384140000013873758837545034413_" gradientUnits="userSpaceOnUse" x1="1208.001" y1="676.602" x2="1208.001" y2="1062.053"><stop offset="0" stop-color="#333"/><stop offset="1"/></linearGradient><path d="M1205.11 957.29c-2.98 0-5.77 1.8-8.14 4.91 6.97 2.82 12.19 13.96 12.19 27.28 0 14.4-6.09 26.25-13.91 27.79 2.69 4.72 6.12 7.55 9.87 7.55 8.65 0 15.66-15.11 15.66-33.77-.02-18.64-7.03-33.76-15.67-33.76z" fill-rule="evenodd" clip-rule="evenodd" fill="url(#SVGID_00000086657187730594384140000013873758837545034413_)"/><linearGradient id="SVGID_00000001654396040465252850000008296288102285841296_" gradientUnits="userSpaceOnUse" x1="1127.148" y1="652.034" x2="1127.148" y2="1060.951"><stop offset="0" stop-color="#333"/><stop offset="1"/></linearGradient><path d="M1124.08 949.81c-3.16 0-6.12 1.9-8.64 5.21 7.41 2.99 12.93 14.81 12.93 28.93 0 15.27-6.46 27.84-14.76 29.48 2.86 5.02 6.5 8.03 10.47 8.03 9.16 0 16.61-16.04 16.61-35.83s-7.45-35.82-16.61-35.82z" fill-rule="evenodd" clip-rule="evenodd" fill="url(#SVGID_00000001654396040465252850000008296288102285841296_)"/><linearGradient id="SVGID_00000165218870562208934820000007880622824597605283_" gradientUnits="userSpaceOnUse" x1="708.593" y1="485.179" x2="708.593" y2="1054.608"><stop offset="0" stop-color="#333"/><stop offset="1"/></linearGradient><path d="M704.32 899.84c-4.39 0-8.51 2.65-12.01 7.26 10.3 4.17 17.99 20.62 17.99 40.29 0 21.26-8.99 38.77-20.55 41.05 3.98 6.98 9.05 11.17 14.57 11.17 12.78 0 23.13-22.34 23.13-49.88-.01-27.55-10.36-49.89-23.13-49.89z" fill-rule="evenodd" clip-rule="evenodd" fill="url(#SVGID_00000165218870562208934820000007880622824597605283_)"/></svg>