<svg width="100.006378" height="100.006409" viewBox="0 0 100.006 100.006" fill="none" xmlns="http://www.w3.org/2000/svg" xmlns:xlink="http://www.w3.org/1999/xlink">
	<desc>
			Created with Pixso.
	</desc>
	<defs/>
	<path id="path" d="M2.22592 26.3984C7.44946 20.1926 12.673 13.9805 17.8965 7.77472C19.4145 5.79758 20.9452 4.27322 23.4836 3.2655L25.971 2.7489C24.0513 5.61899 22.9798 9.27356 22.6609 13.4384C22.5397 15.0265 22.4249 16.621 22.3165 18.2091C21.4044 17.7371 20.3712 17.4692 19.2806 17.4692L17.6478 17.4692C13.9677 17.4692 11.002 20.486 11.002 24.1533L11.002 33.8478C11.002 37.5151 13.9677 40.5319 17.6478 40.5319L19.2806 40.5319C19.9184 40.5319 20.537 40.4426 21.1174 40.2704C20.8432 47.1969 20.671 54.1234 20.5817 61.0562L0 68.646L0 35.3339C0 30.0147 0.994965 28.3309 2.22592 26.3984ZM20.7921 86.4596L19.2104 86.4022C19.153 91.2813 18.4323 97.3149 16.0788 97.3149C14.0507 97.3149 10.0262 97.3149 7.99796 97.3149C5.87411 97.2511 4.73245 92.5123 4.71332 86.1726L3.53976 86.1407C1.54984 86.0514 0 85.1521 0 81.9823L0 73.8185L20.5306 69.8769C20.5306 74.4882 20.5689 79.1058 20.6454 83.7171C20.6582 84.6291 20.7029 85.5475 20.7921 86.4596ZM76.1018 0C83.7171 0.491089 87.6969 5.15338 88.3539 13.7381C90.1397 37.2154 90.7647 60.176 90.3629 83.6533C90.3119 86.804 89.9866 90.4522 87.3653 92.4102L87.3653 97.1618C87.3653 98.7244 86.1024 100.006 84.5653 100.006L78.4361 100.006C76.8927 100.006 75.6362 98.7244 75.6362 97.1618L75.6362 93.8261C63.55 93.8261 51.4701 93.8261 39.3839 93.8261L39.3839 97.1618C39.3839 98.7244 38.1211 100.006 36.584 100.006L30.4547 100.006C28.9113 100.006 27.6548 98.7244 27.6548 97.1618L27.6548 92.4102C25.0271 90.4522 24.7082 86.804 24.6572 83.6533C24.2554 60.176 24.8804 37.2218 26.6662 13.7381C27.3232 5.15338 31.2966 0.491089 38.9183 0C51.317 0 63.7031 0 76.1018 0ZM69.4815 80.4133C71.0505 80.3176 71.2163 79.9031 71.4842 79.2653C71.8286 78.4106 72.1666 77.556 72.5046 76.7077C72.9639 75.5597 72.4153 75.0622 69.7685 75.0622C61.5919 75.0622 53.4154 75.0622 45.2325 75.0622C42.5856 75.0622 42.0435 75.5597 42.4963 76.7077C42.8408 77.5623 43.1788 78.417 43.5168 79.2653C43.7847 79.9031 43.9505 80.3176 45.5195 80.4133C53.5047 80.4133 61.4963 80.4133 69.4815 80.4133ZM72.8427 72.0518C74.4117 71.9561 74.5775 71.5416 74.8453 70.9037C75.1898 70.0491 75.5278 69.1945 75.8658 68.3398C76.325 67.1918 75.7765 66.6943 73.1297 66.6943C62.7081 66.6943 52.2929 66.6943 41.8713 66.6943C39.2245 66.6943 38.6823 67.1918 39.1352 68.3398C39.4796 69.1945 39.8176 70.0491 40.1556 70.9037C40.4235 71.5416 40.5893 71.9561 42.1583 72.0518C52.3822 72.0518 62.6188 72.0518 72.8427 72.0518ZM76.2039 63.6903C77.7728 63.5946 77.9387 63.1801 78.2065 62.5423C78.5509 61.6876 78.889 60.833 79.227 59.9847C79.6862 58.8367 79.1377 58.3392 76.4908 58.3392C63.8306 58.3392 51.1768 58.3392 38.5165 58.3392C35.8696 58.3392 35.3275 58.8367 35.7803 59.9847C36.1248 60.8394 36.4628 61.694 36.8008 62.5423C37.0687 63.1801 37.2345 63.5946 38.8035 63.6903C51.266 63.6903 63.7413 63.6903 76.2039 63.6903ZM79.5395 55.3288C81.1085 55.2331 81.2743 54.8185 81.5422 54.1808C81.8866 53.3261 82.2246 52.4715 82.5627 51.6168C83.0219 50.4688 82.4734 49.9713 79.8265 49.9713C64.9467 49.9713 50.067 49.9713 35.1872 49.9713C32.5403 49.9713 31.9982 50.4688 32.451 51.6168C32.7955 52.4715 33.1335 53.3261 33.4715 54.1808C33.7394 54.8185 33.9052 55.2331 35.4742 55.3288C50.1627 55.3288 64.8575 55.3288 79.5395 55.3288ZM72.0709 43.4403C80.3559 43.3574 80.8597 42.8408 84.087 39.8814C85.8728 38.2422 85.4966 35.9781 85.4391 34.2177C85.3052 29.9828 84.9034 25.7733 84.6355 21.5511C84.2656 18.3239 82.8561 18.0177 80.1773 17.9476C65.0616 17.9476 49.9522 17.9476 34.8364 17.9476C32.1513 18.0177 30.7481 18.3239 30.3782 21.5511C30.1104 25.7733 29.7149 29.9828 29.5746 34.2177C29.5172 35.9781 29.1409 38.2422 30.9267 39.8814C34.154 42.8471 34.6578 43.3637 42.9428 43.4403C52.6501 43.4403 62.3637 43.4403 72.0709 43.4403ZM38.3315 80.4197C35.825 80.4197 33.3185 80.4197 30.8119 80.4197C30.0147 80.4197 29.5044 79.9158 29.5044 79.093C29.5172 74.3096 29.5044 69.5325 29.5044 64.749C29.5044 63.9263 30.0848 63.6967 30.6844 63.6967C31.4625 63.6967 32.2406 63.6967 33.0187 63.6967C33.3886 63.6967 34.0328 63.5372 34.5303 64.7937C36.4437 69.5835 38.255 74.1246 40.1812 78.9591C40.5574 79.7819 39.6518 80.4069 38.3315 80.4197ZM19.287 21.4682L17.6542 21.4682C16.2 21.4682 15.0073 22.6736 15.0073 24.1533L15.0073 33.8478C15.0073 35.3275 16.2 36.533 17.6542 36.533L19.287 36.533C20.7411 36.533 21.9338 35.3211 21.9338 33.8478L21.9338 24.1533C21.9338 22.6736 20.7411 21.4682 19.287 21.4682ZM76.6822 80.4197C79.1887 80.4197 81.6953 80.4197 84.2018 80.4197C84.9991 80.4197 85.5093 79.9158 85.5093 79.093C85.4965 74.3096 85.5093 69.5325 85.5093 64.749C85.5093 63.9263 84.9289 63.6967 84.3293 63.6967C83.5513 63.6967 82.7731 63.6967 81.995 63.6967C81.6251 63.6967 80.9809 63.5372 80.4835 64.7937C78.5701 69.5835 76.7587 74.1246 74.8326 78.9591C74.4563 79.7819 75.3619 80.4069 76.6822 80.4197ZM95.7268 21.4682L97.3595 21.4682C98.8137 21.4682 100.006 22.6736 100.006 24.1533L100.006 33.8478C100.006 35.3275 98.8137 36.533 97.3595 36.533L95.7268 36.533C94.2726 36.533 93.0799 35.3211 93.0799 33.8478L93.0799 24.1533C93.0799 22.6736 94.2726 21.4682 95.7268 21.4682Z" fill-rule="evenodd" fill="#2B6AB0"/>
</svg>
