<svg width="99.993042" height="99.999420" viewBox="0 0 99.993 99.9994" fill="none" xmlns="http://www.w3.org/2000/svg" xmlns:xlink="http://www.w3.org/1999/xlink">
	<desc>
			Created with Pixso.
	</desc>
	<defs/>
	<path id="path" d="M45.1302 18.3301L48.9633 14.4715C36.1819 15.1093 25.1545 22.6671 21.162 34.4471C22.4949 19.4016 33.1014 10.8935 48.9059 10.4406L45.1238 6.66492L45.1238 0L57.6245 12.5007L45.0728 24.9441L45.1302 18.3301ZM10.3067 44.9898L40.3085 44.9898L40.3085 63.9897L10.3067 63.9897L10.3067 44.9898ZM10.3067 34.9893L40.3085 34.9893L40.3085 40.9909L10.3067 40.9909L10.3067 34.9893ZM53.6511 43.2296L53.6511 22.0804L57.65 18.1133L57.65 39.2625L53.6511 43.2296ZM66.847 60.9984L85.783 60.9984L85.783 50.7937L95.9877 50.7937L95.9877 3.99896L57.6437 3.99896L57.6437 6.85626L53.6447 2.8573L53.6447 0L99.9867 0L99.9867 52.452L87.4349 65.0038L61.6107 65.0038L61.6107 62.4972C63.4284 62.1209 65.1823 61.6171 66.847 60.9984ZM89.7884 54.7927L89.7884 56.9995L91.9951 54.7927L89.7884 54.7927ZM61.8276 19.2868L91.8293 19.2868L91.8293 23.2858L61.8276 23.2858L61.8276 19.2868ZM91.8293 11.2889L91.8293 15.2879L61.8276 15.2879L61.8276 11.2825L91.8293 11.2889ZM61.8276 27.2911L91.8293 27.2911L91.8293 31.2901L61.8276 31.2901L61.8276 27.2911ZM61.8276 35.289L77.3642 35.289C76.8029 36.7049 76.1205 38.0443 75.336 39.288L61.834 39.288L61.8276 35.289ZM85.6172 35.289L91.8293 35.289L91.8293 39.288L85.0878 39.288C85.3047 38.14 85.4705 36.9537 85.5789 35.7227L85.6172 35.289ZM30.7862 26.3344L41.0738 26.3344L41.1057 22.3355L35.9651 22.3355C34.0709 23.4452 32.3297 24.7846 30.7862 26.3344ZM5.11508 26.3344L18.7575 26.3344C19.2231 24.9313 19.7715 23.5919 20.4093 22.3355L5.11508 22.3355C2.30243 22.3355 0 24.6379 0 27.4506L0 72.5489C0 75.3615 2.30243 77.6639 5.11508 77.6639L39.9959 77.6639L39.9959 94.9991L27.4952 94.9991C26.1176 94.9991 24.9951 96.1216 24.9951 97.4992C24.9951 98.8769 26.1176 99.9994 27.4952 99.9994L72.4978 99.9994C73.8755 99.9994 74.998 98.8769 74.998 97.4992C74.998 96.1216 73.8754 94.9991 72.4978 94.9991L59.9971 94.9991L59.9971 77.6639L94.8779 77.6639C97.6906 77.6639 99.993 75.3615 99.993 72.5489L99.993 58.1092L95.9941 62.1082L95.9941 72.5489C95.9941 73.1611 95.4902 73.665 94.8779 73.665C64.9527 73.665 35.0339 73.665 5.1087 73.665C4.49643 73.665 3.99258 73.1611 3.99258 72.5489L3.99258 27.4506C3.99258 26.8383 4.50281 26.3344 5.11508 26.3344ZM57.6309 51.4889L53.7978 55.3476C66.5791 54.7098 77.6065 47.1519 81.5991 35.3719C80.2661 50.4174 69.6597 58.9256 53.8552 59.3784L57.6373 63.1541L57.6373 69.8191L45.1365 57.3184L57.6883 44.875L57.6309 51.4889Z" fill-rule="evenodd" fill="#2B6AB0"/>
</svg>
