<svg width="100.000000" height="100.000000" viewBox="0 0 100 100" fill="none" xmlns="http://www.w3.org/2000/svg" xmlns:xlink="http://www.w3.org/1999/xlink">
	<desc>
			Created with Pixso.
	</desc>
	<defs>
		<clipPath id="clip14_5">
			<rect id="Гарантия доставки" width="100.000000" height="100.000000" fill="white"/>
		</clipPath>
	</defs>
	<g clip-path="url(#clip14_5)">
		<path id="path" d="M0 28.5222L26.9214 24.1278C27.3232 25.3843 27.9418 26.6216 28.7837 27.7888L42.2603 46.5591L40.3023 47.2543L0 28.5222ZM53.7789 19.7462L62.9313 18.2537L68.7927 19.4783L61.2858 30.1996L53.7789 19.7462ZM95.4206 25.0335L100 25.9902L93.0034 28.4839L95.4206 25.0335ZM0 32.5403L38.2869 51.2469L38.2869 100.006L0 73.4613L0 32.5403ZM100 29.9828L89.1575 33.9754L71.6819 58.9323C66.605 66.1841 56.3046 66.1331 51.1703 58.9834L44.92 50.2711L42.2859 51.2405L42.2859 100L100 72.9001L100 29.9828ZM45.1304 16.2702L61.3304 38.8418L86.2427 3.2655C91.9319 -4.86002 104.222 3.74387 98.5331 11.8694L67.5872 56.0622C64.4748 60.5077 58.3519 60.412 55.2331 56.0622L32.8465 24.8676C27.0617 16.8059 39.3456 8.21481 45.1304 16.2702Z" fill-rule="evenodd" fill="#2B6AB0"/>
	</g>
</svg>
