<svg width="100.000015" height="99.993629" viewBox="0 0 100 99.9936" fill="none" xmlns="http://www.w3.org/2000/svg" xmlns:xlink="http://www.w3.org/1999/xlink">
	<desc>
			Created with Pixso.
	</desc>
	<defs/>
	<path id="path" d="M31.7686 64.2771C34.3644 72.0071 40.9656 76.3059 45.5641 82.3203C46.3805 79.4375 47.1969 76.5546 48.0133 73.6718C45.9978 73.3019 45.6598 70.3935 45.781 68.2378C48.4725 68.7161 51.2788 68.7353 54.219 68.2378C54.3402 70.3935 53.9958 73.3019 51.9867 73.6718C52.8031 76.5546 53.6195 79.4375 54.4359 82.3203C59.0344 76.3059 65.6356 72.0135 68.2314 64.2771C72.2814 66.0055 75.9296 66.1012 80.3431 67.1918C88.5197 69.2136 100 72.8554 100 89.4381C100 92.4166 99.9872 95.9436 100 99.9936L50.0032 99.9936L49.4993 99.9936L0 99.9936C0.0127563 95.9436 0 92.4166 0 89.4381C0 72.8554 11.4803 69.2136 19.6569 67.1918C24.0768 66.1012 27.7186 66.0055 31.7686 64.2771ZM63.6839 83.5576L74.367 83.5576C75.8594 83.5576 77.0776 84.7758 77.0776 86.2683L77.0776 91.9893C77.0776 93.4817 75.8594 94.6999 74.367 94.6999L63.6839 94.6999C62.1915 94.6999 60.9733 93.4817 60.9733 91.9893L60.9733 86.2683C60.9733 84.7758 62.1915 83.5576 63.6839 83.5576ZM49.9968 0C36.3926 0.892914 25.1993 5.70827 24.7018 27.9099C20.3266 28.8922 23.1967 43.6507 26.8512 43.7081C31.1946 55.737 40.2386 64.4939 49.9968 64.7682C59.7551 64.4939 68.799 55.737 73.1425 43.7081C76.797 43.6507 79.6671 28.8922 75.2918 27.9099C74.7943 5.71465 63.6074 0.892914 49.9968 0ZM28.6307 31.1244C29.5619 34.2433 28.9878 26.7619 33.8415 23.2221C39.2181 19.2997 41.5396 23.2795 49.9713 23.0499C54.9653 22.7821 55.4883 21.2258 58.5178 21.8381C61.6366 22.4632 63.416 23.1711 65.7185 24.4658C66.2734 24.9888 63.6776 20.1862 66.5157 22.6928C67.5171 23.6941 68.9266 26.9022 69.7621 29.2302C70.4445 31.1181 70.5466 32.4829 71.3502 31.1244C71.9243 30.5568 73.1679 30.4866 73.4103 31.59C74.7625 38.4782 70.8081 42.0499 69.3667 42.3496C66.4647 50.3859 59.4426 60.4248 49.9841 60.7628C40.5256 60.4248 33.5034 50.3859 30.6014 42.3496C29.16 42.0435 25.2057 38.4782 26.5578 31.59C26.8002 30.493 28.0566 30.5568 28.6307 31.1244Z" fill-rule="evenodd" fill="#2B6AB0"/>
</svg>
