<svg width="99.974365" height="99.987183" viewBox="0 0 99.9744 99.9872" fill="none" xmlns="http://www.w3.org/2000/svg" xmlns:xlink="http://www.w3.org/1999/xlink">
	<desc>
			Created with Pixso.
	</desc>
	<defs/>
	<path id="path" d="M8.17099 34.7859L38.1633 34.7859L38.1633 38.7849L8.17099 38.7849L8.17099 34.7859ZM8.17099 26.788L38.1633 26.788L38.1633 30.787L8.17099 30.787L8.17099 26.788ZM36.1254 54.7744L36.1254 56.9854L38.3363 54.7744L36.1254 54.7744ZM3.99896 60.978L32.1264 60.978L32.1264 50.7755L42.3289 50.7755L42.3289 3.99899L3.99896 3.99899L3.99896 6.85721L3.99896 60.978ZM0 2.85825L0 1.11511L0 0L46.3279 0L46.3279 52.4353L33.7862 64.9769L0.00640869 64.9769C0.00640869 44.2707 0 23.5645 0 2.85825ZM8.17099 42.7839L38.1633 42.7839L38.1633 46.7829L8.17099 46.7829L8.17099 42.7839ZM16.3997 22.5904L26.3907 7.9595L29.9218 7.9595L19.9308 22.5904L16.3997 22.5904ZM17.8031 15.8998C17.0661 15.8998 16.3997 15.7396 15.8165 15.4319C15.2333 15.1179 14.7654 14.6565 14.4258 14.0413C14.0861 13.4261 13.9131 12.6891 13.9131 11.8239C13.9131 10.9587 14.0861 10.2217 14.4258 9.61932C14.7654 9.0105 15.2333 8.54907 15.8165 8.22867C16.3997 7.90823 17.0661 7.74802 17.8031 7.74802C18.5401 7.74802 19.2002 7.90823 19.7898 8.22867C20.373 8.54907 20.8408 9.0105 21.1805 9.61932C21.5201 10.2281 21.6931 10.9587 21.6931 11.8239C21.6931 12.6891 21.5201 13.4261 21.1805 14.0413C20.8408 14.6565 20.373 15.1179 19.7898 15.4319C19.2066 15.746 18.5401 15.8998 17.8031 15.8998ZM17.8031 13.6439C18.0403 13.6439 18.2517 13.5157 18.4376 13.2594C18.6234 13.0031 18.7196 12.5224 18.7196 11.8303C18.7196 11.1317 18.6234 10.6575 18.4376 10.4012C18.2517 10.1448 18.0338 10.0167 17.8031 10.0167C17.5788 10.0167 17.3737 10.1448 17.1751 10.4012C16.9828 10.6575 16.8803 11.1382 16.8803 11.8303C16.8803 12.5288 16.9764 13.0031 17.1751 13.2594C17.3673 13.5157 17.5788 13.6439 17.8031 13.6439ZM28.5247 22.8018C27.7878 22.8018 27.1277 22.648 26.5381 22.334C25.9549 22.02 25.4871 21.5586 25.1474 20.9434C24.8077 20.3281 24.6347 19.5911 24.6347 18.726C24.6347 17.8608 24.8077 17.1238 25.1474 16.5214C25.4871 15.9126 25.9549 15.4512 26.5381 15.1307C27.1212 14.8103 27.7878 14.6501 28.5247 14.6501C29.2617 14.6501 29.9282 14.8103 30.5114 15.1307C31.0946 15.4512 31.5624 15.9126 31.9021 16.5214C32.2417 17.1302 32.4148 17.8608 32.4148 18.726C32.4148 19.5911 32.2417 20.3281 31.9021 20.9434C31.5624 21.5586 31.0946 22.02 30.5114 22.334C29.9282 22.648 29.2617 22.8018 28.5247 22.8018ZM28.5247 20.546C28.7618 20.546 28.9733 20.4178 29.1592 20.1615C29.345 19.9052 29.4412 19.4245 29.4412 18.7324C29.4412 18.0338 29.345 17.5596 29.1592 17.3033C28.9733 17.0469 28.7555 16.9187 28.5247 16.9187C28.3004 16.9187 28.0954 17.0469 27.8967 17.3033C27.7044 17.5596 27.6019 18.0403 27.6019 18.7324C27.6019 19.4309 27.698 19.9052 27.8967 20.1615C28.089 20.4178 28.3004 20.546 28.5247 20.546ZM50.4999 42.9569L80.4922 42.9569L80.4922 46.9559L50.4999 46.9559L50.4999 42.9569ZM50.4999 34.959L80.4922 34.959L80.4922 38.9579L50.4999 38.9579L50.4999 34.959ZM46.3279 69.1489L48.8336 69.1489C48.5068 70.4499 48.2697 71.7829 48.1287 73.1479L42.3289 73.1479L42.3289 62.0866L46.3279 58.0877L46.3279 69.1489ZM84.6578 49.3912L84.6578 12.17L50.3268 12.17L50.3268 8.17099L88.6568 8.17099L88.6568 51.051C87.3751 50.3973 86.0421 49.8398 84.6578 49.3912ZM50.4999 50.9485L63.4966 50.9485C61.3369 52.0251 59.3373 53.3709 57.5429 54.9474L50.4999 54.9474L50.4999 50.9485ZM58.2351 30.8767C56.9406 30.8767 55.7934 30.5755 54.7936 29.9795C53.8003 29.3835 53.0185 28.5119 52.4545 27.3648C51.8906 26.224 51.6086 24.8398 51.6086 23.2248C51.6086 21.6098 51.8906 20.232 52.4545 19.0848C53.0185 17.9441 53.8003 17.0725 54.7936 16.4701C55.787 15.8741 56.9341 15.5729 58.2351 15.5729C59.5296 15.5729 60.6768 15.8741 61.6765 16.4701C62.6698 17.0725 63.4517 17.9377 64.0157 19.0848C64.5796 20.2256 64.8616 21.6098 64.8616 23.2248C64.8616 24.8398 64.5796 26.224 64.0157 27.3648C63.4517 28.5055 62.6698 29.3771 61.6765 29.9795C60.6832 30.5755 59.536 30.8767 58.2351 30.8767ZM58.2351 26.9226C58.5555 26.9226 58.8439 26.8136 59.0938 26.5893C59.3438 26.365 59.5424 25.9805 59.6898 25.4422C59.8372 24.8975 59.9077 24.1605 59.9077 23.2248C59.9077 22.2763 59.8372 21.5329 59.6898 21.001C59.5424 20.4627 59.3438 20.0846 59.0938 19.8603C58.8439 19.636 58.5555 19.527 58.2351 19.527C57.9146 19.527 57.6263 19.636 57.3763 19.8603C57.1264 20.0846 56.9277 20.4627 56.7803 21.001C56.6329 21.5393 56.5624 22.2827 56.5624 23.2248C56.5624 24.1605 56.6329 24.8975 56.7803 25.4422C56.9277 25.9869 57.1264 26.3714 57.3763 26.5893C57.6263 26.8136 57.9146 26.9226 58.2351 26.9226ZM67.6045 30.5947L74.8334 20.0077L77.3904 20.0077L70.1615 30.5947L67.6045 30.5947ZM68.617 25.7562C68.0851 25.7562 67.6045 25.6409 67.1815 25.4166C66.7585 25.1923 66.4253 24.8526 66.1754 24.4104C65.9254 23.9682 65.8036 23.4299 65.8036 22.8083C65.8036 22.1866 65.9254 21.6547 66.1754 21.2125C66.4253 20.7767 66.7585 20.4371 67.1815 20.2064C67.6045 19.9756 68.0851 19.8603 68.617 19.8603C69.149 19.8603 69.6296 19.9756 70.0526 20.2064C70.4755 20.4371 70.8088 20.7767 71.0587 21.2125C71.3087 21.6483 71.4304 22.1802 71.4304 22.8083C71.4304 23.4363 71.3087 23.9682 71.0587 24.4104C70.8088 24.8526 70.4755 25.1923 70.0526 25.4166C69.6296 25.6409 69.1489 25.7562 68.617 25.7562ZM68.617 24.122C68.7901 24.122 68.9439 24.0259 69.0785 23.84C69.213 23.6542 69.2835 23.3081 69.2835 22.8018C69.2835 22.2956 69.213 21.9559 69.0785 21.7636C68.9439 21.5778 68.7901 21.4817 68.617 21.4817C68.4568 21.4817 68.303 21.5778 68.162 21.7636C68.021 21.9495 67.9505 22.2956 67.9505 22.8018C67.9505 23.3081 68.021 23.6542 68.162 23.84C68.303 24.0259 68.4568 24.122 68.617 24.122ZM76.3715 30.7421C75.8395 30.7421 75.3589 30.6268 74.9359 30.4025C74.5129 30.1782 74.1797 29.8385 73.9298 29.3963C73.6798 28.9541 73.5581 28.4158 73.5581 27.7942C73.5581 27.1661 73.6798 26.6406 73.9298 26.1984C74.1797 25.7626 74.513 25.423 74.9359 25.1923C75.3589 24.9615 75.8395 24.8462 76.3715 24.8462C76.9034 24.8462 77.384 24.9615 77.807 25.1923C78.2299 25.423 78.5632 25.7626 78.8131 26.1984C79.0631 26.6342 79.1848 27.1661 79.1848 27.7942C79.1848 28.4222 79.0631 28.9541 78.8131 29.3963C78.5632 29.8385 78.2299 30.1782 77.807 30.4025C77.384 30.6268 76.9034 30.7421 76.3715 30.7421ZM76.3715 29.1079C76.5445 29.1079 76.6983 29.0118 76.8329 28.8259C76.9675 28.6401 77.038 28.294 77.038 27.7878C77.038 27.2815 76.9675 26.9418 76.8329 26.7495C76.6983 26.5637 76.5445 26.4676 76.3715 26.4676C76.2112 26.4676 76.0574 26.5637 75.9164 26.7495C75.7755 26.9354 75.705 27.2815 75.705 27.7878C75.705 28.294 75.7755 28.6401 75.9164 28.8259C76.0574 29.0118 76.2112 29.1079 76.3715 29.1079ZM75.9805 51.9995C89.2271 51.9995 99.9744 62.7403 99.9744 75.9933C99.9744 89.2399 89.2335 99.9872 75.9805 99.9872C62.7339 99.9872 51.9867 89.2463 51.9867 75.9933C51.9867 62.7467 62.7275 51.9995 75.9805 51.9995ZM75.9805 55.9985C87.0226 55.9985 95.9754 64.9513 95.9754 75.9933C95.9754 87.0354 87.0226 95.9882 75.9805 95.9882C64.9385 95.9882 55.9857 87.0354 55.9857 75.9933C55.9857 64.9513 64.9385 55.9985 75.9805 55.9985ZM68.303 73.18L73.4235 79.7808L83.7093 65.0859C86.0613 61.7278 91.1369 65.2845 88.7849 68.6427L75.9998 86.8944C74.718 88.7273 72.2315 88.6567 70.8985 86.8944L63.221 76.7303C60.7537 73.4619 65.7908 69.9436 68.303 73.18Z" fill-rule="evenodd" fill="#2B6AB0"/>
</svg>
