<svg width="100.000000" height="100.000000" viewBox="0 0 100 100" fill="none" xmlns="http://www.w3.org/2000/svg" xmlns:xlink="http://www.w3.org/1999/xlink">
	<desc>
			Created with Pixso.
	</desc>
	<defs>
		<clipPath id="clip14_14">
			<rect id="Трекинг" width="100.000000" height="100.000000" fill="white"/>
		</clipPath>
	</defs>
	<g clip-path="url(#clip14_14)">
		<path id="path" d="M63.1928 12.2329C67.3321 12.2329 70.6933 15.5941 70.6933 19.7334C70.6933 23.8727 67.3385 27.2339 63.1928 27.2339C59.0535 27.2339 55.6923 23.8791 55.6923 19.7334C55.6923 15.5941 59.0471 12.2329 63.1928 12.2329ZM63.1928 0C73.5506 0 81.944 8.39977 81.944 18.7576C81.944 29.1154 71.2354 60.0038 63.1928 60.0038C55.1502 60.0038 44.4416 29.1218 44.4416 18.7576C44.4416 8.39977 52.835 0 63.1928 0ZM63.1928 6.60757C70.4382 6.60757 76.3187 12.4817 76.3187 19.7334C76.3187 26.9788 70.4445 32.8592 63.1928 32.8592C55.9474 32.8592 50.067 26.9851 50.067 19.7334C50.067 12.4817 55.9411 6.60757 63.1928 6.60757ZM86.9124 20.0332L100 27.7569L100 100.006L78.3851 87.2568L78.3851 69.845L88.7684 56.7256C88.9088 56.7383 89.0491 56.7447 89.1894 56.7447C91.951 56.7447 94.1897 54.506 94.1897 51.7444C94.1897 48.9827 91.951 46.744 89.1894 46.744C86.4277 46.744 84.1891 48.9827 84.1891 51.7444C84.1891 52.8031 84.5207 53.7853 85.082 54.5953L78.3851 63.6648L78.3851 49.3909C79.1058 47.8283 79.7117 46.3741 80.2092 45.1559C82.99 38.3379 86.5425 27.6676 86.9124 20.0332ZM0 27.7569L21.6085 15.0073L21.6085 35.2892L12.1755 41.8203C11.4165 41.3547 10.5236 41.0932 9.5733 41.0932C6.81168 41.0932 4.573 43.3318 4.573 46.0935C4.573 48.8552 6.81168 51.0938 9.5733 51.0938C12.335 51.0938 14.5736 48.8552 14.5736 46.0935C14.5736 45.9277 14.5673 45.7619 14.5481 45.6024L21.6085 40.7169L21.6085 87.2569L0 100.013L0 27.7569ZM25.6075 15.0073L39.7602 23.0691C40.7296 30.3144 43.7401 39.2117 46.17 45.1623C46.6675 46.3805 47.2798 47.8347 47.9941 49.3973L47.9941 59.838L25.6075 35.3466L25.6075 15.0073ZM47.9941 65.8078L47.9941 100.006L25.6075 87.2568L25.6075 41.3738L47.9941 65.8078ZM74.3861 56.7702L74.3861 65.8397L66.4583 69.3412C65.5845 68.5822 64.4429 68.1293 63.1928 68.1293C62.5168 68.1293 61.8662 68.2633 61.2794 68.5056L51.9995 62.083L51.9995 56.7702C54.9461 61.2603 58.7091 65.0042 63.1928 65.0042C67.6765 65.0042 71.4459 61.2603 74.3861 56.7702ZM74.3861 71.2609L74.3861 87.2568L51.9995 100.006L51.9995 67.5043L58.3456 71.8987C58.2435 72.2878 58.1925 72.7024 58.1925 73.1233C58.1925 75.8849 60.4312 78.1236 63.1928 78.1236C65.642 78.1236 67.6829 76.3633 68.1102 74.0353L74.3861 71.2609Z" fill-rule="evenodd" fill="#2B6AB0"/>
	</g>
</svg>
