<?xml version="1.0" encoding="utf-8"?>
<!-- Generator: Adobe Illustrator 27.2.0, SVG Export Plug-In . SVG Version: 6.00 Build 0)  -->
<svg version="1.1" id="Слой_1" xmlns="http://www.w3.org/2000/svg" xmlns:xlink="http://www.w3.org/1999/xlink" x="0px" y="0px"
	 viewBox="0 0 1920 1920" style="enable-background:new 0 0 1920 1920;" xml:space="preserve">
<style type="text/css">
	.st0{fill-rule:evenodd;clip-rule:evenodd;fill:#FFFFFF;}
	.st1{fill-rule:evenodd;clip-rule:evenodd;fill:url(#SVGID_1_);}
	.st2{fill-rule:evenodd;clip-rule:evenodd;fill:url(#SVGID_00000124859951641835031740000014632389115437387705_);}
	.st3{fill-rule:evenodd;clip-rule:evenodd;fill:url(#SVGID_00000067198563523916315290000011258441606197867680_);}
	.st4{fill-rule:evenodd;clip-rule:evenodd;fill:url(#SVGID_00000052072090524168364390000009448523699136275104_);}
	.st5{fill-rule:evenodd;clip-rule:evenodd;fill:url(#SVGID_00000061452853139175645690000013133501879187654553_);}
	.st6{fill-rule:evenodd;clip-rule:evenodd;fill:url(#SVGID_00000099663685941416185480000012575252306355042477_);}
	.st7{fill-rule:evenodd;clip-rule:evenodd;fill:url(#SVGID_00000057129522109653420840000006497235678113780868_);}
	.st8{fill-rule:evenodd;clip-rule:evenodd;fill:url(#SVGID_00000011014797038132851050000017534314384294122902_);}
	.st9{fill-rule:evenodd;clip-rule:evenodd;fill:url(#SVGID_00000085226469159463275090000012141563709673543574_);}
	.st10{fill-rule:evenodd;clip-rule:evenodd;fill:url(#SVGID_00000109027283424202397760000007659462037281004450_);}
	.st11{fill-rule:evenodd;clip-rule:evenodd;fill:url(#SVGID_00000126315907022976380970000006168082656497018784_);}
	.st12{fill-rule:evenodd;clip-rule:evenodd;fill:url(#SVGID_00000029033473805762306550000011364359363718809501_);}
	.st13{fill-rule:evenodd;clip-rule:evenodd;fill:url(#SVGID_00000052106383073560665950000011054227187172696743_);}
	.st14{fill-rule:evenodd;clip-rule:evenodd;fill:url(#SVGID_00000180365213813407870210000006125643572972058281_);}
	.st15{fill-rule:evenodd;clip-rule:evenodd;fill:url(#SVGID_00000127746758303160138340000015972898164325585586_);}
	.st16{fill-rule:evenodd;clip-rule:evenodd;fill:url(#SVGID_00000090997141342923802420000006743667274620555666_);}
	.st17{fill-rule:evenodd;clip-rule:evenodd;fill:url(#SVGID_00000031892069703380110690000013958690765787819697_);}
	.st18{fill-rule:evenodd;clip-rule:evenodd;fill:url(#SVGID_00000004522910313336509900000013157906766009349767_);}
	.st19{fill-rule:evenodd;clip-rule:evenodd;fill:url(#SVGID_00000143587918508743969320000012767713516640513701_);}
	.st20{fill-rule:evenodd;clip-rule:evenodd;fill:url(#SVGID_00000040570695211789105130000002443350521484935565_);}
	.st21{fill-rule:evenodd;clip-rule:evenodd;fill:url(#SVGID_00000168795807007850681570000012423410184001658270_);}
	.st22{fill-rule:evenodd;clip-rule:evenodd;fill:url(#SVGID_00000083785284867235164560000003246488605093793210_);}
	.st23{fill-rule:evenodd;clip-rule:evenodd;fill:url(#SVGID_00000069356866966910805520000018071410658264581554_);}
	.st24{fill-rule:evenodd;clip-rule:evenodd;fill:url(#SVGID_00000032614232918916026510000017738595099529209006_);}
	.st25{fill-rule:evenodd;clip-rule:evenodd;fill:url(#SVGID_00000064315976724541071140000013739069154495423361_);}
	.st26{fill-rule:evenodd;clip-rule:evenodd;fill:url(#SVGID_00000103252492794232787690000008276269856593374605_);}
	.st27{fill-rule:evenodd;clip-rule:evenodd;fill:url(#SVGID_00000082334638799440770170000004620837872350545804_);}
	.st28{fill-rule:evenodd;clip-rule:evenodd;fill:url(#SVGID_00000044136207646414650240000006563463519206942874_);}
	.st29{fill-rule:evenodd;clip-rule:evenodd;fill:url(#SVGID_00000125594691061061998790000005666161843277935801_);}
	.st30{fill-rule:evenodd;clip-rule:evenodd;fill:url(#SVGID_00000080911197304336783190000005644740614260318614_);}
	.st31{fill-rule:evenodd;clip-rule:evenodd;fill:url(#SVGID_00000150794446339647430560000014341769408323562662_);}
	.st32{fill:#3FA9F5;}
	.st33{fill:url(#SVGID_00000013877804370208427910000003254961485993316992_);}
	.st34{fill:url(#SVGID_00000173142809146839773830000016252237299355956384_);}
	.st35{fill:url(#SVGID_00000086674734045533164380000008613024531098479028_);}
	.st36{fill:url(#SVGID_00000146463341442756972130000003130455803650324610_);}
	.st37{fill:url(#SVGID_00000040556072573550492420000007829639940479108488_);}
	.st38{fill:url(#SVGID_00000085947157128270206470000002405905502483177611_);}
	.st39{fill:url(#SVGID_00000001624953840742942590000005775940205633948819_);}
	.st40{fill:url(#SVGID_00000090986804354344925960000009968513779567214227_);}
	.st41{fill:url(#SVGID_00000142875808155051138810000004378533773781580202_);}
	.st42{fill-rule:evenodd;clip-rule:evenodd;fill:url(#SVGID_00000180327409713064308050000011278187580662827689_);}
	.st43{fill-rule:evenodd;clip-rule:evenodd;fill:url(#SVGID_00000022521885225515862550000001404384053354168217_);}
	.st44{fill-rule:evenodd;clip-rule:evenodd;fill:url(#SVGID_00000094585856830500054880000013669040520714839229_);}
	.st45{fill-rule:evenodd;clip-rule:evenodd;fill:url(#SVGID_00000121246362076641594910000000456715984371022721_);}
	.st46{fill-rule:evenodd;clip-rule:evenodd;fill:url(#SVGID_00000098218741404072842440000008357720948950168485_);}
	.st47{fill-rule:evenodd;clip-rule:evenodd;fill:url(#SVGID_00000156577434446136329740000001011203910062024383_);}
	.st48{fill-rule:evenodd;clip-rule:evenodd;fill:url(#SVGID_00000142153140510608962330000001017266527855763350_);}
	.st49{fill-rule:evenodd;clip-rule:evenodd;fill:url(#SVGID_00000013164392773913141310000003055721700327311259_);}
	.st50{fill-rule:evenodd;clip-rule:evenodd;fill:url(#SVGID_00000042714355849824079880000014732996638833431695_);}
	.st51{fill-rule:evenodd;clip-rule:evenodd;fill:url(#SVGID_00000171693448333902251030000001476351234639791026_);}
	.st52{fill-rule:evenodd;clip-rule:evenodd;fill:url(#SVGID_00000132767305760827149810000003300729447964638393_);}
	.st53{fill-rule:evenodd;clip-rule:evenodd;fill:url(#SVGID_00000118360966417611080030000009809689669283981984_);}
	.st54{fill-rule:evenodd;clip-rule:evenodd;fill:url(#SVGID_00000059294514566614021140000015880981733088253626_);}
</style>
<g>
	<linearGradient id="SVGID_1_" gradientUnits="userSpaceOnUse" x1="265.2401" y1="214.7025" x2="265.2401" y2="708.5974">
		<stop  offset="0" style="stop-color:#FFFFFF"/>
		<stop  offset="1" style="stop-color:#3FA9F5"/>
	</linearGradient>
	<path class="st1" d="M253.24,762.98c-18.76,64.82-28.78,133.41-28.78,204.33c0,33,2.19,65.53,6.41,97.41h75.14
		c-15.81-18.86-26.18-42.61-29.59-68.13l-13.88-7.93c-7.17-4.07-11.9-11.39-12.71-19.57c0,0-1.27-13.17-2.8-32.54
		c-1.17-15.96,3.86-25.93,9.46-32.95c-0.1-0.36-0.25-0.71-0.36-1.12l-1.27-7.07c-0.15-0.81-0.2-1.58-0.31-2.39l-1.47-8.95
		c-0.25-1.53-0.35-3-0.35-4.52c-0.51-1.42-0.87-2.9-1.12-4.42l-2.74-16.52c-2.19-12.86,2.13-21.66,7.52-27.66L253.24,762.98z"/>
	<g>
		
			<linearGradient id="SVGID_00000172413966029398379920000004742711463051045782_" gradientUnits="userSpaceOnUse" x1="930.8822" y1="1517.6195" x2="930.8822" y2="1702.7212">
			<stop  offset="0" style="stop-color:#FFFFFF"/>
			<stop  offset="1" style="stop-color:#3FA9F5"/>
		</linearGradient>
		<path style="fill-rule:evenodd;clip-rule:evenodd;fill:url(#SVGID_00000172413966029398379920000004742711463051045782_);" d="
			M784.59,1681.79c56.23,13.78,114.95,21.05,175.4,21.05c39.86,0,79.06-3.15,117.19-9.25c-23.54-0.71-53.59-3.81-91.87-10.83
			C883.02,1663.99,816.46,1673.75,784.59,1681.79z"/>
		
			<linearGradient id="SVGID_00000041277483734337993740000013008314040034147473_" gradientUnits="userSpaceOnUse" x1="959.9888" y1="1517.601" x2="959.9888" y2="1702.7025">
			<stop  offset="0" style="stop-color:#FFFFFF"/>
			<stop  offset="1" style="stop-color:#3FA9F5"/>
		</linearGradient>
		<path style="fill-rule:evenodd;clip-rule:evenodd;fill:url(#SVGID_00000041277483734337993740000013008314040034147473_);" d="
			M1311.1,1518.53c23.49,3.71,48.45,6.51,76.31,5.69c-63.04,36.15-172.4-12.2-270.73,1.68c5.9-2.8,11.64-5.24,17.34-7.37h-58.16
			c3.56,0.71,5.49,1.32,5.49,1.32s-7.78,1.47-60.7,9.86c-41.89,6.86-80.33-5.64-94.57-11.19h-453
			c50.49,44.69,107.17,82.52,168.64,111.95c13.57,0.1,27.81,0.51,42.45,1.32c81.3,4.68,99.19,6.91,99.19,6.91
			s-26.03,18.35-92.94,13.12c28.47,11.24,57.86,20.74,87.96,28.42c24.15-10.68,77.69-26.44,172.5-18.05
			c114.8,9.91,182.93,13.93,202.25,15c110.43-30,210.48-85.06,293.76-158.68H1311.1z M791.76,1604.61
			c-45.71-0.56-67.98-10.73-67.98-10.73s61.92,2.34,89.69,0c27.81-2.24,49.52,6.97,49.52,6.97S837.51,1605.52,791.76,1604.61z
			 M798.16,1564.39c-85.36,13.93-156.54-14.69-156.54-14.69s52.67,1.68,130.26-4.68c77.08-6.05,97.97-6.91,147.54,23.39
			C916.27,1566.98,879.35,1551.17,798.16,1564.39z M1018.61,1630.33c-38.79-10.93-66.3-15.3-66.3-15.3s43.16-1.68,82.77,4.37
			c39.35,5.8,62.48,4.02,62.48,4.02S1057.35,1641.62,1018.61,1630.33z M1147.03,1594.8c-91.31-31.22-173.88,2.8-180.89,5.8
			c6.86-5.14,85.46-61.21,179.17-34.11c97.77,28.32,191.52,24.86,191.52,24.86S1242.26,1627.54,1147.03,1594.8z"/>
	</g>
	<g>
		
			<linearGradient id="SVGID_00000139262057184891454210000014756991129796663440_" gradientUnits="userSpaceOnUse" x1="1427.1213" y1="220.1256" x2="1427.1213" y2="639.3754">
			<stop  offset="0" style="stop-color:#FFFFFF"/>
			<stop  offset="0.1094" style="stop-color:#EAF6FE"/>
			<stop  offset="1" style="stop-color:#3FA9F5"/>
		</linearGradient>
		<path style="fill-rule:evenodd;clip-rule:evenodd;fill:url(#SVGID_00000139262057184891454210000014756991129796663440_);" d="
			M1382.99,557.53l39.15,96.34l-14.74,20.95c0,0,39.86,39,37.32,44.23c-2.64,5.39,5.29,43.62,5.29,43.62l-20.18,11.08l-44.94-3.1
			l-13.32,8.49l42.3,58.87l20.08,15.61c4.68-19.78,9.51-38.89,13.93-56.03c10.12-38.33,21.35-79.06,34.83-118.92l-5.85-15.71
			L1382.99,557.53z"/>
		
			<linearGradient id="SVGID_00000169552734029282741330000014836389404343399326_" gradientUnits="userSpaceOnUse" x1="969.0642" y1="220.1256" x2="969.0642" y2="639.3754">
			<stop  offset="0" style="stop-color:#FFFFFF"/>
			<stop  offset="0.1094" style="stop-color:#EAF6FE"/>
			<stop  offset="1" style="stop-color:#3FA9F5"/>
		</linearGradient>
		<path style="fill-rule:evenodd;clip-rule:evenodd;fill:url(#SVGID_00000169552734029282741330000014836389404343399326_);" d="
			M1480.4,440.24l-353.25-52.16h295.39c-126.34-102.29-287.31-163.61-462.56-163.61c-107.22,0-209.21,22.93-301.08,64.26l17.39-4.88
			h199.3l-286.7,40.98c-71.03,41.54-134.48,94.67-187.71,156.85c73.97-10.98,137.37-19.62,212.01-29.03l7.83-1.02
			c24.56-3.2,42.5-5.54,64.62,6.61l50.23,19.57c0.61,0.25,1.22,0.56,1.88,0.86l84.7,41.23c3.46,1.68,6.71,3.66,9.66,5.9h198.59
			l-178.86,25.57c3.25,8.08,4.78,16.98,4.22,26.08l-7.58,125.53l201.23-152.07l46.32,63.2c0,0,55.06,0.15,63.15,6.91
			c2.54,2.08,10.32,9.2,19.32,17.49l-12.61,13.52c-11.39-8.03-23.08-15.96-25.52-16.73c-3.66-0.76-40.42-5.39-61.11-7.83
			l-31.67-44.03l10.47,83.02l-34.27-8.19l24.96,41.28l-6.4,20.39l-43.42,19.27l18.86,53.54l-55.87-46.88l-27,15.15l34.57,44.23
			h53.38c75.65-75.19,224.67-223.04,233.26-230.36c11.64-9.71,40.32,11.59,40.32,11.59l66.86-74.28l120.09,124.31V529.11
			c0-14.03,11.39-25.42,25.42-25.42h28.11C1519.3,481.47,1500.43,460.27,1480.4,440.24z"/>
	</g>
	
		<linearGradient id="SVGID_00000075123717493363718550000001868408293782862997_" gradientUnits="userSpaceOnUse" x1="1483.5807" y1="11.3364" x2="1483.5807" y2="1839.8926">
		<stop  offset="0" style="stop-color:#333333"/>
		<stop  offset="1" style="stop-color:#000000"/>
	</linearGradient>
	<path style="fill-rule:evenodd;clip-rule:evenodd;fill:url(#SVGID_00000075123717493363718550000001868408293782862997_);" d="
		M1611.57,529.13c24.96,37.67,46.77,77.69,64.97,119.58c18,41.39,32.54,84.7,43.22,129.44c12.51,52.32,19.73,106.67,21.05,162.44
		h0.05c0.1,6.46,0.2,12.91,0.2,19.42c0,2.34-0.1,4.73-0.1,7.07h171.23l-123.49-100.31c-0.41-3.46-0.81-6.91-1.27-10.32v-0.05
		c-10.52-84.55-33.76-165.23-67.67-239.97c-12.86-28.47-27.35-56.08-43.22-82.72c-0.91-1.53-1.83-3.05-2.8-4.58
		c-130.61-215.82-356.15-367.74-618.79-397.83v53.43C1287.36,212.89,1488.23,343.05,1611.57,529.13z"/>
	
		<linearGradient id="SVGID_00000152959147328152018660000010646459972555647671_" gradientUnits="userSpaceOnUse" x1="547.0673" y1="11.3364" x2="547.0673" y2="1839.8926">
		<stop  offset="0" style="stop-color:#333333"/>
		<stop  offset="1" style="stop-color:#000000"/>
	</linearGradient>
	<path style="fill-rule:evenodd;clip-rule:evenodd;fill:url(#SVGID_00000152959147328152018660000010646459972555647671_);" d="
		M960,178.94c1.67,0,3.33,0.04,5.02,0.05V0L864.1,131.11C479,174.56,173.31,479.84,129.12,864.65h55.62
		C231.76,478.26,560.91,178.94,960,178.94z"/>
	
		<linearGradient id="SVGID_00000111901174037898905530000015733582276163750309_" gradientUnits="userSpaceOnUse" x1="898.1697" y1="11.3364" x2="898.1697" y2="1839.8926">
		<stop  offset="0" style="stop-color:#333333"/>
		<stop  offset="1" style="stop-color:#000000"/>
	</linearGradient>
	<path style="fill-rule:evenodd;clip-rule:evenodd;fill:url(#SVGID_00000111901174037898905530000015733582276163750309_);" d="
		M1730.35,1089.4H189.62c-7.02-42.09-10.68-85.32-10.68-129.4c0-1.71,0.05-3.41,0.05-5.11H7.8l121.09,100.57
		c43.4,385.33,348.89,691.23,733.97,735.25v-55.64c-194.98-24.18-367.66-120.23-490.74-260.81h1175.73
		c-143.16,163.53-353.44,266.81-587.86,266.81c-2.4,0-4.78-0.07-7.17-0.08V1920l100.29-129.11
		c385.54-43.34,691.59-349.11,735.42-734.47h-53.4C1733.78,1067.49,1732.17,1078.48,1730.35,1089.4z"/>
	<g>
		<path class="st32" d="M465.7,1261.55h-56.94v-38.06c0-11.06-0.61-17.97-1.83-20.72c-1.22-2.74-3.9-4.12-8.05-4.12
			c-4.69,0-7.67,1.67-8.93,5c-1.26,3.34-1.89,10.55-1.89,21.64v101.72c0,10.64,0.63,17.58,1.89,20.83c1.26,3.25,4.1,4.87,8.52,4.87
			c4.24,0,7.01-1.63,8.32-4.88c1.31-3.25,1.96-10.89,1.96-22.91v-27.52h56.94v8.53c0,22.67-1.6,38.74-4.8,48.22
			c-3.2,9.48-10.28,17.79-21.24,24.93c-10.96,7.13-24.46,10.7-40.51,10.7c-16.68,0-30.43-3.02-41.25-9.06
			c-10.82-6.04-17.99-14.4-21.51-25.09c-3.52-10.68-5.27-26.76-5.27-48.22v-63.98c0-15.78,0.54-27.61,1.62-35.51
			c1.08-7.89,4.31-15.49,9.67-22.79c5.36-7.31,12.8-13.05,22.31-17.25c9.51-4.19,20.45-6.29,32.8-6.29
			c16.77,0,30.61,3.24,41.53,9.73c10.91,6.48,18.08,14.57,21.5,24.25c3.43,9.68,5.14,24.74,5.14,45.18V1261.55z"/>
		<path class="st32" d="M617.19,1385.17h-57.08v-175.29h-16.91v175.29h-57.08v-219.12h131.06V1385.17z"/>
		<path class="st32" d="M639.91,1166.19h94.95v43.82h-38.01v41.53h35.58v41.66h-35.58v48.15h41.79v43.82h-98.74V1166.19z"/>
		<path class="st32" d="M897.72,1422.91h-39.36v-37.73H755.02v-219.12h57.08v175.29h16.91v-175.29h57.08v175.29h11.63V1422.91z"/>
		<path class="st32" d="M1027.56,1166.19v43.82h-33.81v175.16h-56.94v-175.16h-33.68v-43.82H1027.56z"/>
		<path class="st32" d="M1040.54,1166.19h57.35c15.51,0,27.44,1.22,35.77,3.65c8.34,2.43,14.61,5.95,18.81,10.55
			c4.19,4.6,7.03,10.17,8.52,16.7c1.49,6.54,2.23,16.66,2.23,30.36v19.07c0,13.98-1.44,24.17-4.33,30.57
			c-2.89,6.4-8.18,11.32-15.9,14.74c-7.71,3.43-17.78,5.14-30.23,5.14h-15.29v88.19h-56.94V1166.19z M1097.49,1203.66v55.73
			c1.63,0.09,3.02,0.13,4.19,0.13c5.23,0,8.86-1.28,10.89-3.85c2.03-2.57,3.04-7.91,3.04-16.03v-17.99c0-7.48-1.18-12.35-3.52-14.61
			C1109.75,1204.79,1104.88,1203.66,1097.49,1203.66z"/>
		<path class="st32" d="M1278.02,1166.19l32.56,218.98h-58.2l-3.05-39.36h-20.37l-3.43,39.36h-58.87l29.05-218.98H1278.02z
			 M1247.85,1306.99c-2.88-24.8-5.77-55.46-8.67-91.97c-5.8,41.93-9.45,72.59-10.93,91.97H1247.85z"/>
		<path class="st32" d="M1451.19,1166.19v218.98h-56.94v-91.98h-17.05v91.98h-56.94v-218.98h56.94v78.31h17.05v-78.31H1451.19z"/>
		<path class="st32" d="M1607,1261.55h-56.94v-38.06c0-11.06-0.61-17.97-1.83-20.72c-1.22-2.74-3.9-4.12-8.05-4.12
			c-4.69,0-7.67,1.67-8.93,5c-1.26,3.34-1.89,10.55-1.89,21.64v101.72c0,10.64,0.63,17.58,1.89,20.83c1.26,3.25,4.1,4.87,8.52,4.87
			c4.24,0,7.01-1.63,8.32-4.88c1.31-3.25,1.96-10.89,1.96-22.91v-27.52H1607v8.53c0,22.67-1.6,38.74-4.8,48.22
			c-3.2,9.48-10.28,17.79-21.24,24.93c-10.96,7.13-24.46,10.7-40.51,10.7c-16.68,0-30.43-3.02-41.25-9.06
			c-10.82-6.04-17.99-14.4-21.51-25.09c-3.52-10.68-5.27-26.76-5.27-48.22v-63.98c0-15.78,0.54-27.61,1.62-35.51
			c1.08-7.89,4.31-15.49,9.67-22.79c5.36-7.31,12.8-13.05,22.31-17.25c9.51-4.19,20.45-6.29,32.8-6.29
			c16.77,0,30.61,3.24,41.53,9.73c10.91,6.48,18.08,14.57,21.5,24.25c3.43,9.68,5.14,24.74,5.14,45.18V1261.55z"/>
	</g>
	<g>
		
			<linearGradient id="SVGID_00000124883626704078666840000002416089228385983663_" gradientUnits="userSpaceOnUse" x1="398.3943" y1="1166.4556" x2="398.3943" y2="1279.365">
			<stop  offset="0" style="stop-color:#FFFFFF"/>
			<stop  offset="1" style="stop-color:#3FA9F5"/>
		</linearGradient>
		<path style="fill:url(#SVGID_00000124883626704078666840000002416089228385983663_);" d="M460.55,1195.59
			c-3.41-9.71-10.57-17.79-21.51-24.25c-10.88-6.51-24.71-9.76-41.49-9.76c-12.35,0-23.29,2.14-32.84,6.3
			c-9.51,4.22-16.93,9.97-22.27,17.24c-5.39,7.32-8.59,14.9-9.71,22.83c-1.07,7.88-1.63,19.73-1.63,35.49v32.18h56.94v-50.33
			c0-11.08,0.66-18.3,1.93-21.61c1.22-3.36,4.22-5.03,8.9-5.03c4.17,0,6.86,1.37,8.08,4.12c1.17,2.75,1.78,9.66,1.78,20.74v38.03
			h56.94v-20.79C465.68,1220.3,464.01,1205.25,460.55,1195.59z"/>
		
			<linearGradient id="SVGID_00000081634546432617294670000014034966204546302880_" gradientUnits="userSpaceOnUse" x1="551.6555" y1="1166.4556" x2="551.6555" y2="1279.365">
			<stop  offset="0" style="stop-color:#FFFFFF"/>
			<stop  offset="1" style="stop-color:#3FA9F5"/>
		</linearGradient>
		<path style="fill:url(#SVGID_00000081634546432617294670000014034966204546302880_);" d="M486.12,1166.05v109.56h57.1v-65.74
			h16.88v65.74h57.09v-109.56H486.12z"/>
		
			<linearGradient id="SVGID_00000121241132169314149070000004581994449633142182_" gradientUnits="userSpaceOnUse" x1="687.4027" y1="1166.4556" x2="687.4027" y2="1279.365">
			<stop  offset="0" style="stop-color:#FFFFFF"/>
			<stop  offset="1" style="stop-color:#3FA9F5"/>
		</linearGradient>
		<path style="fill:url(#SVGID_00000121241132169314149070000004581994449633142182_);" d="M734.89,1210.03v-43.83h-94.97v109.41
			h92.53v-24.05h-35.59v-41.54H734.89z"/>
		
			<linearGradient id="SVGID_00000072984761245497308490000012581475337269847695_" gradientUnits="userSpaceOnUse" x1="820.557" y1="1166.4556" x2="820.557" y2="1279.365">
			<stop  offset="0" style="stop-color:#FFFFFF"/>
			<stop  offset="1" style="stop-color:#3FA9F5"/>
		</linearGradient>
		<path style="fill:url(#SVGID_00000072984761245497308490000012581475337269847695_);" d="M755.02,1166.05v109.56h57.09v-109.56
			H755.02z M829,1166.05v109.56h57.09v-109.56H829z"/>
		
			<linearGradient id="SVGID_00000126325928357116050950000005512651728071631236_" gradientUnits="userSpaceOnUse" x1="965.3529" y1="1166.4556" x2="965.3529" y2="1279.365">
			<stop  offset="0" style="stop-color:#FFFFFF"/>
			<stop  offset="1" style="stop-color:#3FA9F5"/>
		</linearGradient>
		<path style="fill:url(#SVGID_00000126325928357116050950000005512651728071631236_);" d="M903.12,1166.2v43.83h33.71v65.59h56.94
			v-65.59h33.81v-43.83H903.12z"/>
		
			<linearGradient id="SVGID_00000083783618112908431030000007249711807227641007_" gradientUnits="userSpaceOnUse" x1="1101.8883" y1="1166.4556" x2="1101.8883" y2="1279.365">
			<stop  offset="0" style="stop-color:#FFFFFF"/>
			<stop  offset="1" style="stop-color:#3FA9F5"/>
		</linearGradient>
		<path style="fill:url(#SVGID_00000083783618112908431030000007249711807227641007_);" d="M1160.99,1197.11
			c-1.47-6.56-4.32-12.1-8.54-16.73c-4.17-4.58-10.42-8.08-18.76-10.52c-8.34-2.44-20.29-3.66-35.79-3.66h-57.35v109.41h118.92
			c2.54-6.46,3.76-16.12,3.76-29.08v-19.07C1163.23,1213.74,1162.47,1203.62,1160.99,1197.11z M1115.64,1239.62
			c0,8.13-1.02,13.47-3.05,16.07c-2.03,2.54-5.69,3.81-10.93,3.81c-1.17,0-2.54,0-4.17-0.1v-55.72c7.37,0,12.25,1.12,14.59,3.36
			c2.34,2.29,3.56,7.12,3.56,14.64V1239.62z"/>
		
			<linearGradient id="SVGID_00000053538025098822652540000004396697881762349739_" gradientUnits="userSpaceOnUse" x1="1237.7621" y1="1166.4556" x2="1237.7621" y2="1279.365">
			<stop  offset="0" style="stop-color:#FFFFFF"/>
			<stop  offset="1" style="stop-color:#3FA9F5"/>
		</linearGradient>
		<path style="fill:url(#SVGID_00000053538025098822652540000004396697881762349739_);" d="M1278.03,1166.2h-82.31l-14.49,109.41
			h50.18c1.88-16.57,4.47-36.76,7.78-60.6c1.78,22.42,3.56,42.61,5.34,60.6h49.77L1278.03,1166.2z"/>
		
			<linearGradient id="SVGID_00000099638849029602438090000002915163383233889449_" gradientUnits="userSpaceOnUse" x1="1385.7362" y1="1166.4556" x2="1385.7362" y2="1279.365">
			<stop  offset="0" style="stop-color:#FFFFFF"/>
			<stop  offset="1" style="stop-color:#3FA9F5"/>
		</linearGradient>
		<path style="fill:url(#SVGID_00000099638849029602438090000002915163383233889449_);" d="M1394.25,1166.2v78.3h-17.03v-78.3
			h-56.94v109.41h130.92V1166.2H1394.25z"/>
		
			<linearGradient id="SVGID_00000145023651299354417530000003370778354442036920_" gradientUnits="userSpaceOnUse" x1="1539.7347" y1="1166.4556" x2="1539.7347" y2="1279.365">
			<stop  offset="0" style="stop-color:#FFFFFF"/>
			<stop  offset="1" style="stop-color:#3FA9F5"/>
		</linearGradient>
		<path style="fill:url(#SVGID_00000145023651299354417530000003370778354442036920_);" d="M1601.89,1195.59
			c-3.46-9.71-10.63-17.79-21.51-24.25c-10.93-6.51-24.76-9.76-41.54-9.76c-12.35,0-23.28,2.14-32.79,6.3
			c-9.56,4.22-16.98,9.97-22.32,17.24c-5.39,7.32-8.59,14.9-9.71,22.83c-1.07,7.88-1.58,19.73-1.58,35.49v32.18h56.94v-50.33
			c0-11.08,0.61-18.3,1.88-21.61c1.27-3.36,4.22-5.03,8.9-5.03c4.17,0,6.86,1.37,8.08,4.12c1.22,2.75,1.83,9.66,1.83,20.74v38.03
			h56.94v-20.79C1607.02,1220.3,1605.3,1205.25,1601.89,1195.59z"/>
	</g>
	<g>
		
			<linearGradient id="SVGID_00000049193879602276152410000006312049576068175789_" gradientUnits="userSpaceOnUse" x1="280.5056" y1="485.1793" x2="280.5056" y2="1054.6079">
			<stop  offset="0" style="stop-color:#333333"/>
			<stop  offset="1" style="stop-color:#000000"/>
		</linearGradient>
		
			<polygon style="fill-rule:evenodd;clip-rule:evenodd;fill:url(#SVGID_00000049193879602276152410000006312049576068175789_);" points="
			281.16,897.88 279.99,890.85 279.85,890.77 		"/>
		
			<linearGradient id="SVGID_00000090294599816220461140000012056126255726499502_" gradientUnits="userSpaceOnUse" x1="448.0761" y1="485.1793" x2="448.0761" y2="1054.6079">
			<stop  offset="0" style="stop-color:#333333"/>
			<stop  offset="1" style="stop-color:#000000"/>
		</linearGradient>
		<path style="fill-rule:evenodd;clip-rule:evenodd;fill:url(#SVGID_00000090294599816220461140000012056126255726499502_);" d="
			M593.12,579.19c-14.64,0.71-24.56,4.68-25.06,13.02c3.91,0.2,8.8,0.97,12.61,2.39c8.69,3.2,5.34,11.8,3.86,22.93
			c-1.68,12.41-4.12,31.01-7.42,55.67c-3.2,23.64-24.2,17.59-27.96,3.25c0,0-0.05-26.03-0.2-78.14
			c2.08-20.39,16.47-31.42,43.11-33.35l18.25-0.2c-2.24-10.83-9.81-17.54-29.23-13.98c-104.28,12-151.51,17.18-218.31,28.93
			c-10.12,1.37-18.56,3.46-25.37,6.51c-4.12,1.83-7.68,4.02-10.58,6.56c-2.39,2.08-4.42,4.42-6,7.07l-2.08,0.05
			c-2.75,4.83-5.39,9.66-7.98,14.54h4.63l-28.98,85.31c-1.17,3.25-1.37,6.25-0.76,9c9.96,44.69,241.5,15.3,287.76-4.63
			c27.15-8.59,28.06-14.49,31.62-56.99c2.08-25.42,3.81-45.91,5.13-61.62c0.25-2.19,0.51-4.27,0.71-6.36L593.12,579.19z
			 M304.13,704.31v-0.05l88.67-111.04c6.97-1.12,13.93-2.19,20.9-3.25l-95.23,119.27C312.42,707.97,306.98,706.34,304.13,704.31z
			 M378.21,713.92c-11.13,0.05-22.22-0.15-33-0.97c-2.39-0.15-6.71-0.56-11.8-1.22l99.4-124.51c17.29-2.44,34.62-4.68,51.91-6.81
			L378.21,713.92z"/>
		
			<linearGradient id="SVGID_00000173157990823636367220000013674635261933929132_" gradientUnits="userSpaceOnUse" x1="652.5255" y1="485.1793" x2="652.5255" y2="1054.6079">
			<stop  offset="0" style="stop-color:#333333"/>
			<stop  offset="1" style="stop-color:#000000"/>
		</linearGradient>
		<path style="fill-rule:evenodd;clip-rule:evenodd;fill:url(#SVGID_00000173157990823636367220000013674635261933929132_);" d="
			M797.96,799.02l-136.51-9.05c-19.12-2.14-25.73-3.66-24.1-37.17c2.9-57.76,5.08-115.36,4.88-172
			c-12.66,62.94-20.54,170.12-25.27,234.68c-4.27,13.12-10.47,15.1-28.12,18.56l-73.01,15.61c-10.07,2.14-13.98,5.49-13.98,20.59
			v37.47l21.91,0.92c36.55,1.58,69.7-4.12,105.6-8.74c0.05-17.54,0.71-35.49,3.71-45.2c9.1-29.03,32.69-51.3,67.62-50.89l102.5-0.31
			L797.96,799.02z M609.08,884.79c-48.1,1.98-72.14,3-72.14,3c36-8.49,60.04-14.59,72.14-18.3
			C609.08,879.66,609.08,884.79,609.08,884.79z"/>
		
			<linearGradient id="SVGID_00000067230380919841895040000004300938457172570505_" gradientUnits="userSpaceOnUse" x1="309.8842" y1="485.1793" x2="309.8842" y2="1054.6079">
			<stop  offset="0" style="stop-color:#333333"/>
			<stop  offset="1" style="stop-color:#000000"/>
		</linearGradient>
		<path style="fill-rule:evenodd;clip-rule:evenodd;fill:url(#SVGID_00000067230380919841895040000004300938457172570505_);" d="
			M295.75,899.37l50.3,2.04l-1.9-32.89c-0.1-9.61-2.3-14.91-12.83-17.34l-28.39-6.09c-6.39-1.19-7.31-2.72-8.32-11.2
			c-3.53-31.37-8.33-76.26-8.64-93.29c-0.27,0.37-0.55,0.76-0.85,1.17c-3,4.16-6.93,10.09-6.64,16.42l3.92,84.55
			c-6.77,4.17-9.49,5.62-8.48,11.7l2.75,16.49c4.43,1.13,9.27,2.32,14.49,3.61c8.84,2.16,18.81,4.55,29.94,7.18l-29.68-1.25
			l-13.26-0.56l1.82,10.92l4.53,2.45L295.75,899.37z"/>
		
			<linearGradient id="SVGID_00000077300145357238577070000007661697778458216606_" gradientUnits="userSpaceOnUse" x1="586.2751" y1="485.1793" x2="586.2751" y2="1054.6079">
			<stop  offset="0" style="stop-color:#333333"/>
			<stop  offset="1" style="stop-color:#000000"/>
		</linearGradient>
		<path style="fill-rule:evenodd;clip-rule:evenodd;fill:url(#SVGID_00000077300145357238577070000007661697778458216606_);" d="
			M389.03,530.09l13.94-1.84c-5.26,6.78-9.62,15.99-13.12,27.62c-13.27,3.59-23.11,7.41-27.75,11.35
			c162.62-23.26,243.94-34.89,243.94-34.89c-16.59-0.88-42.88,0.06-72.26,2.35c1.21-7.69,2.74-15.81,4.6-24.38l98.83-13.1
			c-2,9.66-4.96,33.51-1.58,60.2c5.97-26,10.97-49.15,14.99-57.02c34.26,13.16,62.05,24.02,83.46,32.47
			c10.48,4.14,19.43,7.71,26.86,10.68c9.64,4.61,19.95,9.47,30.96,14.62c14.38,6.72,24.3,14.24,25.62,48.2v195.05l13.18-218.18
			c0.84-13.96-6.81-27.05-19.38-33.16l-84.72-41.23l-51.9-20.26c-17.11-9.93-29.45-7.02-58.33-3.39
			c-71.32,8.97-135.61,17.72-211.97,29.06c-37.66,5.6-55.06,26.16-61.49,60.88c-0.43,2.36-0.82,4.78-1.16,7.27
			C350.71,556.19,366.46,538.76,389.03,530.09z"/>
		
			<linearGradient id="SVGID_00000047052584723844823890000012496141714162919840_" gradientUnits="userSpaceOnUse" x1="436.3693" y1="485.1793" x2="436.3693" y2="1054.6079">
			<stop  offset="0" style="stop-color:#333333"/>
			<stop  offset="1" style="stop-color:#000000"/>
		</linearGradient>
		<path style="fill-rule:evenodd;clip-rule:evenodd;fill:url(#SVGID_00000047052584723844823890000012496141714162919840_);" d="
			M558.39,740.76c-82.26,8.8-169.66,11.69-237.63,10.78c-12.86-0.15-17.74,2.24-17.13,9.71l2.95,41.13
			c0.25,14.59,6.25,20.84,22.01,20.64c97.62-0.81,163.96-1.37,198.89-1.63c16.93-0.36,31.42-6.36,32.95-22.68l8.03-47.99
			C569.43,746.4,571.36,739.03,558.39,740.76z M540.24,800.04c-67.41,3.76-143.93,4.83-230.01,5.39c4.58-4.47,4.12-5.34,12.3-5.39
			c124.46-0.97,205.14-4.58,234.94-8.29C550.87,799.33,551.02,799.38,540.24,800.04z M542.68,784.84
			c-68.03,4.07-145.15,5.49-232.04,6.41c4.52-4.52,4.12-5.34,12.35-5.44c125.58-1.58,206.98-5.59,237.02-9.41
			C553.41,784.03,553.51,784.08,542.68,784.84z M542.73,770.71c-68.18,4.22-145.56,5.9-232.7,6.97c4.52-4.52,4.07-5.34,12.35-5.44
			c125.99-1.88,207.64-6.05,237.73-10.02C553.51,769.89,553.61,769.89,542.73,770.71z"/>
		
			<linearGradient id="SVGID_00000128459947341396981760000010408979982756066951_" gradientUnits="userSpaceOnUse" x1="723.093" y1="485.1793" x2="723.093" y2="1054.6079">
			<stop  offset="0" style="stop-color:#333333"/>
			<stop  offset="1" style="stop-color:#000000"/>
		</linearGradient>
		<path style="fill-rule:evenodd;clip-rule:evenodd;fill:url(#SVGID_00000128459947341396981760000010408979982756066951_);" d="
			M771.88,592.35l-21.91-8.34l-66.35-25.37c-21.56-9.35-23.44-0.66-23.44,14.95v85.06c0.41,13.37,2.59,20.13,19.47,20.74l88.57,8.54
			l5.95,93.45h6.76l2.69-89.07l2.39-77.13C785.75,599.98,782.5,597.69,771.88,592.35z M681.43,664.85l35.74-77.74l13.63,5.19
			l-33.96,74.08L681.43,664.85z M710.51,667.7l-7.68-0.76l33.3-72.55l6.81,2.59L710.51,667.7z"/>
		
			<linearGradient id="SVGID_00000181778895601148934120000012242649074930148277_" gradientUnits="userSpaceOnUse" x1="1657.9775" y1="485.1793" x2="1657.9775" y2="1054.6079">
			<stop  offset="0" style="stop-color:#333333"/>
			<stop  offset="1" style="stop-color:#000000"/>
		</linearGradient>
		<path style="fill-rule:evenodd;clip-rule:evenodd;fill:url(#SVGID_00000181778895601148934120000012242649074930148277_);" d="
			M1664.79,962.56c-2.78-5.05-6.37-8.08-10.26-8.03c-2.95,0.04-5.69,1.85-8.01,4.97c1.58,0.62,3.07,1.66,4.44,3.06
			c2.33,2.38,4.29,5.79,5.69,9.87c1.4,4.09,2.24,8.87,2.3,13.97c0.17,14.29-5.72,26.12-13.47,27.75c2.74,4.66,6.18,7.42,9.89,7.39
			c8.58-0.11,15.35-15.19,15.12-33.7c-0.07-5.57-0.77-10.81-1.94-15.41C1667.59,968.66,1666.31,965.31,1664.79,962.56z"/>
		
			<linearGradient id="SVGID_00000178919120595353109280000013590619188239740807_" gradientUnits="userSpaceOnUse" x1="1575.9608" y1="485.1793" x2="1575.9608" y2="1054.6079">
			<stop  offset="0" style="stop-color:#333333"/>
			<stop  offset="1" style="stop-color:#000000"/>
		</linearGradient>
		<path style="fill-rule:evenodd;clip-rule:evenodd;fill:url(#SVGID_00000178919120595353109280000013590619188239740807_);" d="
			M1582.76,962.56c-2.77-5.05-6.36-8.08-10.24-8.03c-2.95,0.04-5.69,1.85-8.01,4.97c1.58,0.62,3.07,1.66,4.43,3.06
			c2.33,2.38,4.28,5.79,5.68,9.87c1.41,4.09,2.24,8.87,2.3,13.97c0.18,14.29-5.71,26.12-13.46,27.75c2.74,4.66,6.17,7.42,9.88,7.39
			c8.59-0.11,15.35-15.19,15.12-33.7c-0.07-5.57-0.76-10.81-1.95-15.41C1585.56,968.66,1584.28,965.31,1582.76,962.56z"/>
		
			<linearGradient id="SVGID_00000175308882182896315380000002850604311623505551_" gradientUnits="userSpaceOnUse" x1="983.8818" y1="485.1793" x2="983.8818" y2="1054.6079">
			<stop  offset="0" style="stop-color:#333333"/>
			<stop  offset="1" style="stop-color:#000000"/>
		</linearGradient>
		<path style="fill-rule:evenodd;clip-rule:evenodd;fill:url(#SVGID_00000175308882182896315380000002850604311623505551_);" d="
			M1692.92,905.13h-16.37V800.6c-22.42-96.8-63.96-186.23-120.39-264.17h-47.33v151.61c-13.93,40.47-25.37,81.75-36.35,123.19
			c-7.88,30.71-15.76,62.43-22.37,93.9h-180.95l-4.07-10.07l-12.41-25.93l-42.81-31.11H826.33v-0.31H719.51
			c-68.23-1.22-77.69,47.28-80.43,98.84h-9.56c0.05-3.91,0-8.8-0.05-14.18l-79.72,5.95l-245.92-12l-20.34-5.64l-0.76-4.27
			c0,0.36,0,0.81,0.05,1.17c0.05,1.53,0.25,3.1,0.46,4.73c-7.27,7.22-11.74,10.27-10.88,22.22c1.53,19.12,2.8,32.08,2.8,32.08
			l25.52,14.59c0.86,35.13,17.54,65.79,42.4,83.53h99.55c19.32-13.78,33.76-35.44,39.61-60.91l67.31,1.88
			c8.19,24,20.95,45.4,41.33,59.03h156.69c7.22-6.46,13.58-14.69,19.01-24.25l253.45,0.66c4.12,9.3,9.2,17.29,15.05,23.59h202.45
			c7.78-8.49,13.98-20.08,18.1-33.66h24.76c9.25,0,8.03,0.41,8.03-11.24v-56.94h38.39c-0.51,3.1-0.66,4.88-0.66,4.88
			c-0.31,4.27-0.51,8.54-0.36,13.02c0.05,5.85,0.41,11.59,1.17,17.08l5.8,24.1c7.83,21.86,21.45,37.93,37.47,42.66
			c0.1,0.05,0.2,0.1,0.31,0.1h72.6c1.63-0.36,3.2-0.76,4.78-1.32c1.32,0.51,2.64,0.97,3.97,1.32h72.55
			c1.78-0.36,3.51-0.86,5.24-1.47c1.88,0.66,3.76,1.17,5.75,1.47h153.74c2.54-19.37,4.37-39,5.34-58.82
			c0.71-12.76,1.02-25.62,1.02-38.59C1695.51,946.36,1694.65,925.62,1692.92,905.13z M334.28,993.29c10.93,1.02,8.64,2.44,16.78,2.8
			c3.31,21.86,17.69,38.69,45.96,49.57C357.52,1050.33,337.59,1024,334.28,993.29z M704.36,1014.44
			c-17.39,0-31.47-29.34-31.47-65.43c0-36.25,14.08-65.53,31.47-65.53c17.34,0,31.37,29.28,31.37,65.53
			C735.73,985.1,721.7,1014.44,704.36,1014.44z M734.15,1025.52c35.33-49.77,28.32-131.17-15.61-160.1
			C783.57,884.13,774.67,1008.49,734.15,1025.52z M814.74,994.66h-10.02c1.47-61.72-2.59-104.99-23.84-126.6h33.86V994.66z
			 M828,922.77v-7.02c0-1.68,1.42-3.15,3.1-3.15h9.71l6.1,9.3v3.91h-15.81C829.43,925.82,828,924.45,828,922.77z M999.8,991.56
			c0,1.42-1.17,2.59-2.54,2.59H832.73c-1.37,0-2.59-1.17-2.59-2.59v-8.08c0-1.42,1.22-2.54,2.59-2.54h14.18v0.61
			c0,3.86,3.1,7.07,7.07,7.07c0.97,0,1.93-0.2,2.74-0.66c-0.61-1.07-1.02-2.29-1.02-3.66v-59.54l-7.93-12.15l-11.85-18.1
			c-2.13-3.2-1.22-7.63,2.08-9.71c0.31-0.25,0.66-0.41,0.97-0.61c3.15-1.32,6.81-0.31,8.69,2.64l16.98,25.78h94.51l6.1,9.3v3.91
			h-95.53v55.11h95.53v0.61c0,3.86,3.1,7.07,7.07,7.07c1.12,0,2.29-0.31,3.25-0.86c-0.61-0.97-0.91-2.14-0.91-3.46v-59.54
			l-7.98-12.15l-11.8-18.1c-2.19-3.2-1.27-7.63,1.98-9.71c0.25-0.1,0.41-0.25,0.61-0.36c3.2-1.68,7.17-0.66,9.15,2.39l16.88,25.78
			h10.93c1.78,0,3.1,1.47,3.1,3.15v7.02c0,1.68-1.32,3.05-3.1,3.05h-5.69v55.11h8.49c1.37,0,2.54,1.12,2.54,2.54V991.56z
			 M1124.05,1032.08c-12.46,0-22.52-21.05-22.52-47.03s10.07-46.98,22.52-46.98c12.51,0,22.57,21,22.57,46.98
			S1136.56,1032.08,1124.05,1032.08z M1143.17,1042.15c25.27-36.25,20.34-95.48-11.24-116.58
			C1178.56,939.24,1172.15,1029.79,1143.17,1042.15z M1205.15,1034.88c-11.79,0-21.35-19.83-21.35-44.38
			c0-24.45,9.56-44.28,21.35-44.28c11.69,0,21.2,19.83,21.2,44.28C1226.35,1015.05,1216.84,1034.88,1205.15,1034.88z
			 M1223.04,1044.33c23.9-34.17,19.22-90.04-10.52-109.92c7.22,2.14,13.07,6.25,17.69,11.59c1.83,2.14,3.51,4.42,4.98,6.91
			C1252.58,982.51,1244.19,1035.28,1223.04,1044.33z M1253.5,951.19l-22.93-39.15l-1.78-3.1c-4.22-6.15-5.9-7.07-11.59-7.17
			l-107.94-5.8l-1.58-6.76l-25.83,43.06c-5.85,9.61-6.15,8.49-14.24,8.49h-40.16c-7.83,0-8.8-1.42-4.63-10.07l27.15-43.27
			c5.64-9.05,9.96-12.46,19.12-11.59l157.05,9c4.98,0.41,5.8-1.02,9.3,6.2l1.93,4.02l27.1,56.13H1253.5z M1508.82,934.06
			l-19.78-28.93h-34.47c9.46-30.4,18.05-61.47,26.08-91.77c10.52-40.93,20.54-81.96,28.17-123.54V934.06z M1573.14,1031.83
			c-4.88,0.05-9.41-3.25-12.91-8.9c-5.24-7.98-8.59-20.59-8.8-34.78c-0.05-3.3,0.05-6.51,0.36-9.56v-0.05
			c0.25-1.93,0.51-3.91,0.81-5.8c0.41-2.54,0.97-5.03,1.58-7.37c0.31-0.81,0.51-1.68,0.76-2.49c0.97-3,2.14-5.8,3.46-8.08
			c0.35-0.71,0.66-1.37,1.12-2.03c3.46-5.54,7.73-8.8,12.51-8.85c7.27-0.15,13.73,7.42,17.69,18.96c0.97,3.05,1.88,6.36,2.54,9.86
			c0.86,4.73,1.37,9.66,1.47,14.9C1593.98,1011.9,1584.78,1031.73,1573.14,1031.83z M1601.1,1031.98c-1.42,2.19-2.95,4.02-4.68,5.49
			c-1.73,1.58-3.41,2.75-5.29,3.61c1.88-2.85,3.56-5.9,5.19-9c10.47-21.25,11.9-47.84,4.93-69.2
			c-4.02-12.25-10.93-22.83-20.44-29.64c-0.46-0.46-1.07-0.76-1.58-1.02c1.22,0.2,2.39,0.56,3.51,1.07
			c12.56,4.98,20.54,16.17,24.91,29.59c2.8,8.54,4.07,18.1,4.07,27.35C1611.73,1006.46,1607.86,1022.17,1601.1,1031.98z
			 M1655.09,1031.83c-7.78,0.1-14.64-8.59-18.51-21.56c0.15-3.15,0.2-6.15,0.2-9.35v-37.52c1.02-3.2,2.24-6.15,3.66-8.59
			c3.51-6.71,8.34-10.83,13.57-10.88c7.27-0.15,13.83,7.42,17.69,18.96c1.02,3.05,1.88,6.36,2.54,9.86
			c0.87,4.73,1.37,9.66,1.42,14.9C1675.99,1011.9,1666.79,1031.73,1655.09,1031.83z"/>
		
			<linearGradient id="SVGID_00000157288670005769403050000010452968830385450374_" gradientUnits="userSpaceOnUse" x1="1208.0007" y1="485.1793" x2="1208.0007" y2="1054.6079">
			<stop  offset="0" style="stop-color:#333333"/>
			<stop  offset="1" style="stop-color:#000000"/>
		</linearGradient>
		<path style="fill-rule:evenodd;clip-rule:evenodd;fill:url(#SVGID_00000157288670005769403050000010452968830385450374_);" d="
			M1205.11,957.29c-2.98,0-5.77,1.8-8.14,4.91c6.97,2.82,12.19,13.96,12.19,27.28c0,14.4-6.09,26.25-13.91,27.79
			c2.69,4.72,6.12,7.55,9.87,7.55c8.65,0,15.66-15.11,15.66-33.77C1220.76,972.41,1213.75,957.29,1205.11,957.29z"/>
		
			<linearGradient id="SVGID_00000012462055873921647130000013513658317205465240_" gradientUnits="userSpaceOnUse" x1="1127.1477" y1="485.1793" x2="1127.1477" y2="1054.6079">
			<stop  offset="0" style="stop-color:#333333"/>
			<stop  offset="1" style="stop-color:#000000"/>
		</linearGradient>
		<path style="fill-rule:evenodd;clip-rule:evenodd;fill:url(#SVGID_00000012462055873921647130000013513658317205465240_);" d="
			M1124.08,949.81c-3.16,0-6.12,1.9-8.64,5.21c7.41,2.99,12.93,14.81,12.93,28.93c0,15.27-6.46,27.84-14.76,29.48
			c2.86,5.02,6.5,8.03,10.47,8.03c9.16,0,16.61-16.04,16.61-35.83C1140.69,965.84,1133.24,949.81,1124.08,949.81z"/>
		
			<linearGradient id="SVGID_00000170974658187617343380000003580812146491463340_" gradientUnits="userSpaceOnUse" x1="708.5927" y1="485.1793" x2="708.5927" y2="1054.6079">
			<stop  offset="0" style="stop-color:#333333"/>
			<stop  offset="1" style="stop-color:#000000"/>
		</linearGradient>
		<path style="fill-rule:evenodd;clip-rule:evenodd;fill:url(#SVGID_00000170974658187617343380000003580812146491463340_);" d="
			M704.32,899.84c-4.39,0-8.51,2.65-12.01,7.26c10.3,4.17,17.99,20.62,17.99,40.29c0,21.26-8.99,38.77-20.55,41.05
			c3.98,6.98,9.05,11.17,14.57,11.17c12.78,0,23.13-22.34,23.13-49.88C727.44,922.18,717.09,899.84,704.32,899.84z"/>
	</g>
</g>
</svg>
