<svg width="100" height="100" viewBox="0 0 100 100" fill="none" xmlns="http://www.w3.org/2000/svg">
<g clip-path="url(#clip0_71_660)">
<path fill-rule="evenodd" clip-rule="evenodd" d="M12.8882 39.7422C11.9031 43.1182 11.377 46.6906 11.377 50.3844C11.377 52.1031 11.4919 53.7974 11.7135 55.4578H15.6592C14.829 54.4755 14.2844 53.2385 14.1054 51.9094L13.3765 51.4964C13 51.2844 12.7517 50.9031 12.7091 50.4771C12.7091 50.4771 12.6424 49.7911 12.5621 48.7823C12.5007 47.951 12.7648 47.4318 13.0589 47.0661C13.0536 47.0474 13.0457 47.0292 13.04 47.0078L12.9733 46.6396C12.9654 46.5974 12.9628 46.5573 12.957 46.5151L12.8798 46.049C12.8667 45.9693 12.8614 45.8927 12.8614 45.8135C12.8346 45.7396 12.8157 45.6625 12.8026 45.5833L12.6587 44.7229C12.5437 44.0531 12.7706 43.5948 13.0536 43.2823L12.8882 39.7422Z" fill="white"/>
<path fill-rule="evenodd" clip-rule="evenodd" d="M56.1535 88.204C54.9174 88.167 53.3395 88.0056 51.3294 87.6399C45.9581 86.6629 42.4636 87.1712 40.7896 87.5894C43.7422 88.3071 46.8256 88.6858 49.9998 88.6858C52.0929 88.6858 54.1513 88.5217 56.1535 88.204Z" fill="white"/>
<path fill-rule="evenodd" clip-rule="evenodd" d="M35.8452 86.0297C37.3402 86.6151 38.8835 87.1099 40.464 87.5099C41.7322 86.9536 44.5436 86.1328 49.5221 86.5698C55.5502 87.0859 59.1278 87.2953 60.1423 87.351C65.941 85.7885 71.1946 82.9208 75.5677 79.0865H68.4368C69.6702 79.2797 70.9809 79.4255 72.4438 79.3828C69.1336 81.2656 63.3911 78.7474 58.2277 79.4703C58.5375 79.3245 58.839 79.1974 59.1383 79.0865H56.0843C56.2712 79.1234 56.3725 79.1552 56.3725 79.1552C56.3725 79.1552 55.964 79.2318 53.1852 79.6687C50.9855 80.026 48.967 79.375 48.2193 79.0859H24.4321C27.0834 81.4135 30.0597 83.3839 33.2875 84.9167C34 84.9219 34.7478 84.9432 35.5165 84.9854C39.7856 85.2292 40.725 85.3453 40.725 85.3453C40.725 85.3453 39.3587 86.3026 35.8452 86.0297ZM59.7311 81.5839C64.865 83.0589 69.7879 82.8786 69.7879 82.8786C69.7879 82.8786 64.822 84.7641 59.8219 83.0589C55.0272 81.4328 50.6915 83.2047 50.3234 83.3609C50.6831 83.0932 54.8109 80.1724 59.7311 81.5839ZM53.9429 84.3401C56.0092 84.6422 57.2237 84.5495 57.2237 84.5495C57.2237 84.5495 55.1118 85.4974 53.0775 84.9094C51.0407 84.3401 49.5961 84.1125 49.5961 84.1125C49.5961 84.1125 51.8635 84.025 53.9429 84.3401ZM33.2822 80.7099C33.2822 80.7099 36.0479 80.7974 40.1222 80.4661C44.1697 80.151 45.2666 80.1063 47.8696 81.6844C47.7041 81.6104 45.766 80.7865 41.5022 81.475C37.0199 82.2005 33.2822 80.7099 33.2822 80.7099ZM37.5965 83.0109C37.5965 83.0109 40.8479 83.1328 42.3061 83.0109C43.7664 82.8943 44.9064 83.374 44.9064 83.374C44.9064 83.374 43.569 83.6177 41.1661 83.5698C38.7659 83.5406 37.5965 83.0109 37.5965 83.0109Z" fill="white"/>
<path fill-rule="evenodd" clip-rule="evenodd" d="M72.3103 40.1401L71.6108 40.5823L73.832 43.6484L74.8864 44.4615C75.1322 43.4312 75.3858 42.4359 75.6179 41.5432C76.1493 39.5469 76.739 37.4255 77.4468 35.3495L77.1396 34.5313L72.2116 29.0391L74.2673 34.0568L73.4933 35.1479C73.4933 35.1479 75.5864 37.1792 75.453 37.4516C75.3144 37.7323 75.7308 39.7234 75.7308 39.7234L74.6711 40.3005L72.3103 40.1401Z" fill="white"/>
<path fill-rule="evenodd" clip-rule="evenodd" d="M20.6572 25.0833C24.5414 24.5115 27.8706 24.0615 31.7899 23.5714L32.2011 23.5182C33.4907 23.3516 34.4328 23.2297 35.5943 23.8625L38.2319 24.8818C38.2639 24.8948 38.2959 24.9109 38.3306 24.9266L42.7782 27.074C42.9599 27.1615 43.1306 27.2646 43.2855 27.3812H53.7135L44.3215 28.713C44.4922 29.1339 44.5725 29.5974 44.5431 30.0714L44.1451 36.6094L54.7117 28.6891L57.144 31.9807C57.144 31.9807 60.0352 31.9885 60.46 32.3406C60.5934 32.449 61.0019 32.8198 61.4745 33.2516L60.8123 33.9557C60.2143 33.5375 59.6004 33.1245 59.4723 33.0844C59.2801 33.0448 57.3498 32.8036 56.2634 32.6766L54.6004 30.3833L55.1502 34.7073L53.3506 34.2807L54.6613 36.4307L54.3252 37.4927L52.0452 38.4964L53.0356 41.2849L50.1018 38.8432L48.684 39.6323L50.4993 41.9359H53.3023C57.2747 38.0198 65.0998 30.3193 65.5509 29.938C66.1621 29.4323 67.6681 30.5417 67.6681 30.5417L71.1789 26.6729L77.4849 33.1474V27.5542C77.4849 26.8234 78.083 26.2302 78.8197 26.2302H80.2957C79.3695 25.0729 78.3791 23.9687 77.3268 22.9255L58.7776 20.2089H74.2886C67.6544 14.8812 59.2019 11.6875 49.9994 11.6875C44.3693 11.6875 39.0138 12.8818 34.1896 15.0344L35.1028 14.7802H45.5681L30.5134 16.9146C26.7841 19.0776 23.4523 21.8448 20.6572 25.0833Z" fill="white"/>
<path fill-rule="evenodd" clip-rule="evenodd" d="M84.2146 27.5563C85.5252 29.5182 86.6705 31.6026 87.6262 33.7844C88.5714 35.9401 89.3349 38.1958 89.8957 40.526C90.5526 43.251 90.9317 46.0818 91.001 48.9865H91.0036C91.0089 49.3229 91.0141 49.6589 91.0141 49.9979C91.0141 50.1198 91.0089 50.2443 91.0089 50.3661H100L93.5157 45.1417C93.4942 44.9615 93.4732 44.7818 93.449 44.6042V44.6016C92.8966 40.1979 91.6763 35.9958 89.8957 32.1031C89.2204 30.6203 88.4595 29.1823 87.6262 27.7948C87.5784 27.7151 87.5301 27.6359 87.4792 27.5563C80.6208 16.3156 68.7776 8.40313 54.9863 6.83594V9.61875C67.1902 11.0854 77.738 17.8646 84.2146 27.5563Z" fill="white"/>
<path fill-rule="evenodd" clip-rule="evenodd" d="M50.0003 9.31979C50.088 9.31979 50.1752 9.32188 50.2639 9.3224V0L44.9646 6.82865C24.7429 9.09167 8.69103 24.9917 6.37061 45.0339H9.29123C11.7603 24.9094 29.044 9.31979 50.0003 9.31979Z" fill="white"/>
<path fill-rule="evenodd" clip-rule="evenodd" d="M90.4515 56.7401H9.54741C9.17879 54.5479 8.9866 52.2964 8.9866 50.0005C8.9866 49.9115 8.98923 49.8229 8.98923 49.7344H0L6.35847 54.9724C8.63741 75.0417 24.6788 90.974 44.8994 93.2667V90.3687C34.661 89.1094 25.5935 84.1068 19.1305 76.7849H80.8684C73.351 85.3021 62.3092 90.6812 49.9997 90.6812C49.8737 90.6812 49.7487 90.6776 49.6232 90.6771V100.001L54.8895 93.276C75.1343 91.0187 91.2051 75.0932 93.5066 55.0224H90.7025C90.6316 55.599 90.5471 56.1714 90.4515 56.7401ZM24.0444 65.7063H21.0545V63.724C21.0545 63.1479 21.0225 62.788 20.9584 62.6448C20.8944 62.5021 20.7536 62.4302 20.5357 62.4302C20.2894 62.4302 20.133 62.5172 20.0668 62.6906C20.0006 62.8646 19.9675 63.2401 19.9675 63.8177V69.1156C19.9675 69.6698 20.0006 70.0312 20.0668 70.2005C20.133 70.3698 20.2821 70.4542 20.5142 70.4542C20.7368 70.4542 20.8823 70.3693 20.9511 70.2C21.0199 70.0307 21.054 69.6328 21.054 69.0068V67.5734H24.0439V68.0177C24.0439 69.1984 23.9599 70.0354 23.7919 70.5292C23.6238 71.0229 23.2521 71.4557 22.6766 71.8276C22.101 72.199 21.3922 72.3849 20.5494 72.3849C19.6735 72.3849 18.9515 72.2276 18.3833 71.913C17.8152 71.5984 17.4387 71.163 17.2538 70.6062C17.069 70.05 16.9771 69.2125 16.9771 68.0948V64.7625C16.9771 63.9406 17.0054 63.3245 17.0622 62.913C17.1189 62.5021 17.2885 62.1062 17.5699 61.726C17.8514 61.3453 18.2421 61.0464 18.7414 60.8276C19.2408 60.6094 19.8153 60.5 20.4638 60.5C21.3444 60.5 22.0711 60.6687 22.6445 61.0068C23.2174 61.3443 23.5939 61.7656 23.7735 62.2698C23.9536 62.774 24.0434 63.5583 24.0434 64.6229V65.7063H24.0444ZM31.9992 72.1448H29.0019V63.0151H28.114V72.1448H25.1167V60.7323H31.9987V72.1448H31.9992ZM38.3771 72.1448H33.1923V60.7396H38.1781V63.0219H36.1822V65.1849H38.0505V67.3547H36.1822V69.8625H38.3766V72.1448H38.3771ZM46.7299 74.1104H44.6631V72.1453H39.2367V60.7328H42.234V69.8625H43.1219V60.7328H46.1192V69.8625H46.7299V74.1104ZM53.5479 63.0219H51.7725V72.1448H48.7826V63.0219H47.014V60.7396H53.5479V63.0219ZM60.6714 64.9245C60.6714 65.6526 60.5958 66.1833 60.444 66.5167C60.2923 66.85 60.0145 67.1062 59.6091 67.2844C59.2043 67.463 58.6755 67.5521 58.0217 67.5521H57.2188V72.1453H54.2289V60.7401H57.2404C58.0548 60.7401 58.6813 60.8036 59.1187 60.9302C59.5566 61.0568 59.8858 61.2401 60.1064 61.4797C60.3264 61.7193 60.4755 62.0094 60.5538 62.3495C60.632 62.6901 60.6709 63.2172 60.6709 63.9307V64.9245H60.6714ZM65.3537 72.1448L65.1936 70.0948H64.1239L63.9438 72.1448H60.8526L62.378 60.7396H66.6996L68.4093 72.1448H65.3537ZM75.7928 72.1448H72.8028V67.3542H71.9075V72.1448H68.9176V60.7396H71.9075V64.8182H72.8028V60.7396H75.7928V72.1448ZM83.9744 65.7063H80.9845V63.724C80.9845 63.1479 80.9524 62.788 80.8884 62.6448C80.8243 62.5021 80.6836 62.4302 80.4657 62.4302C80.2194 62.4302 80.0629 62.5172 79.9967 62.6906C79.9306 62.8646 79.8975 63.2401 79.8975 63.8177V69.1156C79.8975 69.6698 79.9306 70.0312 79.9967 70.2005C80.0629 70.3698 80.212 70.4542 80.4441 70.4542C80.6668 70.4542 80.8122 70.3693 80.881 70.2C80.9498 70.0307 80.9839 69.6328 80.9839 69.0068V67.5734H83.9744V68.0177C83.9744 69.1984 83.8904 70.0354 83.7223 70.5292C83.5543 71.0229 83.1825 71.4557 82.607 71.8276C82.0315 72.199 81.3226 72.3849 80.4798 72.3849C79.604 72.3849 78.8819 72.2276 78.3138 71.913C77.7456 71.5984 77.3691 71.163 77.1843 70.6062C76.9995 70.05 76.9076 69.2125 76.9076 68.0948V64.7625C76.9076 63.9406 76.9359 63.3245 76.9926 62.913C77.0493 62.5021 77.2189 62.1062 77.5004 61.726C77.7819 61.3453 78.1725 61.0464 78.6719 60.8276C79.1713 60.6094 79.7457 60.5 80.3942 60.5C81.2748 60.5 82.0016 60.6687 82.575 61.0068C83.1479 61.3443 83.5244 61.7656 83.704 62.2698C83.8841 62.774 83.9739 63.5583 83.9739 64.6229V65.7063H83.9744Z" fill="white"/>
<path fill-rule="evenodd" clip-rule="evenodd" d="M64.0854 68.0714H65.1147C64.9634 66.7797 64.8117 65.1828 64.6594 63.2812C64.3548 65.4651 64.1637 67.062 64.0854 68.0714Z" fill="white"/>
<path fill-rule="evenodd" clip-rule="evenodd" d="M57.2197 62.6875V65.5901C57.3053 65.5948 57.3783 65.5969 57.4397 65.5969C57.7144 65.5969 57.905 65.5302 58.0116 65.3964C58.1182 65.2625 58.1712 64.9844 58.1712 64.5615V63.6245C58.1712 63.2349 58.1092 62.9813 57.9864 62.8635C57.8635 62.7464 57.6078 62.6875 57.2197 62.6875Z" fill="white"/>
<path fill-rule="evenodd" clip-rule="evenodd" d="M14.3544 46.7609L14.293 46.3948L14.2856 46.3906L14.3544 46.7609Z" fill="white"/>
<path fill-rule="evenodd" clip-rule="evenodd" d="M14.5889 36.9099C15.1119 39.2375 27.2702 37.7068 29.6993 36.6688C31.1249 36.2214 31.1727 35.9141 31.3597 33.7005C31.4689 32.3766 31.5597 31.3094 31.629 30.4912C31.6422 30.3771 31.6558 30.2688 31.6663 30.1599L30.7348 30.1625C29.966 30.1995 29.4451 30.4063 29.4189 30.8406C29.6242 30.8511 29.881 30.8912 30.081 30.9651C30.5373 31.1318 30.3614 31.5797 30.2837 32.1594C30.1955 32.8057 30.0674 33.7745 29.8941 35.0589C29.7261 36.2901 28.6233 35.975 28.4259 35.2281C28.4259 35.2281 28.4233 33.8724 28.4154 31.1583C28.5246 30.0964 29.2802 29.5219 30.6791 29.4214L31.6374 29.411C31.5198 28.8469 31.1223 28.4974 30.1026 28.6828C24.6268 29.3078 22.1467 29.5776 18.639 30.1896C18.1076 30.261 17.6645 30.3698 17.3069 30.5287C17.0905 30.624 16.9036 30.738 16.7513 30.8703C16.6258 30.9787 16.5192 31.1005 16.4362 31.2386L16.327 31.2412C16.1826 31.4927 16.044 31.7443 15.908 31.9985H16.1511L14.6294 36.4417C14.5674 36.6104 14.5569 36.7667 14.5889 36.9099ZM25.0432 30.2266L19.4503 37.1802C18.8659 37.1828 18.2836 37.1724 17.7175 37.1297C17.592 37.1219 17.3651 37.1005 17.0979 37.0662L22.3174 30.5813C23.2253 30.4542 24.1358 30.3375 25.0432 30.2266ZM15.5604 36.6771L20.2165 30.8938C20.5825 30.8354 20.9479 30.7797 21.3139 30.7245L16.3134 36.9365C15.9957 36.8703 15.71 36.7854 15.5604 36.6797V36.6771Z" fill="white"/>
<path fill-rule="evenodd" clip-rule="evenodd" d="M32.639 46.8693C32.6416 45.9557 32.6763 45.0208 32.8338 44.5151C33.3116 43.0031 34.5504 41.8432 36.3845 41.8646L41.7668 41.8484L41.4917 41.6156L34.3235 41.1443C33.3195 41.0328 32.9724 40.9536 33.058 39.2083C33.2103 36.2 33.3248 33.2 33.3143 30.25C32.6495 33.5281 32.2357 39.1104 31.9873 42.4729C31.7631 43.1562 31.4375 43.2594 30.5107 43.4396L26.677 44.2526C26.1482 44.3641 25.9429 44.5385 25.9429 45.325V47.2766L27.0934 47.3245C29.0131 47.4068 30.7539 47.1104 32.639 46.8693ZM31.5735 45.2859C31.5735 45.8156 31.5735 46.0828 31.5735 46.0828C29.0478 46.1859 27.7855 46.2391 27.7855 46.2391C29.6753 45.7969 30.9382 45.4792 31.5735 45.2859Z" fill="white"/>
<path fill-rule="evenodd" clip-rule="evenodd" d="M13.9748 44.5L14.1192 45.3589C14.3518 45.4177 14.6059 45.4797 14.88 45.5469C15.3442 45.6594 15.8678 45.7839 16.4522 45.9208L14.8937 45.8557L14.1974 45.8266L14.293 46.3953L14.5308 46.5229L15.1205 46.8396L17.7618 46.9458L17.662 45.2328C17.6568 44.7323 17.5413 44.4563 16.9883 44.3297L15.4976 44.0125C15.162 43.9505 15.1137 43.8708 15.0607 43.4292C14.8753 41.7953 14.6233 39.4573 14.607 38.5703C14.5928 38.5896 14.5781 38.6099 14.5623 38.6313C14.4048 38.8479 14.1985 39.1568 14.2137 39.4865L14.4195 43.8901C14.0645 44.1078 13.9212 44.1833 13.9748 44.5Z" fill="white"/>
<path fill-rule="evenodd" clip-rule="evenodd" d="M17.5975 29.9553C17.575 30.0782 17.5545 30.2043 17.5366 30.3339C18.0061 28.9688 18.8331 28.0605 20.0183 27.6095L20.7502 27.5136C20.474 27.8668 20.2451 28.3464 20.0618 28.9522C19.365 29.1391 18.8483 29.3381 18.6047 29.5433C27.1439 28.3319 31.414 27.7261 31.414 27.7261C30.5429 27.6803 29.1624 27.7292 27.6196 27.8485C27.6832 27.448 27.7635 27.0251 27.8612 26.5787L33.0508 25.8964C32.9458 26.3996 32.7903 27.6418 32.9678 29.0319C33.2813 27.6777 33.5438 26.472 33.7549 26.0621C35.5539 26.7475 37.0132 27.3131 38.1374 27.7532C38.6878 27.9688 39.1577 28.1548 39.5479 28.3095C40.0541 28.5496 40.5954 28.8027 41.1736 29.0709C41.9287 29.4209 42.4496 29.8126 42.5189 31.5813V41.7402L43.211 30.3766C43.2551 29.6496 42.8534 28.9678 42.1933 28.6496L37.7447 26.5022L35.0194 25.447C34.1209 24.9298 33.473 25.0813 31.9565 25.2704C28.2114 25.7376 24.8355 26.1933 20.8259 26.7839C18.8483 27.0761 17.9352 28.147 17.5975 29.9553Z" fill="white"/>
<path fill-rule="evenodd" clip-rule="evenodd" d="M29.0185 41.602L29.4402 39.1025C29.4911 38.8775 29.5925 38.4937 28.9114 38.5838C24.5919 39.0421 20.0025 39.1926 16.4334 39.1452C15.7581 39.1374 15.5019 39.2619 15.5339 39.651L15.6888 41.7931C15.7019 42.553 16.017 42.8786 16.8446 42.8681C21.9706 42.826 25.4541 42.7968 27.2883 42.7832C28.1773 42.7645 28.9382 42.452 29.0185 41.602ZM16.519 40.2223C23.1348 40.1244 27.4222 39.9072 29.0023 39.7004C28.6552 40.1004 28.6604 40.1004 28.0891 40.1426C24.5089 40.3624 20.4457 40.4499 15.87 40.5056C16.1078 40.2702 16.0837 40.2275 16.519 40.2223ZM28.997 40.4395C28.6499 40.8369 28.6552 40.8395 28.0865 40.8791C24.5142 41.0911 20.4646 41.165 15.902 41.2129C16.1393 40.9775 16.1183 40.9348 16.5505 40.9296C23.1447 40.8473 27.4191 40.6379 28.997 40.4395ZM15.881 41.9515C16.1215 41.7187 16.0973 41.6733 16.5269 41.6707C23.0623 41.6202 27.2988 41.4322 28.8636 41.239C28.5165 41.6338 28.5244 41.6364 27.9583 41.6707C24.4186 41.8666 20.4005 41.9223 15.881 41.9515Z" fill="white"/>
<path fill-rule="evenodd" clip-rule="evenodd" d="M35.2792 35.3883L39.93 35.8331L40.2425 40.7003H40.5975L40.7387 36.0612L40.8642 32.0441C40.8511 31.2524 40.6799 31.1331 40.1222 30.855L38.9717 30.4206L35.4877 29.0993C34.3556 28.6123 34.2568 29.0649 34.2568 29.8779V34.3081C34.2778 35.0045 34.3928 35.3566 35.2792 35.3883ZM38.6031 31.0961L36.8997 34.7795L36.4964 34.7399L38.245 30.9612L38.6031 31.0961ZM37.2494 30.5826L37.9651 30.8529L36.1819 34.7112L35.3727 34.6316L37.2494 30.5826Z" fill="white"/>
<path fill-rule="evenodd" clip-rule="evenodd" d="M85.9946 52.824C86.1385 53.0667 86.3191 53.2104 86.514 53.2089C86.9645 53.2032 87.32 52.4177 87.3079 51.4537C87.3042 51.1636 87.2675 50.8907 87.206 50.6511C87.1556 50.4542 87.0884 50.2802 87.0091 50.137C86.8632 49.874 86.6746 49.7162 86.4704 49.7188C86.3155 49.7209 86.1716 49.8151 86.0498 49.9776C86.1327 50.0099 86.211 50.0641 86.2824 50.137C86.4047 50.261 86.5077 50.4386 86.5812 50.6511C86.6547 50.8641 86.6988 51.1131 86.7019 51.3787C86.7109 52.1229 86.4016 52.7396 85.9946 52.824Z" fill="white"/>
<path fill-rule="evenodd" clip-rule="evenodd" d="M81.688 52.824C81.8319 53.0667 82.012 53.2104 82.2068 53.2089C82.6578 53.2032 83.0128 52.4177 83.0007 51.4537C82.9971 51.1636 82.9608 50.8907 82.8983 50.6511C82.8479 50.4542 82.7807 50.2802 82.7014 50.137C82.556 49.874 82.3675 49.7162 82.1637 49.7188C82.0088 49.7209 81.8649 49.8151 81.7431 49.9776C81.8261 50.0099 81.9043 50.0641 81.9763 50.137C82.0986 50.261 82.201 50.4386 82.2745 50.6511C82.3486 50.8641 82.3922 51.1131 82.3948 51.3787C82.4037 52.1229 82.0944 52.7396 81.688 52.824Z" fill="white"/>
<path fill-rule="evenodd" clip-rule="evenodd" d="M69.2081 51.0807C69.2108 51.3854 69.2297 51.6844 69.2696 51.9703L69.5741 53.2255C69.9853 54.3641 70.701 55.201 71.5417 55.4474C71.5469 55.45 71.5522 55.4526 71.558 55.4526H75.3702C75.4558 55.4339 75.5382 55.413 75.6212 55.3839C75.6905 55.4104 75.7598 55.4344 75.8297 55.4526H79.6393C79.7328 55.4339 79.8236 55.4078 79.9145 55.376C80.0132 55.4104 80.1119 55.437 80.2164 55.4526H88.2893C88.4227 54.4437 88.5188 53.4214 88.5697 52.3891C88.607 51.7245 88.6233 51.0547 88.6233 50.3792C88.6233 49.288 88.5781 48.2078 88.4873 47.1406H87.6277V41.6964C86.4504 36.6547 84.2691 31.9969 81.306 27.9375H78.8207V35.8339C78.0892 37.9417 77.4885 40.0917 76.9119 42.25C76.4981 43.8495 76.0844 45.5016 75.7373 47.1406H66.2355L66.0218 46.6161L65.3702 45.2656L63.1222 43.6453H42.9814V43.6292H37.3722C33.7894 43.5656 33.2927 46.0917 33.1488 48.7771H32.6468C32.6494 48.5734 32.6468 48.3187 32.6442 48.0385L28.4581 48.3484L15.5448 47.7234L14.4767 47.4297L14.4368 47.2073C14.4368 47.226 14.4368 47.2495 14.4394 47.2682C14.442 47.3479 14.4525 47.4297 14.4636 47.5146C14.0818 47.8906 13.8471 48.0495 13.8923 48.6719C13.9726 49.6677 14.0393 50.3427 14.0393 50.3427L15.3793 51.1026C15.4245 52.9323 16.3004 54.5292 17.6058 55.4531H22.8332C23.8477 54.7354 24.6059 53.6073 24.9131 52.2807L28.4476 52.3786C28.8776 53.6286 29.5477 54.7432 30.6178 55.4531H38.8457C39.2248 55.1167 39.5587 54.688 39.8439 54.1901L53.1526 54.2245C53.3689 54.7089 53.6357 55.125 53.9429 55.4531H64.5736C64.9821 55.0109 65.3077 54.4073 65.524 53.7H66.8242C67.3099 53.7 67.2458 53.7214 67.2458 53.1146V50.149H69.2617C69.2349 50.3104 69.227 50.4031 69.227 50.4031C69.2108 50.6255 69.2003 50.8479 69.2081 51.0807ZM85.5388 52.1297V50.1755C85.5924 50.0089 85.6564 49.8552 85.731 49.7281C85.9153 49.3786 86.1689 49.1641 86.4436 49.1615C86.8253 49.1536 87.1698 49.5479 87.3725 50.149C87.426 50.3078 87.4712 50.4802 87.5059 50.6625C87.551 50.9089 87.5778 51.1656 87.5804 51.4385C87.5967 52.7016 87.1131 53.7344 86.4992 53.7396C86.0907 53.7448 85.7305 53.2922 85.5273 52.6167C85.5362 52.4526 85.5388 52.2964 85.5388 52.1297ZM82.7012 48.6078C83.3607 48.8672 83.7797 49.45 84.0092 50.149C84.1562 50.5938 84.2229 51.0917 84.2229 51.5734C84.2229 52.4182 84.0202 53.2365 83.6653 53.7474C83.5907 53.8615 83.5104 53.9568 83.4195 54.0333C83.3287 54.1156 83.2405 54.1766 83.1417 54.2214C83.2405 54.0729 83.3287 53.9141 83.4143 53.7526C83.964 52.6458 84.0391 51.2609 83.6731 50.1484C83.462 49.5104 83.0992 48.9594 82.5998 48.6047C82.5757 48.5807 82.5436 48.5651 82.5169 48.5516C82.5809 48.5625 82.6424 48.5812 82.7012 48.6078ZM81.0749 50.9672V50.9646C81.0881 50.8641 81.1017 50.7609 81.1175 50.6625C81.139 50.5302 81.1684 50.4005 81.2004 50.2786C81.2167 50.2365 81.2272 50.1911 81.2403 50.149C81.2913 49.9927 81.3527 49.8469 81.422 49.7281C81.4404 49.6911 81.4567 49.6568 81.4808 49.6224C81.6625 49.3339 81.8867 49.1641 82.1377 49.1615C82.5195 49.1536 82.8587 49.5479 83.0666 50.149C83.1176 50.3078 83.1654 50.4802 83.2 50.6625C83.2452 50.9089 83.272 51.1656 83.2772 51.4385C83.2903 52.7016 82.8072 53.7344 82.196 53.7396C81.9398 53.7422 81.7019 53.5703 81.5181 53.276C81.243 52.8604 81.0671 52.2036 81.056 51.4646C81.0539 51.2927 81.0592 51.126 81.0749 50.9672ZM77.3404 42.3609C77.8928 40.2292 78.419 38.0922 78.8196 35.9266V48.6474L77.781 47.1406H75.9709C76.4671 45.5573 76.9182 43.9391 77.3404 42.3609ZM17.1437 51.7323C17.7176 51.7854 17.5974 51.8594 18.0248 51.8781C18.1986 53.0167 18.9537 53.8932 20.4382 54.4599C18.364 54.7031 17.3175 53.3318 17.1437 51.7323ZM36.5767 52.8339C35.6635 52.8339 34.9242 51.3057 34.9242 49.426C34.9242 47.538 35.6635 46.013 36.5767 46.013C37.4872 46.013 38.2239 47.538 38.2239 49.426C38.2239 51.3057 37.4872 52.8339 36.5767 52.8339ZM38.141 53.4109C39.9962 50.8188 39.6281 46.5792 37.3213 45.0724C40.736 46.0469 40.2687 52.524 38.141 53.4109ZM42.3728 51.8036H41.8466C41.9238 48.5891 41.7106 46.3354 40.5948 45.2099H42.3728V51.8036ZM43.0691 48.0594V47.6937C43.0691 47.6062 43.1436 47.5297 43.2318 47.5297H43.7417L44.062 48.0141V48.2177H43.2318C43.1441 48.2182 43.0691 48.1469 43.0691 48.0594ZM52.0903 51.6422C52.0903 51.7161 52.0289 51.7771 51.9569 51.7771H43.3174C43.2455 51.7771 43.1814 51.7161 43.1814 51.6422V51.2214C43.1814 51.1474 43.2455 51.0891 43.3174 51.0891H44.0625V51.1208C44.0625 51.3219 44.2253 51.4891 44.4338 51.4891C44.4847 51.4891 44.5351 51.4786 44.5777 51.4547C44.5456 51.399 44.5241 51.3354 44.5241 51.2641V48.163L44.1077 47.5302L43.4855 46.5875C43.3736 46.4208 43.4214 46.1901 43.5947 46.0818C43.611 46.0687 43.6293 46.0604 43.6456 46.05C43.811 45.9813 44.0032 46.0344 44.1019 46.1875L44.9936 47.5302H49.9563L50.2766 48.0146V48.2182H45.2603V51.0885H50.2766V51.1203C50.2766 51.3214 50.4394 51.4885 50.6479 51.4885C50.7067 51.4885 50.7681 51.4724 50.8185 51.4437C50.7865 51.3932 50.7707 51.3323 50.7707 51.2635V48.1625L50.3517 47.5297L49.7321 46.587C49.6171 46.4203 49.6654 46.1896 49.8361 46.0812C49.8492 46.076 49.8576 46.0682 49.8681 46.0625C50.0361 45.975 50.2446 46.0281 50.3486 46.187L51.2349 47.5297H51.8089C51.9023 47.5297 51.9716 47.6062 51.9716 47.6937V48.0594C51.9716 48.1469 51.9023 48.2182 51.8089 48.2182H51.5101V51.0885H51.9559C52.0278 51.0885 52.0893 51.1469 52.0893 51.2208V51.6422H52.0903ZM58.6147 53.7526C57.9604 53.7526 57.4322 52.6562 57.4322 51.3031C57.4322 49.95 57.961 48.8563 58.6147 48.8563C59.2716 48.8563 59.7999 49.95 59.7999 51.3031C59.8004 52.6562 59.2716 53.7526 58.6147 53.7526ZM59.6187 54.2771C60.9456 52.3891 60.6868 49.3042 59.0285 48.2052C61.4771 48.9172 61.1405 53.6333 59.6187 54.2771ZM62.8733 53.8984C62.2542 53.8984 61.7522 52.8656 61.7522 51.587C61.7522 50.3135 62.2542 49.2807 62.8733 49.2807C63.4871 49.2807 63.9865 50.3135 63.9865 51.587C63.9865 52.8656 63.4871 53.8984 62.8733 53.8984ZM63.8127 54.3906C65.0677 52.6109 64.822 49.701 63.2603 48.6656C63.6394 48.7771 63.9466 48.9911 64.1892 49.2693C64.2853 49.3807 64.3735 49.4995 64.4507 49.6292C65.3639 51.1708 64.9233 53.9193 63.8127 54.3906ZM65.4122 49.5396L64.2081 47.5005L64.1146 47.3391C63.893 47.0188 63.8048 46.9708 63.506 46.9656L57.8381 46.6635L57.7551 46.3115L56.3988 48.5542C56.0916 49.0547 56.0758 48.9964 55.651 48.9964H53.5422C53.1311 48.9964 53.0801 48.9224 53.2991 48.4719L54.7248 46.2182C55.0209 45.7469 55.2478 45.5693 55.7288 45.6146L63.9755 46.0833C64.237 46.1047 64.28 46.0302 64.4638 46.4063L64.5652 46.6156L65.9882 49.5391H65.4122V49.5396Z" fill="white"/>
<path fill-rule="evenodd" clip-rule="evenodd" d="M62.8713 49.8594C62.7148 49.8594 62.5683 49.9531 62.4438 50.1151C62.8098 50.262 63.0839 50.8422 63.0839 51.5359C63.0839 52.2859 62.7641 52.9031 62.3535 52.9833C62.4948 53.2292 62.6749 53.3766 62.8718 53.3766C63.326 53.3766 63.6941 52.5896 63.6941 51.6177C63.6931 50.6469 63.325 49.8594 62.8713 49.8594Z" fill="white"/>
<path fill-rule="evenodd" clip-rule="evenodd" d="M58.6162 49.4688C58.4503 49.4688 58.2948 49.5677 58.1625 49.7401C58.5516 49.8958 58.8415 50.5115 58.8415 51.2469C58.8415 52.0422 58.5022 52.6969 58.0664 52.7823C58.2166 53.0438 58.4077 53.2005 58.6162 53.2005C59.0972 53.2005 59.4884 52.3651 59.4884 51.3344C59.4884 50.3036 59.0972 49.4688 58.6162 49.4688Z" fill="white"/>
<path fill-rule="evenodd" clip-rule="evenodd" d="M36.5746 46.8672C36.3441 46.8672 36.1278 47.0052 35.944 47.2453C36.4849 47.4625 36.8887 48.3193 36.8887 49.3438C36.8887 50.451 36.4166 51.363 35.8096 51.4818C36.0186 51.8453 36.2848 52.0635 36.5746 52.0635C37.2457 52.0635 37.7892 50.9 37.7892 49.4656C37.7887 48.0307 37.2452 46.8672 36.5746 46.8672Z" fill="white"/>
</g>
<defs>
<clipPath id="clip0_71_660">
<rect width="100" height="100" fill="white"/>
</clipPath>
</defs>
</svg>
