<?xml version="1.0" encoding="utf-8"?>
<!-- Generator: Adobe Illustrator 27.2.0, SVG Export Plug-In . SVG Version: 6.00 Build 0)  -->
<svg version="1.1" id="Слой_1" xmlns="http://www.w3.org/2000/svg" xmlns:xlink="http://www.w3.org/1999/xlink" x="0px" y="0px"
	 viewBox="0 0 1920 1920" style="enable-background:new 0 0 1920 1920;" xml:space="preserve">
<style type="text/css">
	.st0{fill-rule:evenodd;clip-rule:evenodd;fill:#FFFFFF;}
	.st1{fill-rule:evenodd;clip-rule:evenodd;fill:url(#SVGID_1_);}
	.st2{fill-rule:evenodd;clip-rule:evenodd;fill:url(#SVGID_00000012474894966207870330000009382577513766794429_);}
	.st3{fill-rule:evenodd;clip-rule:evenodd;fill:url(#SVGID_00000018925276255490081970000010478726175258158229_);}
	.st4{fill-rule:evenodd;clip-rule:evenodd;fill:url(#SVGID_00000061436762124497686920000006712257317200688774_);}
	.st5{fill-rule:evenodd;clip-rule:evenodd;fill:url(#SVGID_00000166674144803844111900000015020671283996585400_);}
	.st6{fill-rule:evenodd;clip-rule:evenodd;fill:url(#SVGID_00000157272186991920930910000013747044369202324619_);}
	.st7{fill-rule:evenodd;clip-rule:evenodd;fill:url(#SVGID_00000093874909153007727390000014710780048256605104_);}
	.st8{fill-rule:evenodd;clip-rule:evenodd;fill:url(#SVGID_00000043458793849516623570000007529103395947315632_);}
	.st9{fill-rule:evenodd;clip-rule:evenodd;fill:url(#SVGID_00000155852694195279992180000013661188325020516241_);}
	.st10{fill-rule:evenodd;clip-rule:evenodd;fill:url(#SVGID_00000065777885324992782260000010567428860617591732_);}
	.st11{fill-rule:evenodd;clip-rule:evenodd;fill:url(#SVGID_00000099645911298676468120000001385950777772884915_);}
	.st12{fill-rule:evenodd;clip-rule:evenodd;fill:url(#SVGID_00000081607511647684263830000005515119352753437333_);}
	.st13{fill-rule:evenodd;clip-rule:evenodd;fill:url(#SVGID_00000163760545441299249400000004447042957497193614_);}
	.st14{fill-rule:evenodd;clip-rule:evenodd;fill:url(#SVGID_00000129913829554532263820000007389837154218482099_);}
	.st15{fill-rule:evenodd;clip-rule:evenodd;fill:url(#SVGID_00000174590717662086030260000013706175446601131417_);}
	.st16{fill-rule:evenodd;clip-rule:evenodd;fill:url(#SVGID_00000010282791505002477330000014747027274630826395_);}
	.st17{fill-rule:evenodd;clip-rule:evenodd;fill:url(#SVGID_00000005243520915946214650000010760829514635261326_);}
	.st18{fill-rule:evenodd;clip-rule:evenodd;fill:url(#SVGID_00000158747066315555528590000017307396130522044059_);}
	.st19{fill-rule:evenodd;clip-rule:evenodd;fill:url(#SVGID_00000054226654227934403550000008841237728982183565_);}
	.st20{fill-rule:evenodd;clip-rule:evenodd;fill:url(#SVGID_00000036948105262664976700000013378224194872944520_);}
	.st21{fill-rule:evenodd;clip-rule:evenodd;fill:url(#SVGID_00000062156501570506478430000005675744352830557863_);}
	.st22{fill-rule:evenodd;clip-rule:evenodd;fill:url(#SVGID_00000050642119178885317920000010727541565866120894_);}
	.st23{fill-rule:evenodd;clip-rule:evenodd;fill:url(#SVGID_00000023992749329266798810000000093426031516916388_);}
	.st24{fill-rule:evenodd;clip-rule:evenodd;fill:url(#SVGID_00000149363198661363464830000007217926771106181264_);}
	.st25{fill-rule:evenodd;clip-rule:evenodd;fill:url(#SVGID_00000179643001065311182310000011746661917581171585_);}
	.st26{fill-rule:evenodd;clip-rule:evenodd;fill:url(#SVGID_00000050637021555397035260000008983723417708239265_);}
	.st27{fill-rule:evenodd;clip-rule:evenodd;fill:url(#SVGID_00000076571274563980424860000017559660888652265642_);}
	.st28{fill-rule:evenodd;clip-rule:evenodd;fill:url(#SVGID_00000131337180978043516610000003239219442915646899_);}
	.st29{fill-rule:evenodd;clip-rule:evenodd;fill:url(#SVGID_00000101075024766701765270000013196239000789253528_);}
	.st30{fill-rule:evenodd;clip-rule:evenodd;fill:url(#SVGID_00000073696718138567141070000011085013631690596499_);}
	.st31{fill-rule:evenodd;clip-rule:evenodd;fill:url(#SVGID_00000016782470704201770520000006613343205876509070_);}
	.st32{fill:#3FA9F5;}
	.st33{fill:url(#SVGID_00000062874719636792096930000003232758328456472750_);}
	.st34{fill:url(#SVGID_00000150790977304713602640000012525731035166036906_);}
	.st35{fill:url(#SVGID_00000072978318313827316770000010592523795824229793_);}
	.st36{fill:url(#SVGID_00000114763506961790790860000015214159560908982939_);}
	.st37{fill:url(#SVGID_00000097492982504559826020000012326154440291639486_);}
	.st38{fill:url(#SVGID_00000069389825927615142740000015392443690837288364_);}
	.st39{fill:url(#SVGID_00000098912712969510353300000001749543129974773923_);}
	.st40{fill:url(#SVGID_00000018939482538350446910000005763831220141732773_);}
	.st41{fill:url(#SVGID_00000009555984913173415720000013347420121857905323_);}
	.st42{fill-rule:evenodd;clip-rule:evenodd;fill:url(#SVGID_00000043435981294069162950000016237006834505334406_);}
	.st43{fill-rule:evenodd;clip-rule:evenodd;fill:url(#SVGID_00000013878546333710792800000012749521528166724252_);}
	.st44{fill-rule:evenodd;clip-rule:evenodd;fill:url(#SVGID_00000108295010768384141510000003039765953848991408_);}
	.st45{fill-rule:evenodd;clip-rule:evenodd;fill:url(#SVGID_00000027569973015249774870000017144770469478994578_);}
	.st46{fill-rule:evenodd;clip-rule:evenodd;fill:url(#SVGID_00000166671353155482063790000002318485141389427100_);}
	.st47{fill-rule:evenodd;clip-rule:evenodd;fill:url(#SVGID_00000054244862410121439400000012037335789230399132_);}
	.st48{fill-rule:evenodd;clip-rule:evenodd;fill:url(#SVGID_00000092447483519632810280000017257866405093699721_);}
	.st49{fill-rule:evenodd;clip-rule:evenodd;fill:url(#SVGID_00000170237865230693666400000011591390596141687444_);}
	.st50{fill-rule:evenodd;clip-rule:evenodd;fill:url(#SVGID_00000167365573537188869420000012215907093031487149_);}
	.st51{fill-rule:evenodd;clip-rule:evenodd;fill:url(#SVGID_00000115496042930400376510000002629412576275807663_);}
	.st52{fill-rule:evenodd;clip-rule:evenodd;fill:url(#SVGID_00000051376150069238071360000003381332137993833633_);}
	.st53{fill-rule:evenodd;clip-rule:evenodd;fill:url(#SVGID_00000163052963612420959190000001763587726838982025_);}
	.st54{fill-rule:evenodd;clip-rule:evenodd;fill:url(#SVGID_00000080187301246896032620000006927105089539792301_);}
</style>
<g>
	<linearGradient id="SVGID_1_" gradientUnits="userSpaceOnUse" x1="265.2401" y1="-491.1337" x2="265.2401" y2="1231.0623">
		<stop  offset="0" style="stop-color:#333333"/>
		<stop  offset="1" style="stop-color:#000000"/>
	</linearGradient>
	<path class="st1" d="M253.24,762.98c-18.76,64.82-28.78,133.41-28.78,204.33c0,33,2.19,65.53,6.41,97.41h75.14
		c-15.81-18.86-26.18-42.61-29.59-68.13l-13.88-7.93c-7.17-4.07-11.9-11.39-12.71-19.57c0,0-1.27-13.17-2.8-32.54
		c-1.17-15.96,3.86-25.93,9.46-32.95c-0.1-0.36-0.25-0.71-0.36-1.12l-1.27-7.07c-0.15-0.81-0.2-1.58-0.31-2.39l-1.47-8.95
		c-0.25-1.53-0.35-3-0.35-4.52c-0.51-1.42-0.87-2.9-1.12-4.42l-2.74-16.52c-2.19-12.86,2.13-21.66,7.52-27.66L253.24,762.98z"/>
	
		<linearGradient id="SVGID_00000156557172974322256810000002706432259955169157_" gradientUnits="userSpaceOnUse" x1="930.8822" y1="1543.6665" x2="930.8822" y2="1719.8505">
		<stop  offset="0" style="stop-color:#333333"/>
		<stop  offset="1" style="stop-color:#000000"/>
	</linearGradient>
	<path style="fill-rule:evenodd;clip-rule:evenodd;fill:url(#SVGID_00000156557172974322256810000002706432259955169157_);" d="
		M1077.18,1693.58c-23.54-0.71-53.59-3.81-91.87-10.83c-102.29-18.76-168.84-9-200.72-0.97c56.23,13.78,114.95,21.05,175.4,21.05
		C999.85,1702.83,1039.05,1699.68,1077.18,1693.58z"/>
	
		<linearGradient id="SVGID_00000120551590256952512010000012650913912917932949_" gradientUnits="userSpaceOnUse" x1="959.9888" y1="846.3632" x2="959.9888" y2="1769.4139">
		<stop  offset="0" style="stop-color:#333333"/>
		<stop  offset="1" style="stop-color:#000000"/>
	</linearGradient>
	<path style="fill-rule:evenodd;clip-rule:evenodd;fill:url(#SVGID_00000120551590256952512010000012650913912917932949_);" d="
		M690.43,1651.84c28.47,11.24,57.86,20.74,87.96,28.42c24.15-10.68,77.69-26.44,172.5-18.05c114.8,9.91,182.93,13.93,202.25,15
		c110.43-30,210.48-85.06,293.76-158.68h-135.8c23.49,3.71,48.45,6.51,76.31,5.69c-63.04,36.15-172.4-12.2-270.73,1.68
		c5.9-2.8,11.64-5.24,17.34-7.37h-58.16c3.56,0.71,5.49,1.32,5.49,1.32s-7.78,1.47-60.7,9.86c-41.89,6.86-80.33-5.64-94.57-11.19
		h-453c50.49,44.69,107.17,82.52,168.64,111.95c13.57,0.1,27.81,0.51,42.45,1.32c81.3,4.68,99.19,6.91,99.19,6.91
		S757.34,1657.08,690.43,1651.84z M1145.31,1566.48c97.77,28.32,191.52,24.86,191.52,24.86s-94.57,36.2-189.79,3.46
		c-91.31-31.22-173.88,2.8-180.89,5.8C973,1595.46,1051.61,1539.38,1145.31,1566.48z M1035.08,1619.4
		c39.35,5.8,62.48,4.02,62.48,4.02s-40.22,18.2-78.96,6.91c-38.79-10.93-66.3-15.3-66.3-15.3S995.48,1613.35,1035.08,1619.4z
		 M641.62,1549.7c0,0,52.67,1.68,130.26-4.68c77.08-6.05,97.97-6.91,147.54,23.39c-3.15-1.42-40.06-17.24-121.26-4.02
		C712.8,1578.32,641.62,1549.7,641.62,1549.7z M723.78,1593.88c0,0,61.92,2.34,89.69,0c27.81-2.24,49.52,6.97,49.52,6.97
		s-25.47,4.68-71.23,3.76C746.05,1604.05,723.78,1593.88,723.78,1593.88z"/>
	
		<linearGradient id="SVGID_00000075865105140170045630000003729432750294121623_" gradientUnits="userSpaceOnUse" x1="1427.1213" y1="-673.1294" x2="1427.1213" y2="1016.8572">
		<stop  offset="0" style="stop-color:#333333"/>
		<stop  offset="1" style="stop-color:#000000"/>
	</linearGradient>
	<path style="fill-rule:evenodd;clip-rule:evenodd;fill:url(#SVGID_00000075865105140170045630000003729432750294121623_);" d="
		M1384.87,770.65l-13.32,8.49l42.3,58.87l20.08,15.61c4.68-19.78,9.51-38.89,13.93-56.03c10.12-38.33,21.35-79.06,34.83-118.92
		l-5.85-15.71l-93.85-105.45l39.15,96.34l-14.74,20.95c0,0,39.86,39,37.32,44.23c-2.64,5.39,5.29,43.62,5.29,43.62l-20.18,11.08
		L1384.87,770.65z"/>
	
		<linearGradient id="SVGID_00000000924018588844502740000001692525285775011492_" gradientUnits="userSpaceOnUse" x1="969.0641" y1="-2189.5171" x2="969.0641" y2="1125.4591">
		<stop  offset="0" style="stop-color:#333333"/>
		<stop  offset="1" style="stop-color:#000000"/>
	</linearGradient>
	<path style="fill-rule:evenodd;clip-rule:evenodd;fill:url(#SVGID_00000000924018588844502740000001692525285775011492_);" d="
		M401.19,481.67c73.97-10.98,137.37-19.62,212.01-29.03l7.83-1.02c24.56-3.2,42.5-5.54,64.62,6.61l50.23,19.57
		c0.61,0.25,1.22,0.56,1.88,0.86l84.7,41.23c3.46,1.68,6.71,3.66,9.66,5.9h198.59l-178.86,25.57c3.25,8.08,4.78,16.98,4.22,26.08
		l-7.58,125.53l201.23-152.07l46.32,63.2c0,0,55.06,0.15,63.15,6.91c2.54,2.08,10.32,9.2,19.32,17.49l-12.61,13.52
		c-11.39-8.03-23.08-15.96-25.52-16.73c-3.66-0.76-40.42-5.39-61.11-7.83l-31.67-44.03l10.47,83.02l-34.27-8.19l24.96,41.28
		l-6.4,20.39l-43.42,19.27l18.86,53.54l-55.87-46.88l-27,15.15l34.57,44.23h53.38c75.65-75.19,224.67-223.04,233.26-230.36
		c11.64-9.71,40.32,11.59,40.32,11.59l66.86-74.28l120.09,124.31V529.11c0-14.03,11.39-25.42,25.42-25.42h28.11
		c-17.64-22.22-36.5-43.42-56.54-63.45l-353.25-52.16h295.39c-126.34-102.29-287.31-163.61-462.56-163.61
		c-107.22,0-209.21,22.93-301.08,64.26l17.39-4.88h199.3l-286.7,40.98C517.87,366.36,454.42,419.49,401.19,481.67z"/>
	
		<linearGradient id="SVGID_00000111879222815255730300000004695904373003208084_" gradientUnits="userSpaceOnUse" x1="1483.5807" y1="-3342.396" x2="1483.5807" y2="1427.8112">
		<stop  offset="0" style="stop-color:#333333"/>
		<stop  offset="1" style="stop-color:#000000"/>
	</linearGradient>
	<path style="fill-rule:evenodd;clip-rule:evenodd;fill:url(#SVGID_00000111879222815255730300000004695904373003208084_);" d="
		M1611.57,529.13c24.96,37.67,46.77,77.69,64.97,119.58c18,41.39,32.54,84.7,43.22,129.44c12.51,52.32,19.73,106.67,21.05,162.44
		h0.05c0.1,6.46,0.2,12.91,0.2,19.42c0,2.34-0.1,4.73-0.1,7.07h171.23l-123.49-100.31c-0.41-3.46-0.81-6.91-1.27-10.32v-0.05
		c-10.52-84.55-33.76-165.23-67.67-239.97c-12.86-28.47-27.35-56.08-43.22-82.72c-0.91-1.53-1.83-3.05-2.8-4.58
		c-130.61-215.82-356.15-367.74-618.79-397.83v53.43C1287.36,212.89,1488.23,343.05,1611.57,529.13z"/>
	
		<linearGradient id="SVGID_00000137117134212698089060000017748810704065523879_" gradientUnits="userSpaceOnUse" x1="547.0672" y1="-3593.6643" x2="547.0672" y2="1341.3008">
		<stop  offset="0" style="stop-color:#333333"/>
		<stop  offset="1" style="stop-color:#000000"/>
	</linearGradient>
	<path style="fill-rule:evenodd;clip-rule:evenodd;fill:url(#SVGID_00000137117134212698089060000017748810704065523879_);" d="
		M960,178.94c1.67,0,3.33,0.04,5.02,0.05V0L864.1,131.11C479,174.56,173.31,479.84,129.12,864.65h55.62
		C231.76,478.26,560.91,178.94,960,178.94z"/>
	
		<linearGradient id="SVGID_00000035530427208874713950000000910955905788455870_" gradientUnits="userSpaceOnUse" x1="898.1698" y1="-3056.2998" x2="898.1698" y2="2452.0295">
		<stop  offset="0" style="stop-color:#333333"/>
		<stop  offset="1" style="stop-color:#000000"/>
	</linearGradient>
	<path style="fill-rule:evenodd;clip-rule:evenodd;fill:url(#SVGID_00000035530427208874713950000000910955905788455870_);" d="
		M1730.35,1089.4H189.62c-7.02-42.09-10.68-85.32-10.68-129.4c0-1.71,0.05-3.41,0.05-5.11H7.8l121.09,100.57
		c43.4,385.33,348.89,691.23,733.97,735.25v-55.64c-194.98-24.18-367.66-120.23-490.74-260.81h1175.73
		c-143.16,163.53-353.44,266.81-587.86,266.81c-2.4,0-4.78-0.07-7.17-0.08V1920l100.29-129.11
		c385.54-43.34,691.59-349.11,735.42-734.47h-53.4C1733.78,1067.49,1732.17,1078.48,1730.35,1089.4z M465.7,1261.55h-56.94v-38.06
		c0-11.06-0.61-17.97-1.83-20.72c-1.22-2.74-3.9-4.12-8.05-4.12c-4.69,0-7.67,1.67-8.93,5c-1.26,3.34-1.89,10.55-1.89,21.64v101.72
		c0,10.64,0.63,17.58,1.89,20.83c1.26,3.25,4.1,4.87,8.52,4.87c4.24,0,7.01-1.63,8.32-4.88c1.31-3.25,1.96-10.89,1.96-22.91v-27.52
		h56.94v8.53c0,22.67-1.6,38.74-4.8,48.22c-3.2,9.48-10.28,17.79-21.24,24.93c-10.96,7.13-24.46,10.7-40.51,10.7
		c-16.68,0-30.43-3.02-41.25-9.06c-10.82-6.04-17.99-14.4-21.51-25.09c-3.52-10.68-5.27-26.76-5.27-48.22v-63.98
		c0-15.78,0.54-27.61,1.62-35.51c1.08-7.89,4.31-15.49,9.67-22.79c5.36-7.31,12.8-13.05,22.31-17.25c9.51-4.19,20.45-6.29,32.8-6.29
		c16.77,0,30.61,3.24,41.53,9.73c10.91,6.48,18.08,14.57,21.5,24.25c3.43,9.68,5.14,24.74,5.14,45.18V1261.55z M617.19,1385.17
		h-57.08v-175.29h-16.91v175.29h-57.08v-219.12h131.06V1385.17z M738.65,1385.17h-98.74v-218.98h94.95v43.82h-38.01v41.53h35.58
		v41.66h-35.58v48.15h41.79V1385.17z M897.72,1422.91h-39.36v-37.73H755.02v-219.12h57.08v175.29h16.91v-175.29h57.08v175.29h11.63
		V1422.91z M1027.56,1210.01h-33.81v175.16h-56.94v-175.16h-33.68v-43.82h124.43V1210.01z M1163.22,1246.54
		c0,13.98-1.44,24.17-4.33,30.57c-2.89,6.4-8.18,11.32-15.9,14.74c-7.71,3.43-17.78,5.14-30.23,5.14h-15.29v88.19h-56.94v-218.98
		h57.35c15.51,0,27.44,1.22,35.77,3.65c8.34,2.43,14.61,5.95,18.81,10.55c4.19,4.6,7.03,10.17,8.52,16.7
		c1.49,6.54,2.23,16.66,2.23,30.36V1246.54z M1252.39,1385.17l-3.05-39.36h-20.37l-3.43,39.36h-58.87l29.05-218.98h82.3
		l32.56,218.98H1252.39z M1451.19,1385.17h-56.94v-91.98h-17.05v91.98h-56.94v-218.98h56.94v78.31h17.05v-78.31h56.94V1385.17z
		 M1607,1261.55h-56.94v-38.06c0-11.06-0.61-17.97-1.83-20.72c-1.22-2.74-3.9-4.12-8.05-4.12c-4.69,0-7.67,1.67-8.93,5
		c-1.26,3.34-1.89,10.55-1.89,21.64v101.72c0,10.64,0.63,17.58,1.89,20.83c1.26,3.25,4.1,4.87,8.52,4.87c4.24,0,7.01-1.63,8.32-4.88
		c1.31-3.25,1.96-10.89,1.96-22.91v-27.52H1607v8.53c0,22.67-1.6,38.74-4.8,48.22c-3.2,9.48-10.28,17.79-21.24,24.93
		c-10.96,7.13-24.46,10.7-40.51,10.7c-16.68,0-30.43-3.02-41.25-9.06c-10.82-6.04-17.99-14.4-21.51-25.09
		c-3.52-10.68-5.27-26.76-5.27-48.22v-63.98c0-15.78,0.54-27.61,1.62-35.51c1.08-7.89,4.31-15.49,9.67-22.79
		c5.36-7.31,12.8-13.05,22.31-17.25c9.51-4.19,20.45-6.29,32.8-6.29c16.77,0,30.61,3.24,41.53,9.73
		c10.91,6.48,18.08,14.57,21.5,24.25c3.43,9.68,5.14,24.74,5.14,45.18V1261.55z"/>
	
		<linearGradient id="SVGID_00000016779034245831029840000016454635962662624181_" gradientUnits="userSpaceOnUse" x1="1238.043" y1="832.7647" x2="1238.043" y2="1357.6954">
		<stop  offset="0" style="stop-color:#333333"/>
		<stop  offset="1" style="stop-color:#000000"/>
	</linearGradient>
	<path style="fill-rule:evenodd;clip-rule:evenodd;fill:url(#SVGID_00000016779034245831029840000016454635962662624181_);" d="
		M1228.24,1306.99h19.6c-2.88-24.8-5.77-55.46-8.67-91.97C1233.37,1256.95,1229.73,1287.61,1228.24,1306.99z"/>
	
		<linearGradient id="SVGID_00000096051209938603947040000006144384871263810997_" gradientUnits="userSpaceOnUse" x1="1106.551" y1="971.4887" x2="1106.551" y2="1290.3137">
		<stop  offset="0" style="stop-color:#333333"/>
		<stop  offset="1" style="stop-color:#000000"/>
	</linearGradient>
	<path style="fill-rule:evenodd;clip-rule:evenodd;fill:url(#SVGID_00000096051209938603947040000006144384871263810997_);" d="
		M1097.49,1203.66v55.73c1.63,0.09,3.02,0.13,4.19,0.13c5.23,0,8.86-1.28,10.89-3.85c2.03-2.57,3.04-7.91,3.04-16.03v-17.99
		c0-7.48-1.18-12.35-3.52-14.61C1109.75,1204.79,1104.88,1203.66,1097.49,1203.66z"/>
	
		<linearGradient id="SVGID_00000128445365486649790570000013954149120800749231_" gradientUnits="userSpaceOnUse" x1="280.5056" y1="861.207" x2="280.5056" y2="901.8041">
		<stop  offset="0" style="stop-color:#333333"/>
		<stop  offset="1" style="stop-color:#000000"/>
	</linearGradient>
	
		<polygon style="fill-rule:evenodd;clip-rule:evenodd;fill:url(#SVGID_00000128445365486649790570000013954149120800749231_);" points="
		281.16,897.88 279.99,890.85 279.85,890.77 	"/>
	
		<linearGradient id="SVGID_00000153690089625911452240000005016988557851676860_" gradientUnits="userSpaceOnUse" x1="448.0761" y1="-208.1535" x2="448.0761" y2="832.7059">
		<stop  offset="0" style="stop-color:#333333"/>
		<stop  offset="1" style="stop-color:#000000"/>
	</linearGradient>
	<path style="fill-rule:evenodd;clip-rule:evenodd;fill:url(#SVGID_00000153690089625911452240000005016988557851676860_);" d="
		M285.63,708.73c9.96,44.69,241.5,15.3,287.76-4.63c27.15-8.59,28.06-14.49,31.62-56.99c2.08-25.42,3.81-45.91,5.13-61.62
		c0.25-2.19,0.51-4.27,0.71-6.36l-17.74,0.05c-14.64,0.71-24.56,4.68-25.06,13.02c3.91,0.2,8.8,0.97,12.61,2.39
		c8.69,3.2,5.34,11.8,3.86,22.93c-1.68,12.41-4.12,31.01-7.42,55.67c-3.2,23.64-24.2,17.59-27.96,3.25c0,0-0.05-26.03-0.2-78.14
		c2.08-20.39,16.47-31.42,43.11-33.35l18.25-0.2c-2.24-10.83-9.81-17.54-29.23-13.98c-104.28,12-151.51,17.18-218.31,28.93
		c-10.12,1.37-18.56,3.46-25.37,6.51c-4.12,1.83-7.68,4.02-10.58,6.56c-2.39,2.08-4.42,4.42-6,7.07l-2.08,0.05
		c-2.75,4.83-5.39,9.66-7.98,14.54h4.63l-28.98,85.31C285.22,702.98,285.02,705.98,285.63,708.73z M484.72,580.41L378.21,713.92
		c-11.13,0.05-22.22-0.15-33-0.97c-2.39-0.15-6.71-0.56-11.8-1.22l99.4-124.51C450.1,584.78,467.44,582.54,484.72,580.41z
		 M304.13,704.26l88.67-111.04c6.97-1.12,13.93-2.19,20.9-3.25l-95.23,119.27c-6.05-1.27-11.49-2.9-14.34-4.93V704.26z"/>
	
		<linearGradient id="SVGID_00000002346074833899261530000008270549254128847777_" gradientUnits="userSpaceOnUse" x1="652.5255" y1="-782.8135" x2="652.5255" y2="1089.7723">
		<stop  offset="0" style="stop-color:#333333"/>
		<stop  offset="1" style="stop-color:#000000"/>
	</linearGradient>
	<path style="fill-rule:evenodd;clip-rule:evenodd;fill:url(#SVGID_00000002346074833899261530000008270549254128847777_);" d="
		M629.37,899.89c0.05-17.54,0.71-35.49,3.71-45.2c9.1-29.03,32.69-51.3,67.62-50.89l102.5-0.31l-5.24-4.47l-136.51-9.05
		c-19.12-2.14-25.73-3.66-24.1-37.17c2.9-57.76,5.08-115.36,4.88-172c-12.66,62.94-20.54,170.12-25.27,234.68
		c-4.27,13.12-10.47,15.1-28.12,18.56l-73.01,15.61c-10.07,2.14-13.98,5.49-13.98,20.59v37.47l21.91,0.92
		C560.32,910.21,593.47,904.52,629.37,899.89z M609.08,869.49c0,10.17,0,15.3,0,15.3c-48.1,1.98-72.14,3-72.14,3
		C572.93,879.3,596.98,873.2,609.08,869.49z"/>
	
		<linearGradient id="SVGID_00000038408179381883274760000010196719596940225931_" gradientUnits="userSpaceOnUse" x1="309.8842" y1="72.2812" x2="309.8842" y2="990.0557">
		<stop  offset="0" style="stop-color:#333333"/>
		<stop  offset="1" style="stop-color:#000000"/>
	</linearGradient>
	<path style="fill-rule:evenodd;clip-rule:evenodd;fill:url(#SVGID_00000038408179381883274760000010196719596940225931_);" d="
		M273.93,854.45l2.75,16.49c4.43,1.13,9.27,2.32,14.49,3.61c8.84,2.16,18.81,4.55,29.94,7.18l-29.68-1.25l-13.26-0.56l1.82,10.92
		l4.53,2.45l11.23,6.08l50.3,2.04l-1.9-32.89c-0.1-9.61-2.3-14.91-12.83-17.34l-28.39-6.09c-6.39-1.19-7.31-2.72-8.32-11.2
		c-3.53-31.37-8.33-76.26-8.64-93.29c-0.27,0.37-0.55,0.76-0.85,1.17c-3,4.16-6.93,10.09-6.64,16.42l3.92,84.55
		C275.64,846.92,272.91,848.37,273.93,854.45z"/>
	
		<linearGradient id="SVGID_00000087382887897806736110000012446117393013482653_" gradientUnits="userSpaceOnUse" x1="586.2751" y1="-846.5915" x2="586.2751" y2="977.5989">
		<stop  offset="0" style="stop-color:#333333"/>
		<stop  offset="1" style="stop-color:#000000"/>
	</linearGradient>
	<path style="fill-rule:evenodd;clip-rule:evenodd;fill:url(#SVGID_00000087382887897806736110000012446117393013482653_);" d="
		M342.93,575.13c-0.43,2.36-0.82,4.78-1.16,7.27c8.94-26.21,24.69-43.65,47.26-52.31l13.94-1.84c-5.26,6.78-9.62,15.99-13.11,27.62
		c-13.27,3.59-23.11,7.41-27.75,11.35c162.62-23.26,243.94-34.89,243.94-34.89c-16.59-0.88-42.88,0.06-72.26,2.35
		c1.21-7.69,2.74-15.81,4.6-24.38l98.83-13.1c-2,9.66-4.96,33.51-1.58,60.2c5.97-26,10.97-49.15,14.99-57.02
		c34.26,13.16,62.05,24.02,83.46,32.47c10.48,4.14,19.43,7.71,26.86,10.68c9.64,4.61,19.95,9.47,30.96,14.62
		c14.38,6.72,24.3,14.24,25.62,48.2v195.05l13.18-218.18c0.84-13.96-6.81-27.05-19.38-33.16l-84.72-41.23l-51.9-20.26
		c-17.11-9.93-29.45-7.02-58.33-3.39c-71.32,8.97-135.61,17.72-211.97,29.06C366.75,519.85,349.36,540.41,342.93,575.13z"/>
	
		<linearGradient id="SVGID_00000165952727783745889570000014009655433052865967_" gradientUnits="userSpaceOnUse" x1="436.3693" y1="397.5147" x2="436.3693" y2="868.5185">
		<stop  offset="0" style="stop-color:#333333"/>
		<stop  offset="1" style="stop-color:#000000"/>
	</linearGradient>
	<path style="fill-rule:evenodd;clip-rule:evenodd;fill:url(#SVGID_00000165952727783745889570000014009655433052865967_);" d="
		M560.43,798.72l8.03-47.99c0.97-4.32,2.9-11.69-10.07-9.96c-82.26,8.8-169.66,11.69-237.63,10.78
		c-12.86-0.15-17.74,2.24-17.13,9.71l2.95,41.13c0.25,14.59,6.25,20.84,22.01,20.64c97.62-0.81,163.96-1.37,198.89-1.63
		C544.41,821.04,558.9,815.04,560.43,798.72z M322.39,772.23c125.99-1.88,207.64-6.05,237.73-10.02c-6.61,7.68-6.51,7.68-17.39,8.49
		c-68.18,4.22-145.56,5.9-232.7,6.97C314.56,773.15,314.1,772.33,322.39,772.23z M560.02,776.4c-6.61,7.63-6.51,7.68-17.34,8.44
		c-68.03,4.07-145.15,5.49-232.04,6.41c4.52-4.52,4.12-5.34,12.35-5.44C448.57,784.23,529.97,780.21,560.02,776.4z M310.24,805.43
		c4.58-4.47,4.12-5.34,12.3-5.39c124.46-0.97,205.14-4.58,234.94-8.29c-6.61,7.58-6.46,7.63-17.24,8.29
		C472.83,803.8,396.31,804.87,310.24,805.43z"/>
	
		<linearGradient id="SVGID_00000123411467781508904710000004021080501444262591_" gradientUnits="userSpaceOnUse" x1="723.093" y1="-386.9873" x2="723.093" y2="906.2954">
		<stop  offset="0" style="stop-color:#333333"/>
		<stop  offset="1" style="stop-color:#000000"/>
	</linearGradient>
	<path style="fill-rule:evenodd;clip-rule:evenodd;fill:url(#SVGID_00000123411467781508904710000004021080501444262591_);" d="
		M679.65,679.39l88.57,8.54l5.95,93.45h6.76l2.69-89.07l2.39-77.13c-0.25-15.2-3.51-17.49-14.13-22.83l-21.91-8.34l-66.35-25.37
		c-21.56-9.35-23.44-0.66-23.44,14.95v85.06C660.58,672.02,662.77,678.78,679.65,679.39z M742.95,596.98l-32.44,70.72l-7.68-0.76
		l33.3-72.55L742.95,596.98z M717.17,587.12l13.63,5.19l-33.96,74.08l-15.41-1.53L717.17,587.12z"/>
	
		<linearGradient id="SVGID_00000143599990678370806000000005634139967729089453_" gradientUnits="userSpaceOnUse" x1="1657.9775" y1="676.0001" x2="1657.9775" y2="1058.4858">
		<stop  offset="0" style="stop-color:#333333"/>
		<stop  offset="1" style="stop-color:#000000"/>
	</linearGradient>
	<path style="fill-rule:evenodd;clip-rule:evenodd;fill:url(#SVGID_00000143599990678370806000000005634139967729089453_);" d="
		M1645.47,1014.15c2.74,4.66,6.18,7.42,9.89,7.39c8.58-0.11,15.35-15.19,15.12-33.7c-0.07-5.57-0.77-10.81-1.94-15.41
		c-0.96-3.78-2.24-7.12-3.75-9.87c-2.78-5.05-6.37-8.08-10.26-8.03c-2.95,0.04-5.69,1.85-8.01,4.97c1.58,0.62,3.07,1.66,4.43,3.06
		c2.33,2.38,4.29,5.79,5.69,9.87c1.4,4.09,2.24,8.87,2.3,13.97C1659.11,1000.69,1653.22,1012.53,1645.47,1014.15z"/>
	
		<linearGradient id="SVGID_00000047751180206000604750000016672699305751020940_" gradientUnits="userSpaceOnUse" x1="1575.9609" y1="676.0001" x2="1575.9609" y2="1058.4858">
		<stop  offset="0" style="stop-color:#333333"/>
		<stop  offset="1" style="stop-color:#000000"/>
	</linearGradient>
	<path style="fill-rule:evenodd;clip-rule:evenodd;fill:url(#SVGID_00000047751180206000604750000016672699305751020940_);" d="
		M1563.46,1014.15c2.74,4.66,6.17,7.42,9.88,7.39c8.59-0.11,15.35-15.19,15.12-33.7c-0.07-5.57-0.76-10.81-1.95-15.41
		c-0.96-3.78-2.24-7.12-3.75-9.87c-2.77-5.05-6.36-8.08-10.24-8.03c-2.95,0.04-5.69,1.85-8.01,4.97c1.58,0.62,3.07,1.66,4.44,3.06
		c2.33,2.38,4.28,5.79,5.68,9.87c1.41,4.09,2.24,8.87,2.29,13.97C1577.09,1000.69,1571.2,1012.53,1563.46,1014.15z"/>
	
		<linearGradient id="SVGID_00000166638751258385445930000012979631610863886271_" gradientUnits="userSpaceOnUse" x1="983.8819" y1="-1659.2706" x2="983.8819" y2="1355.9509">
		<stop  offset="0" style="stop-color:#333333"/>
		<stop  offset="1" style="stop-color:#000000"/>
	</linearGradient>
	<path style="fill-rule:evenodd;clip-rule:evenodd;fill:url(#SVGID_00000166638751258385445930000012979631610863886271_);" d="
		M1325.79,980.78c0.05,5.85,0.41,11.59,1.17,17.08l5.8,24.1c7.83,21.86,21.46,37.93,37.47,42.66c0.1,0.05,0.2,0.1,0.31,0.1h72.6
		c1.63-0.36,3.2-0.76,4.78-1.32c1.32,0.51,2.64,0.97,3.97,1.32h72.55c1.78-0.36,3.51-0.86,5.24-1.47c1.88,0.66,3.76,1.17,5.75,1.47
		h153.74c2.54-19.37,4.37-39,5.34-58.82c0.71-12.76,1.02-25.62,1.02-38.59c0-20.95-0.86-41.69-2.59-62.18h-16.37V800.6
		c-22.42-96.8-63.96-186.23-120.39-264.17h-47.33v151.61c-13.93,40.47-25.37,81.75-36.35,123.19c-7.88,30.71-15.76,62.43-22.37,93.9
		h-180.95l-4.07-10.07l-12.41-25.93l-42.81-31.11H826.33v-0.31H719.51c-68.23-1.22-77.69,47.28-80.43,98.84h-9.56
		c0.05-3.91,0-8.8-0.05-14.18l-79.72,5.95l-245.92-12l-20.34-5.64l-0.76-4.27c0,0.36,0,0.81,0.05,1.17c0.05,1.53,0.25,3.1,0.46,4.73
		c-7.27,7.22-11.74,10.27-10.88,22.22c1.53,19.12,2.8,32.08,2.8,32.08l25.52,14.59c0.86,35.13,17.54,65.79,42.4,83.53h99.55
		c19.32-13.78,33.76-35.44,39.61-60.91l67.31,1.88c8.19,24,20.95,45.4,41.33,59.03h156.69c7.22-6.46,13.58-14.69,19.01-24.25
		l253.45,0.66c4.12,9.3,9.2,17.29,15.05,23.59h202.45c7.78-8.49,13.98-20.08,18.1-33.66h24.76c9.25,0,8.03,0.41,8.03-11.24v-56.94
		h38.39c-0.51,3.1-0.66,4.88-0.66,4.88C1325.84,972.04,1325.64,976.31,1325.79,980.78z M1636.79,1000.92v-37.52
		c1.02-3.2,2.24-6.15,3.66-8.59c3.51-6.71,8.34-10.83,13.57-10.88c7.27-0.15,13.83,7.42,17.69,18.96c1.02,3.05,1.88,6.36,2.54,9.86
		c0.86,4.73,1.37,9.66,1.42,14.9c0.31,24.25-8.9,44.08-20.59,44.18c-7.78,0.1-14.64-8.59-18.51-21.56
		C1636.74,1007.12,1636.79,1004.12,1636.79,1000.92z M1582.75,933.3c12.56,4.98,20.54,16.17,24.91,29.59
		c2.8,8.54,4.07,18.1,4.07,27.35c0,16.22-3.86,31.93-10.62,41.74c-1.42,2.19-2.95,4.02-4.68,5.49c-1.73,1.58-3.41,2.75-5.29,3.61
		c1.88-2.85,3.56-5.9,5.19-9c10.47-21.25,11.9-47.84,4.93-69.2c-4.02-12.25-10.93-22.83-20.44-29.64c-0.46-0.46-1.07-0.76-1.58-1.02
		C1580.46,932.43,1581.63,932.79,1582.75,933.3z M1551.78,978.6v-0.05c0.25-1.93,0.51-3.91,0.81-5.8c0.41-2.54,0.97-5.03,1.58-7.37
		c0.31-0.81,0.51-1.68,0.76-2.49c0.97-3,2.14-5.8,3.46-8.08c0.35-0.71,0.66-1.37,1.12-2.03c3.46-5.54,7.73-8.8,12.51-8.85
		c7.27-0.15,13.73,7.42,17.69,18.96c0.97,3.05,1.88,6.36,2.54,9.86c0.86,4.73,1.37,9.66,1.47,14.9
		c0.25,24.25-8.95,44.08-20.59,44.18c-4.88,0.05-9.41-3.25-12.91-8.9c-5.24-7.98-8.59-20.59-8.8-34.78
		C1551.38,984.85,1551.48,981.65,1551.78,978.6z M1480.66,813.36c10.52-40.93,20.54-81.96,28.17-123.54v244.24l-19.78-28.93h-34.47
		C1464.03,874.73,1472.62,843.66,1480.66,813.36z M334.28,993.29c10.93,1.02,8.64,2.44,16.78,2.8
		c3.31,21.86,17.69,38.69,45.96,49.57C357.52,1050.33,337.59,1024,334.28,993.29z M704.36,1014.44c-17.39,0-31.47-29.34-31.47-65.43
		c0-36.25,14.08-65.53,31.47-65.53c17.34,0,31.37,29.28,31.37,65.53C735.73,985.1,721.7,1014.44,704.36,1014.44z M734.15,1025.52
		c35.33-49.77,28.32-131.17-15.61-160.1C783.57,884.13,774.67,1008.49,734.15,1025.52z M814.74,994.66h-10.02
		c1.47-61.72-2.59-104.99-23.84-126.6h33.86V994.66z M828,922.77v-7.02c0-1.68,1.42-3.15,3.1-3.15h9.71l6.1,9.3v3.91h-15.81
		C829.43,925.82,828,924.45,828,922.77z M999.8,991.56c0,1.42-1.17,2.59-2.54,2.59H832.73c-1.37,0-2.59-1.17-2.59-2.59v-8.08
		c0-1.42,1.22-2.54,2.59-2.54h14.19v0.61c0,3.86,3.1,7.07,7.07,7.07c0.97,0,1.93-0.2,2.74-0.66c-0.61-1.07-1.02-2.29-1.02-3.66
		v-59.54l-7.93-12.15l-11.85-18.1c-2.13-3.2-1.22-7.63,2.08-9.71c0.31-0.25,0.66-0.41,0.97-0.61c3.15-1.32,6.81-0.3,8.69,2.64
		l16.98,25.78h94.51l6.1,9.3v3.91h-95.53v55.11h95.53v0.61c0,3.86,3.1,7.07,7.07,7.07c1.12,0,2.29-0.31,3.25-0.86
		c-0.61-0.97-0.91-2.14-0.91-3.46v-59.54l-7.98-12.15l-11.8-18.1c-2.19-3.2-1.27-7.63,1.98-9.71c0.25-0.1,0.41-0.25,0.61-0.36
		c3.2-1.68,7.17-0.66,9.15,2.39l16.88,25.78h10.93c1.78,0,3.1,1.47,3.1,3.15v7.02c0,1.68-1.32,3.05-3.1,3.05h-5.69v55.11h8.49
		c1.37,0,2.54,1.12,2.54,2.54V991.56z M1124.05,1032.08c-12.46,0-22.52-21.05-22.52-47.03c0-25.98,10.07-46.98,22.52-46.98
		c12.51,0,22.57,21,22.57,46.98C1146.63,1011.03,1136.56,1032.08,1124.05,1032.08z M1143.17,1042.15
		c25.27-36.25,20.34-95.48-11.24-116.58C1178.56,939.24,1172.15,1029.79,1143.17,1042.15z M1205.15,1034.88
		c-11.79,0-21.35-19.83-21.35-44.38c0-24.45,9.56-44.28,21.35-44.28c11.69,0,21.2,19.83,21.2,44.28
		C1226.35,1015.05,1216.84,1034.88,1205.15,1034.88z M1223.04,1044.33c23.9-34.17,19.22-90.04-10.52-109.92
		c7.22,2.14,13.07,6.25,17.69,11.59c1.83,2.14,3.51,4.42,4.98,6.91C1252.58,982.51,1244.19,1035.28,1223.04,1044.33z M1253.5,951.19
		l-22.93-39.15l-1.78-3.1c-4.22-6.15-5.9-7.07-11.59-7.17l-107.94-5.8l-1.58-6.76l-25.83,43.06c-5.85,9.61-6.15,8.49-14.24,8.49
		h-40.16c-7.83,0-8.8-1.42-4.63-10.07l27.15-43.27c5.64-9.05,9.96-12.46,19.12-11.59l157.05,9c4.98,0.41,5.8-1.02,9.3,6.2l1.93,4.02
		l27.1,56.13H1253.5z"/>
	
		<linearGradient id="SVGID_00000086657187730594384140000013873758837545034413_" gradientUnits="userSpaceOnUse" x1="1208.0007" y1="676.6019" x2="1208.0007" y2="1062.0525">
		<stop  offset="0" style="stop-color:#333333"/>
		<stop  offset="1" style="stop-color:#000000"/>
	</linearGradient>
	<path style="fill-rule:evenodd;clip-rule:evenodd;fill:url(#SVGID_00000086657187730594384140000013873758837545034413_);" d="
		M1205.11,957.29c-2.98,0-5.77,1.8-8.14,4.91c6.97,2.82,12.19,13.96,12.19,27.28c0,14.4-6.09,26.25-13.91,27.79
		c2.69,4.72,6.12,7.55,9.87,7.55c8.65,0,15.66-15.11,15.66-33.77C1220.76,972.41,1213.75,957.29,1205.11,957.29z"/>
	
		<linearGradient id="SVGID_00000001654396040465252850000008296288102285841296_" gradientUnits="userSpaceOnUse" x1="1127.1477" y1="652.0336" x2="1127.1477" y2="1060.9513">
		<stop  offset="0" style="stop-color:#333333"/>
		<stop  offset="1" style="stop-color:#000000"/>
	</linearGradient>
	<path style="fill-rule:evenodd;clip-rule:evenodd;fill:url(#SVGID_00000001654396040465252850000008296288102285841296_);" d="
		M1124.08,949.81c-3.16,0-6.12,1.9-8.64,5.21c7.41,2.99,12.93,14.81,12.93,28.93c0,15.27-6.46,27.84-14.76,29.48
		c2.86,5.02,6.5,8.03,10.47,8.03c9.16,0,16.61-16.04,16.61-35.83C1140.69,965.84,1133.24,949.81,1124.08,949.81z"/>
	
		<linearGradient id="SVGID_00000165218870562208934820000007880622824597605283_" gradientUnits="userSpaceOnUse" x1="708.5927" y1="485.1792" x2="708.5927" y2="1054.6079">
		<stop  offset="0" style="stop-color:#333333"/>
		<stop  offset="1" style="stop-color:#000000"/>
	</linearGradient>
	<path style="fill-rule:evenodd;clip-rule:evenodd;fill:url(#SVGID_00000165218870562208934820000007880622824597605283_);" d="
		M704.32,899.84c-4.39,0-8.51,2.65-12.01,7.26c10.3,4.17,17.99,20.62,17.99,40.29c0,21.26-8.99,38.77-20.55,41.05
		c3.98,6.98,9.05,11.17,14.57,11.17c12.78,0,23.13-22.34,23.13-49.88C727.44,922.18,717.09,899.84,704.32,899.84z"/>
</g>
</svg>
