<svg width="100.000610" height="99.997437" viewBox="0 0 100.001 99.9974" fill="none" xmlns="http://www.w3.org/2000/svg" xmlns:xlink="http://www.w3.org/1999/xlink">
	<desc>
			Created with Pixso.
	</desc>
	<defs/>
	<path id="path" d="M59.2636 34.7577L97.9266 55.8176C99.9293 56.9082 100.58 59.504 99.4445 61.4748L96.8551 65.9585C95.7198 67.9292 93.1368 68.6627 91.1979 67.4764L53.6319 44.5223L50.0412 50.7407L18.649 32.6211L31.4623 10.4259L62.8544 28.5456L59.2636 34.7577ZM42.8341 0.661316L65.616 13.8126C67.9823 15.1775 68.7986 18.2325 67.4337 20.5987L65.6479 23.692L34.2558 5.57233L36.0416 2.47903C37.4065 0.112823 40.4679 -0.703552 42.8341 0.661316ZM15.5749 47.8771L38.3568 61.0283C40.723 62.3932 43.778 61.5768 45.1429 59.2106L46.9287 56.1173L15.5366 37.9977L13.7508 41.091C12.3859 43.4572 13.2087 46.5122 15.5749 47.8771ZM12.6793 77.9107L38.9882 77.9107C41.7244 77.9107 43.9566 80.143 43.9566 82.8791L43.9566 86.4507L7.71091 86.4507L7.71091 82.8791C7.71091 80.143 9.94318 77.9107 12.6793 77.9107ZM4.96841 91.4574L46.6991 91.4574C49.4353 91.4574 51.6675 93.696 51.6675 96.4258L51.6675 99.9974L0 99.9974L0 96.4258C0 93.6897 2.23227 91.4574 4.96841 91.4574Z" fill-rule="evenodd" fill="#2B6AB0"/>
</svg>
