<svg width="100.000000" height="100.000000" viewBox="0 0 100 100" fill="none" xmlns="http://www.w3.org/2000/svg" xmlns:xlink="http://www.w3.org/1999/xlink">
	<desc>
			Created with Pixso.
	</desc>
	<defs>
		<clipPath id="clip16_17">
			<rect id="Фото-Видео" width="100.000000" height="100.000000" fill="white"/>
		</clipPath>
	</defs>
	<g clip-path="url(#clip16_17)">
		<path id="path" d="M50.0032 53.358C59.6658 53.358 67.5043 61.1902 67.5043 70.8591C67.5043 80.5217 59.6722 88.3603 50.0032 88.3603C40.3406 88.3603 32.5021 80.5217 32.5021 70.8591C32.5021 61.1965 40.3406 53.358 50.0032 53.358ZM50.0032 45.8575C63.8115 45.8575 75.0048 57.0508 75.0048 70.8591C75.0048 84.6674 63.8115 95.8607 50.0032 95.8607C36.1949 95.8607 25.0016 84.6674 25.0016 70.8591C25.0016 57.0508 36.1949 45.8575 50.0032 45.8575ZM5.00034 41.7119L32.0748 41.7119L32.0748 24.7337C32.0748 21.9848 34.3262 19.7334 37.0751 19.7334L62.9249 19.7334C65.6738 19.7334 67.9252 21.9848 67.9252 24.7337L67.9252 41.7119L94.9997 41.7119C97.7486 41.7119 100 43.9633 100 46.7122L100 94.9997C100 97.7486 97.7486 100 94.9997 100L5.00031 100C2.25143 100 0 97.7486 0 94.9997L0 46.7122C0 43.9633 2.25143 41.7119 5.00034 41.7119ZM38.3252 26.577L61.6812 26.577L61.6812 35.8123L38.3252 35.8123L38.3252 26.577ZM50.0032 -0.00634766C51.1066 -0.00634766 52.0059 0.892944 52.0059 1.99631L52.0059 12.9983C52.0059 14.1017 51.1066 15.001 50.0032 15.001C48.8998 15.001 48.0005 14.1017 48.0005 12.9983L48.0005 1.99631C48.0005 0.892944 48.8998 -0.00634766 50.0032 -0.00634766ZM19.1785 5.63812C19.9566 4.86002 21.2258 4.86002 22.004 5.63812L29.7851 13.4193C30.5632 14.1974 30.5632 15.4666 29.7851 16.2447C29.007 17.0228 27.7377 17.0228 26.9596 16.2447L19.1785 8.46356C18.4004 7.68546 18.4004 6.41623 19.1785 5.63812ZM80.8342 5.63812C80.0561 4.86002 78.7869 4.86002 78.0088 5.63812L70.2277 13.4193C69.4496 14.1974 69.4496 15.4666 70.2277 16.2447C71.0058 17.0228 72.275 17.0228 73.0531 16.2447L80.8342 8.46356C81.6124 7.68546 81.6124 6.41623 80.8342 5.63812ZM33.1909 0.159454C34.1986 -0.280609 35.3849 0.178589 35.825 1.18631L40.2513 11.2571C40.6914 12.2648 40.2322 13.4511 39.2245 13.8912C38.2167 14.3313 37.0304 13.8721 36.5903 12.8643L32.1641 2.79355C31.724 1.78586 32.1832 0.599548 33.1909 0.159454ZM66.8219 0.159454C65.8141 -0.280609 64.6279 0.178589 64.1878 1.18631L59.7615 11.2571C59.3214 12.2648 59.7806 13.4511 60.7883 13.8912C61.7961 14.3313 62.9824 13.8721 63.4224 12.8643L67.8487 2.79355C68.2888 1.78586 67.8296 0.599548 66.8219 0.159454ZM12.2202 19.676C12.5518 18.63 13.6807 18.0433 14.7331 18.3749L25.2184 21.7042C26.2644 22.0359 26.8512 23.1648 26.5196 24.2171C26.1879 25.2631 25.059 25.8499 24.0067 25.5182L13.5213 22.1889C12.4753 21.8573 11.8885 20.7284 12.2202 19.676ZM87.7926 19.676C87.4609 18.63 86.332 18.0433 85.2797 18.3749L74.7943 21.7042C73.7483 22.0359 73.1616 23.1648 73.4932 24.2171C73.8249 25.2631 74.9538 25.8499 76.0061 25.5182L86.4915 22.1889C87.5375 21.8573 88.1242 20.7284 87.7926 19.676ZM12.2202 36.2906C12.5518 37.3366 13.6807 37.9234 14.7331 37.5917L25.2184 34.2624C26.2644 33.9308 26.8512 32.8018 26.5196 31.7495C26.1879 30.7035 25.059 30.1167 24.0066 30.4484L13.5213 33.7777C12.4753 34.1093 11.8885 35.2383 12.2202 36.2906ZM87.7926 36.2906C87.4609 37.3366 86.332 37.9234 85.2797 37.5917L74.7943 34.2624C73.7483 33.9308 73.1616 32.8018 73.4932 31.7495C73.8249 30.7035 74.9538 30.1167 76.0061 30.4484L86.4915 33.7777C87.5375 34.1093 88.1242 35.2383 87.7926 36.2906Z" fill-rule="evenodd" fill="#2B6AB0"/>
	</g>
</svg>
