<svg width="100.006378" height="99.994598" viewBox="0 0 100.006 99.9946" fill="none" xmlns="http://www.w3.org/2000/svg" xmlns:xlink="http://www.w3.org/1999/xlink">
	<desc>
			Created with Pixso.
	</desc>
	<defs/>
	<path id="path" d="M8.5018 33.6629L13.5021 33.6629L13.5021 15.1285L8.5018 15.1285L8.5018 33.6629ZM32.0046 5.39575C40.0217 6.01441 48.0388 6.62669 56.0495 7.23898C58.2435 7.40481 60.0485 9.06308 60.0485 11.2762L60.0485 37.5152C60.0485 39.7219 58.2307 41.3866 56.0495 41.5524C48.0324 42.1647 40.0153 42.7834 32.0046 43.402L32.0046 44.7605C32.0046 46.98 30.206 48.7978 28.0056 48.7978L3.99899 48.7978C1.79858 48.7978 0 46.98 0 44.7605L0 37.7001C0 35.6528 1.5307 33.9435 3.5015 33.6948L3.5015 15.103C1.53708 14.8543 0 13.145 0 11.0976L0 4.03725C0 1.81772 1.79858 0 3.99899 0L28.0056 0C30.206 0 32.0046 1.81772 32.0046 4.03725L32.0046 5.39575ZM32.0046 38.3443L38.8673 37.8149L38.8673 10.9828L32.0046 10.4535L32.0046 11.0913C32.0046 13.1386 30.4675 14.8479 28.5031 15.0966L28.5031 33.6884C30.4675 33.9371 32.0046 35.64 32.0046 37.6937L32.0046 38.3443ZM18.5024 33.6629L23.5028 33.6629L23.5028 15.1285L18.5024 15.1285L18.5024 33.6629ZM54.6846 69.4305L54.793 69.4305C52.8988 67.9954 50.3221 67.3895 47.79 67.364C42.9747 66.8538 36.3607 72.7534 29.0133 81.2871C34.779 87.8181 41.3866 95.1209 47.79 94.955C50.9088 94.8721 53.2496 94.0685 54.9078 92.7164L54.6846 92.7164C52.4842 92.7164 50.6856 90.8987 50.6856 88.6791L50.6856 73.4677C50.6856 71.2482 52.4842 69.4305 54.6846 69.4305ZM61.2603 69.4496L65.3358 69.4623C79.8329 69.7175 94.7063 67.4533 94.7828 52.1653C94.8593 36.7753 76.7587 35.6655 65.0552 35.3466C65.0552 27.6421 65.0552 19.9439 65.0552 12.2393C84.2145 12.3605 100.006 23.4262 100.006 52.1653C100.006 76.8608 89.6805 92.4421 65.3422 92.71L61.6238 92.71L60.0867 94.4193C56.9743 97.6848 52.9243 99.9298 47.7964 99.9936C40.7105 100.083 33.2483 94.0047 25.5692 85.0309C18.056 92.1168 10.4598 92.9524 2.72977 85.0692C-2.14938 76.899 0.0255127 69.2072 7.64078 62.9696C8.08725 62.5423 8.69315 62.2871 9.35007 62.2871C10.7277 62.2871 11.8502 63.416 11.8502 64.8064C11.8502 65.5335 11.5441 66.1841 11.0594 66.6497C11.0083 66.6943 10.9637 66.7389 10.9063 66.7836C5.34473 71.65 3.40582 76.6312 6.55014 81.8356C11.3081 87.3334 16.9335 87.5056 23.8535 79.6224C33.3886 68.1357 41.3036 62.2106 47.7964 62.319C54.0404 62.4211 57.7779 64.6597 60.1888 67.8551L61.2603 69.4496Z" fill-rule="evenodd" fill="#2B6AB0"/>
</svg>
