<svg width="100.012756" height="91.306854" viewBox="0 0 100.013 91.3069" fill="none" xmlns="http://www.w3.org/2000/svg" xmlns:xlink="http://www.w3.org/1999/xlink">
	<desc>
			Created with Pixso.
	</desc>
	<defs/>
	<path id="path" d="M5.61261 47.637C6.88184 43.6061 8.9993 42.4644 11.6589 43.7337C14.6119 45.545 19.3061 48.4278 21.9402 50.5517C23.624 51.9102 23.3306 53.3516 21.6085 53.7407C18.0114 54.5634 13.1067 54.1935 9.29269 53.1348C6.67136 52.4077 4.19034 52.1526 5.61261 47.637ZM94.4129 47.637C93.1437 43.6061 91.0262 42.4644 88.3666 43.7337C85.4136 45.545 80.7195 48.4278 78.0854 50.5517C76.4016 51.9102 76.6949 53.3516 78.417 53.7407C82.0142 54.5634 86.9188 54.1935 90.7328 53.1348C93.3542 52.4077 95.8352 52.1526 94.4129 47.637ZM93.6795 64.8192C87.512 64.5896 80.4579 65.3868 74.9666 62.7591C71.5352 61.12 69.6473 65.4251 72.3771 66.8729C75.5278 68.5439 78.5892 69.3284 82.0014 69.3922C85.9685 69.4687 84.5717 70.8145 83.3982 72.7789C81.7144 75.5852 85.5093 78.0471 87.2314 75.8977C90.1588 72.2368 95.9819 64.9021 93.6795 64.8192ZM80.6684 82.5116L80.6684 87.0847C80.6684 89.4062 82.5691 91.3069 84.8906 91.3069L95.7906 91.3069C98.1122 91.3069 100.013 89.4062 100.013 87.0847C100.013 77.7218 100.013 68.461 100.013 59.0727C100.013 53.7598 99.8406 49.1486 98.144 44.0334C96.3391 39.7347 92.4294 37.0559 89.6613 33.867C91.4025 33.8415 93.1437 33.8988 94.8849 33.7904C95.9564 33.7267 97.3531 33.0123 97.1746 31.826C96.9896 30.5759 97.0662 28.8347 96.2243 28.3437C94.6744 27.438 91.4791 26.73 90.3948 26.915C89.0427 27.1446 88.137 28.1459 87.6906 29.1409C85.8027 24.9506 84.0998 20.8177 81.6124 16.825C78.1938 11.34 75.6936 11.1423 69.2838 10.8999C55.8773 10.3961 44.1355 10.3961 30.729 10.8999C24.3192 11.1423 21.8254 11.34 18.4004 16.825C15.913 20.8177 14.2037 24.9569 12.3222 29.1409C11.8758 28.1459 10.9765 27.1446 9.61795 26.915C8.53372 26.73 5.33197 27.438 3.78851 28.3437C2.94662 28.8347 3.02316 30.5759 2.8382 31.826C2.65961 33.0059 4.0564 33.7203 5.12787 33.7904C6.86267 33.8988 8.61023 33.8415 10.3514 33.867C7.58978 37.0559 3.67371 39.7283 1.86874 44.0334C0.172211 49.1422 0 53.7598 0 59.0727C0 68.461 0 77.7218 0 87.0847C0 89.4062 1.90063 91.3069 4.2222 91.3069L15.1221 91.3069C17.4437 91.3069 19.3444 89.4062 19.3444 87.0847L19.3444 82.5116C37.8914 84.6164 62.1213 84.6164 80.6684 82.5116ZM70.183 15.6962C73.742 15.964 76.0635 16.0023 78.181 20.1799C80.0306 23.0882 81.1531 26.1751 82.5117 29.2111C60.8457 29.2366 39.1798 29.2366 17.5139 29.2111C18.866 26.1751 19.9949 23.0882 21.8445 20.1799C23.9556 16.0023 26.2836 15.964 29.8425 15.6962C43.2617 14.6884 56.7639 14.6884 70.183 15.6962ZM62.6826 50.5517C66.8346 50.4369 67.3513 49.78 69.5771 46.5846C73.4422 41.0294 78.889 35.5316 83.8574 32.1577C85.1266 37.5981 78.4553 42.9173 72.4919 50.5389C70.3042 53.9894 67.3448 55.5074 63.7413 55.4117C54.589 55.4053 45.4366 55.4053 36.2842 55.4117C32.6807 55.5074 29.7213 53.983 27.5337 50.5389C21.5703 42.9173 14.8989 37.5917 16.1681 32.1577C21.1429 35.5316 26.5833 41.0294 30.4484 46.5846C32.6743 49.78 33.1909 50.4369 37.343 50.5517C45.443 50.7749 54.5826 50.7749 62.6826 50.5517ZM63.837 71.8477C66.7836 71.9115 69.0988 71.7711 70.9548 73.7165C71.8094 74.6923 72.6641 75.6681 73.5187 76.6439C57.8481 76.6694 42.1838 76.6694 26.5196 76.6439C27.3742 75.6681 28.2289 74.6923 29.0835 73.7165C30.9395 71.7711 33.2483 71.9179 36.2013 71.8477C45.2261 71.6436 54.8186 71.6436 63.837 71.8477ZM6.35245 64.8128C12.5199 64.5832 19.574 65.3805 25.0654 62.7527C28.4967 61.1136 30.3846 65.4187 27.6548 66.8665C24.5041 68.5375 21.4427 69.322 18.0305 69.3858C14.0634 69.4623 15.4602 70.8081 16.6337 72.7725C18.3175 75.5788 14.5226 78.0407 12.8006 75.8913C9.87308 72.2304 4.05002 64.8957 6.35245 64.8128ZM26.0029 0L39.6135 0L39.6135 7.00299L26.0029 7.00299C22.7183 7.00299 22.7119 0 26.0029 0ZM74.0353 0L60.4248 0L60.4248 7.00299L74.0353 7.00299C77.3264 7.00299 77.32 0 74.0353 0ZM42.541 0.0191345L57.4973 0.0191345L57.4973 7.02213L42.541 7.02213L42.541 0.0191345Z" fill-rule="evenodd" fill="#2B6AB0"/>
</svg>
