<svg width="100.000977" height="99.997253" viewBox="0 0 100.001 99.9973" fill="none" xmlns="http://www.w3.org/2000/svg" xmlns:xlink="http://www.w3.org/1999/xlink">
	<desc>
			Created with Pixso.
	</desc>
	<defs/>
	<path id="path" d="M9.99426 30.6178C9.99426 33.9152 9.99426 37.2126 9.99426 40.51C9.99426 61.4616 23.2732 81.4884 42.6813 89.3588C56.4896 83.759 67.1918 72.0108 72.2176 58.1578L71.6691 58.936C66.5923 66.1877 56.2919 66.1367 51.1576 58.987L28.771 27.7924C24.5679 21.931 25.9583 14.5071 31.7686 10.438C31.9855 10.2849 32.2087 10.1446 32.4255 10.0043L25.2312 10.0043C23.9875 14.2137 22.0231 18.2446 19.4846 21.7843C16.9781 25.2731 13.7573 28.4493 9.99426 30.6178ZM66.5476 22.6773C66.318 22.3775 66.0948 22.0777 65.8779 21.778C63.3331 18.2382 61.3751 14.2073 60.1314 9.99789L45.7108 9.99789C47.0119 10.8462 48.1982 11.9687 49.1932 13.3527L61.2858 30.1969L66.5476 22.6773ZM0 23.5128C8.10638 23.1939 16.6337 11.4903 16.774 0.00363159C34.0519 0.00363159 51.3298 0.00363159 68.6077 0.00363159C68.6651 4.90826 70.2532 9.84482 72.6832 13.9267L69.5835 18.353C66.8729 14.4242 64.9276 9.77466 64.0793 5.00394C49.8182 5.00394 35.5571 5.00394 21.296 5.00394C20.4095 9.97876 18.3303 14.826 15.4347 18.8633C12.8388 22.4796 9.23529 25.8599 5.00031 27.4926C5.00031 31.8296 5.00031 36.173 5.00031 40.51C5.00031 64.2105 20.4095 86.6418 42.6877 94.7099C62.893 87.388 77.4475 68.2542 79.986 47.0729L85.3817 39.3684L85.3817 40.5037C85.3817 67.4569 67.3576 91.9164 42.6941 99.9973C18.0305 91.9227 0.00637817 67.4569 0.00637817 40.5037C0.00637817 29.3677 0 34.6487 0 23.5128ZM45.1304 16.2738L61.3304 38.8454L86.2428 3.26913C91.9319 -4.85638 104.222 3.7475 98.5331 11.873L67.5872 56.0659C64.4748 60.5113 58.352 60.4156 55.2331 56.0659L32.8465 24.8713C27.0617 16.8095 39.3456 8.21844 45.1304 16.2738Z" fill-rule="evenodd" fill="#2B6AB0"/>
</svg>
