<svg width="99.993011" height="99.999405" viewBox="0 0 99.993 99.9994" fill="none" xmlns="http://www.w3.org/2000/svg" xmlns:xlink="http://www.w3.org/1999/xlink">
	<desc>
			Created with Pixso.
	</desc>
	<defs/>
	<path id="path" d="M31.77 64.2821C34.924 65.76 37.6621 66.9435 40.1508 67.8391C25.4685 71.8248 14.3688 84.4983 12.7182 99.9994L0 99.9994C0.0127869 95.9498 0 92.4184 0 89.4435C0 72.8612 11.4835 69.221 19.6595 67.1994C24.0738 66.1054 27.7204 66.0159 31.77 64.2821ZM59.9446 67.8647C62.4077 66.9755 65.1074 65.7855 68.223 64.2821C72.2726 66.0095 75.9192 66.1054 80.3335 67.1994C88.5095 69.221 99.993 72.8676 99.993 89.4435C99.993 92.4248 99.9802 95.9498 99.993 99.9994L87.2748 99.9994C85.6242 84.5302 74.5757 71.876 59.9446 67.8647ZM49.9965 0C36.389 0.889252 25.1998 5.71297 24.7072 27.9059C20.3313 28.8911 23.2037 43.6502 26.8567 43.7078C31.2006 55.7351 40.2403 64.4932 50.0029 64.7683C59.7655 64.4932 68.8052 55.7415 73.1491 43.7078C76.8021 43.6502 79.6745 28.8911 75.2986 27.9059C74.806 5.70657 63.5976 0.889252 49.9965 0ZM28.6352 31.1239C29.5629 34.2458 28.9935 26.7608 33.8492 23.2229C39.2295 19.3013 41.5454 23.2805 49.9773 23.0502C54.9674 22.7815 55.492 21.2269 58.5244 21.8347C61.6464 22.4552 63.4249 23.1718 65.728 24.4641C66.2845 24.9823 63.6872 20.1905 66.5212 22.692C67.5257 23.6964 68.9331 26.9015 69.7712 29.2302C70.4493 31.1175 70.5581 32.4865 71.3578 31.1239C71.9336 30.5545 73.1747 30.4841 73.4178 31.5845C74.7676 38.4746 70.814 42.0444 69.3745 42.3451C66.4765 50.3804 59.452 60.418 49.9901 60.7571C40.5282 60.418 33.5101 50.3804 30.6057 42.3451C29.1662 42.0444 25.2126 38.4746 26.5624 31.5845C26.8055 30.4841 28.0594 30.5545 28.6352 31.1239Z" fill-rule="evenodd" fill="#2B6AB0"/>
	<path id="path" d="M50.0029 76.5206C58.9402 76.5206 66.8859 80.7877 71.908 87.3963C71.8504 91.5099 70.686 95.0349 66.63 94.6127C60.6803 93.9921 58.6267 93.2692 50.0029 93.2692C41.3791 93.2692 39.3255 93.9921 33.3758 94.6127C29.3198 95.0349 28.1554 91.5099 28.0978 87.3963C33.1199 80.7877 41.0592 76.5206 50.0029 76.5206ZM76.4886 96.6023C76.7957 97.7091 77.0388 98.8415 77.2115 99.9994L82.2591 99.9994C80.2759 83.9481 66.5916 71.5241 50.0093 71.5241C33.4206 71.5241 19.7427 83.9481 17.7595 99.9994L22.8071 99.9994C22.9734 98.8415 23.2165 97.7091 23.53 96.6087C24.1826 98.5536 25.9163 99.9994 27.4645 99.9994C34.9815 99.9994 42.4986 99.9994 50.0093 99.9994C57.5264 99.9994 65.0434 99.9994 72.5541 99.9994C74.1087 99.9994 75.836 98.5472 76.4886 96.6023Z" fill-rule="evenodd" fill="#2B6AB0"/>
</svg>
